<!-- Generated by IcoMoon.io -->
<svg version="1.1" xmlns="http://www.w3.org/2000/svg" width="22" height="16" viewBox="0 0 22 16">
<title>article-express--small</title>
<path d="M21.219 11.346c-1.223 2.344-2.82 3.295-4.824 3.295-1.597 0-2.718-0.747-3.499-2.072-0.611-0.951-0.985-2.378-0.985-4.518 0-0.646 0.034-1.155 0.068-1.461h8.628c0.578 0 0.849 0 0.985-0.068 0.339-0.102 0.476-0.34 0.476-0.917 0-1.155-0.442-2.208-1.325-3.397-1.121-1.393-2.854-2.14-4.858-2.14-1.789 0-3.432 0.668-4.743 1.948-0.797-1.34-2.469-2.016-4.994-2.016-1.903 0-3.261 0.441-4.416 1.189-0.781 0.544-1.359 1.359-1.359 2.344 0 1.393 0.679 2.072 2.038 2.072 1.257 0 1.936-0.578 1.936-1.665 0-1.019-0.408-1.325-0.883-1.903 0.374-0.544 1.393-0.985 2.582-0.985 1.257 0 2.344 0.645 2.65 1.325 0.068 0.645 0.102 2.038 0.102 3.465l-2.548 0.985c-2.174 0.815-3.974 1.664-4.994 2.616-0.883 0.815-1.257 1.97-1.257 3.057 0 2.106 1.461 3.431 3.669 3.431 1.936 0 3.974-1.393 5.13-2.82h0.020c0.132-0.168 0.336-0.283 0.615-0.283 0.062 0 0.115 0.012 0.17 0.024 0.013-0 0.024-0.004 0.037-0.004 0.157 0 0.29 0.038 0.399 0.1 0.222 0.32 0.471 0.625 0.75 0.911 1.393 1.427 3.193 2.14 5.197 2.14 2.31 0 4.45-0.917 5.605-2.82 0.408-0.714 0.577-1.189 0.577-1.461-0.17-0.34-0.543-0.374-0.951-0.374zM15.919 1.121c0.883 0 1.529 0.306 2.14 0.917 0.509 0.51 0.815 0.985 0.815 1.801 0 0.679-0.17 1.019-0.442 1.223-0.068 0.068-0.374 0.17-0.713 0.204-0.306 0-1.903 0.102-3.091 0.102h-2.514c0-2.14 1.597-4.246 3.805-4.246zM8.876 12.033c-0.041 0.052-0.089 0.098-0.144 0.137-0.050 0.060-0.106 0.116-0.176 0.159-0.057 0.093-0.134 0.172-0.23 0.233-0.836 0.819-1.826 1.195-2.823 1.195-1.427 0-2.548-0.951-2.548-2.344 0-1.359 0.917-2.548 3.703-3.669 1.092-0.437 1.811-0.672 2.158-0.813-0.064 0.469-0.098 0.954-0.098 1.459 0 0.873 0.111 1.695 0.333 2.461-0.004 0.004-0.007 0.009-0.011 0.013 0.010 0.015 0.019 0.030 0.029 0.045 0.037 0.124 0.077 0.246 0.119 0.367 0.027 0.284-0.077 0.582-0.311 0.757z"></path>
</svg>
