<!-- Generated by IcoMoon.io -->
<svg version="1.1" xmlns="http://www.w3.org/2000/svg" width="16" height="16" viewBox="0 0 16 16">
<title>cd</title>
<path d="M15.667 0.667h-15.333c-0.184 0-0.333 0.149-0.333 0.333v13.333c0 0.184 0.149 0.333 0.333 0.333h15.333c0.184 0 0.333-0.149 0.333-0.333v-13.333c0-0.184-0.149-0.333-0.333-0.333zM0.667 1.333h1.333v12.667h-1.333v-12.667zM15.333 14h-12.667v-12.667h12.667v12.667z"></path>
<path d="M9 13.333c3.125 0 5.667-2.542 5.667-5.667s-2.542-5.667-5.667-5.667-5.667 2.542-5.667 5.667 2.542 5.667 5.667 5.667zM9 2.667c2.757 0 5 2.243 5 5s-2.243 5-5 5-5-2.243-5-5 2.243-5 5-5z"></path>
<path d="M9 9.333c0.919 0 1.667-0.747 1.667-1.667s-0.748-1.667-1.667-1.667-1.667 0.747-1.667 1.667 0.748 1.667 1.667 1.667zM9 6.667c0.551 0 1 0.449 1 1s-0.449 1-1 1-1-0.449-1-1 0.449-1 1-1z"></path>
<path d="M9.333 7.667c0 0.184-0.149 0.333-0.333 0.333s-0.333-0.149-0.333-0.333c0-0.184 0.149-0.333 0.333-0.333s0.333 0.149 0.333 0.333z"></path>
</svg>
