<!-- Generated by IcoMoon.io -->
<svg version="1.1" xmlns="http://www.w3.org/2000/svg" width="48" height="48" viewBox="0 0 48 48">
<title>file-format-xml</title>
<path d="M23.646 25.67c-0.422-0.118-0.884 0.048-1.124 0.424l-2.46 3.864-2.46-3.864c-0.24-0.376-0.708-0.542-1.124-0.424-0.428 0.126-0.72 0.516-0.72 0.96v10.376c0 0.552 0.448 1 1 1s1-0.448 1-1v-6.944l1.46 2.292c0.368 0.578 1.32 0.578 1.688 0l1.46-2.292v6.944c0 0.552 0.448 1 1 1s1-0.448 1-1v-10.376c0.002-0.444-0.292-0.836-0.72-0.96z"></path>
<path d="M32.094 36.006h-3.962v-9.376c0-0.552-0.448-1-1-1s-1 0.448-1 1v10.376c0 0.552 0.448 1 1 1h4.962c0.552 0 1-0.448 1-1s-0.448-1-1-1z"></path>
<path d="M13.458 25.728c-0.498-0.238-1.096-0.028-1.334 0.472l-1.58 3.3-1.58-3.3c-0.24-0.5-0.838-0.71-1.334-0.47-0.498 0.238-0.708 0.836-0.47 1.334l2.276 4.756-2.276 4.754c-0.238 0.498-0.028 1.096 0.47 1.334 0.138 0.066 0.288 0.098 0.432 0.098 0.374 0 0.73-0.208 0.902-0.568l1.578-3.3 1.58 3.3c0.172 0.36 0.53 0.568 0.902 0.568 0.144 0 0.292-0.032 0.432-0.098 0.498-0.238 0.708-0.836 0.47-1.334l-2.276-4.756 2.276-4.756c0.24-0.498 0.030-1.096-0.468-1.334z"></path>
<path d="M39.922 12.616c-0.050-0.124-0.126-0.23-0.216-0.324l-11.996-11.998c-0.092-0.090-0.202-0.164-0.324-0.214-0.122-0.052-0.254-0.080-0.386-0.080h-26c-0.552 0-1 0.448-1 1v46c0 0.552 0.448 1 1 1h38c0.552 0 1-0.448 1-1v-34c0-0.132-0.028-0.264-0.078-0.384zM28 3.414l8.586 8.586h-8.586v-8.586zM2 46v-44h24v11c0 0.552 0.448 1 1 1h11v32h-36z"></path>
</svg>
