<!-- Generated by IcoMoon.io -->
<svg version="1.1" xmlns="http://www.w3.org/2000/svg" width="16" height="16" viewBox="0 0 16 16">
<title>journal</title>
<path d="M15.667 0.667c-3.221 0-6.611 0.645-7.667 1.856-1.055-1.211-4.445-1.856-7.667-1.856-0.184 0-0.333 0.149-0.333 0.333v11c0 0.184 0.149 0.333 0.333 0.333 4.543 0 7.333 1.165 7.333 2 0 0.184 0.149 0.333 0.333 0.333s0.333-0.149 0.333-0.333c0-0.835 2.79-2 7.333-2 0.184 0 0.333-0.149 0.333-0.333v-11c0-0.184-0.149-0.333-0.333-0.333zM0.667 11.669v-10.333c4.346 0.055 7 1.183 7 1.998v9.887c-1.267-0.977-4.163-1.513-7-1.552zM15.333 11.669c-2.837 0.039-5.733 0.575-7 1.551v-9.887c0-0.815 2.654-1.943 7-1.998v10.333zM6.453 4.516c-1.122-0.43-2.695-0.731-4.43-0.849-0.175-0.003-0.343 0.126-0.355 0.31s0.126 0.343 0.31 0.355c1.671 0.113 3.176 0.399 4.237 0.805 0.039 0.015 0.079 0.022 0.119 0.022 0.134 0 0.261-0.081 0.311-0.214 0.065-0.172-0.020-0.365-0.192-0.43zM6.453 6.516c-1.122-0.43-2.695-0.731-4.43-0.849-0.175-0.005-0.343 0.126-0.355 0.31s0.126 0.343 0.31 0.355c1.671 0.113 3.176 0.399 4.237 0.805 0.039 0.015 0.079 0.022 0.119 0.022 0.134 0 0.261-0.081 0.311-0.214 0.065-0.172-0.020-0.365-0.192-0.43zM6.453 8.516c-1.122-0.43-2.695-0.731-4.43-0.849-0.175-0.007-0.343 0.126-0.355 0.31s0.126 0.343 0.31 0.355c1.671 0.113 3.176 0.399 4.237 0.805 0.039 0.015 0.079 0.023 0.119 0.023 0.134 0 0.261-0.081 0.311-0.214 0.065-0.172-0.020-0.365-0.192-0.43zM6.453 10.516c-1.122-0.43-2.695-0.731-4.43-0.849-0.175-0.009-0.343 0.126-0.355 0.31s0.126 0.343 0.31 0.355c1.671 0.113 3.176 0.399 4.237 0.805 0.039 0.015 0.079 0.023 0.119 0.023 0.134 0 0.261-0.081 0.311-0.214 0.065-0.172-0.020-0.365-0.192-0.43zM9.667 5.16c0.040 0 0.080-0.007 0.119-0.023 1.063-0.406 2.567-0.692 4.237-0.805 0.183-0.012 0.322-0.171 0.31-0.355s-0.177-0.313-0.355-0.31c-1.734 0.117-3.307 0.419-4.43 0.849-0.172 0.065-0.258 0.258-0.192 0.43 0.051 0.133 0.177 0.214 0.311 0.214zM9.667 7.16c0.040 0 0.080-0.007 0.119-0.023 1.063-0.406 2.567-0.692 4.237-0.805 0.183-0.012 0.322-0.171 0.31-0.355s-0.177-0.315-0.355-0.31c-1.734 0.117-3.307 0.419-4.43 0.849-0.172 0.065-0.258 0.258-0.192 0.43 0.051 0.133 0.177 0.214 0.311 0.214zM9.667 9.16c0.040 0 0.080-0.007 0.119-0.023 1.063-0.406 2.567-0.692 4.237-0.805 0.183-0.012 0.322-0.171 0.31-0.355s-0.177-0.317-0.355-0.31c-1.734 0.117-3.307 0.419-4.43 0.849-0.172 0.065-0.258 0.258-0.192 0.43 0.051 0.133 0.177 0.214 0.311 0.214zM9.667 11.16c0.040 0 0.080-0.007 0.119-0.023 1.063-0.406 2.567-0.692 4.237-0.805 0.183-0.012 0.322-0.171 0.31-0.355s-0.177-0.319-0.355-0.31c-1.734 0.117-3.307 0.419-4.43 0.849-0.172 0.065-0.258 0.258-0.192 0.43 0.051 0.133 0.177 0.214 0.311 0.214z"></path>
</svg>
