<!-- Generated by IcoMoon.io -->
<svg version="1.1" xmlns="http://www.w3.org/2000/svg" width="16" height="16" viewBox="0 0 16 16">
<title>links</title>
<path d="M14.488 2.684l-1.172-1.172c-0.877-0.878-2.422-0.878-3.299 0l-2.643 2.643c-0.65 0.649-0.65 1.708 0.001 2.358l0.057 0.057c0.131 0.13 0.342 0.129 0.471-0.001s0.129-0.341-0.001-0.471l-0.057-0.057c-0.39-0.389-0.39-1.024 0-1.414l2.643-2.643c0.626-0.627 1.731-0.627 2.357 0l1.171 1.171c0.649 0.65 0.649 1.708 0 2.357l-2.643 2.643c-0.39 0.391-1.024 0.391-1.414 0l-0.057-0.057c-0.13-0.13-0.341-0.13-0.471 0s-0.13 0.341 0 0.471l0.057 0.057c0.325 0.325 0.751 0.487 1.179 0.487s0.853-0.163 1.179-0.487l2.643-2.643c0.909-0.908 0.909-2.388 0-3.298z"></path>
<path d="M8.569 9.431c-0.13-0.13-0.341-0.13-0.471 0s-0.13 0.341 0 0.471l0.057 0.057c0.39 0.389 0.39 1.024 0 1.414l-2.643 2.644c-0.625 0.626-1.73 0.626-2.357 0l-1.172-1.172c-0.649-0.649-0.649-1.707 0-2.357l2.643-2.643c0.39-0.39 1.025-0.389 1.415 0.001l0.057 0.057c0.131 0.13 0.342 0.129 0.471-0.001s0.129-0.341-0.001-0.471l-0.057-0.057c-0.65-0.649-1.707-0.649-2.357 0l-2.643 2.644c-0.909 0.909-0.909 2.389 0 3.299l1.171 1.171c0.439 0.439 1.025 0.681 1.65 0.681s1.211-0.242 1.65-0.681l2.643-2.643c0.65-0.649 0.65-1.708 0-2.357l-0.057-0.057z"></path>
<path d="M5.172 10.829c0.065 0.065 0.151 0.097 0.236 0.097s0.171-0.033 0.236-0.097l5.185-5.186c0.13-0.13 0.13-0.341 0-0.471s-0.341-0.131-0.471 0l-5.185 5.185c-0.131 0.131-0.131 0.341-0.001 0.472z"></path>
</svg>
