<!-- Generated by IcoMoon.io -->
<svg version="1.1" xmlns="http://www.w3.org/2000/svg" width="16" height="16" viewBox="0 0 16 16">
<title>senior-thesis</title>
<path d="M13.667 0h-11.333c-0.533 0-1 0.467-1 1v14c0 0.533 0.467 1 1 1h11.333c0.2 0 0.333-0.133 0.333-0.333v-15.333c0-0.2-0.133-0.333-0.333-0.333zM3.333 15.333h-1c-0.2 0-0.333-0.133-0.333-0.333v-14c0-0.2 0.133-0.333 0.333-0.333h1v14.667zM13.333 15.333h-9.333v-14.667h9.333v14.667zM10.333 6.2v-1.467l-0.6-0.6h-2.067v2.733h2.067l0.6-0.667zM8.333 6.133v-1.333h1.067l0.2 0.2v0.867l-0.2 0.2h-1.067zM8.867 9.467h-0.533v-1.133h2.467l1.467-1.467v-2.8l-1.467-1.467h-5.667v2.2h0.533v4.667h-0.533v2.2h3.733v-2.2zM8.133 10.2v0.8h-2.267v-0.8h0.533v-6.067h-0.533v-0.867h4.667l1.133 1.133v2.133l-1.133 1.133h-2.867v2.6h0.467z"></path>
</svg>
