<!-- Generated by IcoMoon.io -->
<svg version="1.1" xmlns="http://www.w3.org/2000/svg" width="16" height="16" viewBox="0 0 16 16">
<title>databases</title>
<path d="M10.667 6.667h0.667v-3c0-0.045-0.009-0.088-0.026-0.128s-0.041-0.077-0.072-0.108l-3.333-3.333c-0.031-0.030-0.067-0.055-0.108-0.071-0.040-0.017-0.083-0.027-0.128-0.027h-7.333c-0.184 0-0.333 0.149-0.333 0.333v14c0 0.184 0.149 0.333 0.333 0.333h7v-0.667h-6.667v-13.333h6.667v3c0 0.184 0.149 0.333 0.333 0.333h3v2.667zM8 1.138l2.195 2.195h-2.195v-2.195z"></path>
<path d="M15.903 15.431l-2.124-2.124c0.387-0.489 0.628-1.099 0.628-1.77 0-1.583-1.287-2.871-2.87-2.871s-2.87 1.289-2.87 2.871 1.288 2.871 2.871 2.871c0.671 0 1.281-0.241 1.77-0.629l2.124 2.124c0.065 0.064 0.15 0.097 0.235 0.097s0.171-0.033 0.236-0.097c0.13-0.13 0.13-0.341 0-0.472zM9.333 11.537c0-1.215 0.989-2.204 2.204-2.204s2.203 0.989 2.203 2.204-0.988 2.204-2.203 2.204c-1.215-0.001-2.204-0.989-2.204-2.204z"></path>
</svg>
