<!-- Generated by IcoMoon.io -->
<svg version="1.1" xmlns="http://www.w3.org/2000/svg" width="16" height="16" viewBox="0 0 16 16">
<title>digital</title>
<path d="M5.349 4.128v1.741c0 0.184 0.149 0.333 0.333 0.333s0.333-0.149 0.333-0.333v-2.335c0-0.133-0.079-0.254-0.202-0.307-0.122-0.051-0.265-0.027-0.361 0.065l-0.279 0.266c-0.133 0.127-0.139 0.338-0.012 0.471 0.052 0.055 0.119 0.088 0.187 0.099z"></path>
<path d="M3.499 6.506c-0.123-0.051-0.265-0.026-0.361 0.065l-0.28 0.267c-0.133 0.127-0.139 0.339-0.012 0.471 0.053 0.055 0.119 0.088 0.188 0.099v1.742c0 0.184 0.149 0.333 0.333 0.333s0.333-0.149 0.333-0.333v-2.338c0.001-0.132-0.079-0.253-0.201-0.305z"></path>
<path d="M12.301 4.128v1.741c0 0.184 0.149 0.333 0.333 0.333s0.333-0.149 0.333-0.333v-2.335c0-0.133-0.079-0.254-0.202-0.306s-0.264-0.027-0.361 0.065l-0.28 0.265c-0.134 0.126-0.139 0.337-0.013 0.471 0.053 0.055 0.119 0.089 0.189 0.099z"></path>
<path d="M12.301 7.408v1.742c0 0.184 0.149 0.333 0.333 0.333s0.333-0.149 0.333-0.333v-2.338c0-0.133-0.079-0.254-0.202-0.307-0.123-0.051-0.265-0.026-0.361 0.065l-0.28 0.267c-0.133 0.127-0.139 0.339-0.012 0.471 0.053 0.055 0.12 0.089 0.189 0.099z"></path>
<path d="M9.984 4.128v1.741c0 0.184 0.149 0.333 0.333 0.333s0.333-0.149 0.333-0.333v-2.335c0-0.133-0.079-0.254-0.202-0.307-0.123-0.051-0.265-0.027-0.361 0.065l-0.279 0.265c-0.133 0.127-0.139 0.338-0.012 0.471 0.052 0.055 0.119 0.088 0.188 0.099z"></path>
<path d="M8.131 6.506c-0.123-0.053-0.265-0.027-0.361 0.066l-0.279 0.267c-0.133 0.127-0.137 0.339-0.011 0.471 0.052 0.054 0.118 0.087 0.186 0.098v1.742c0 0.184 0.149 0.333 0.333 0.333s0.333-0.149 0.333-0.333v-2.338c0.001-0.133-0.079-0.253-0.202-0.306z"></path>
<path d="M3.227 6.229c0.943 0 0.943-1.109 0.943-1.527s0-1.527-0.943-1.527c-0.943 0-0.943 1.109-0.943 1.527s0 1.527 0.943 1.527zM3.227 3.842c0.097 0 0.277 0 0.277 0.86s-0.18 0.861-0.277 0.861-0.276 0-0.276-0.861c0-0.86 0.179-0.86 0.276-0.86z"></path>
<path d="M7.861 6.229c0.943 0 0.943-1.109 0.943-1.527s0-1.527-0.943-1.527-0.943 1.109-0.943 1.527c0 0.418 0 1.527 0.943 1.527zM7.861 3.842c0.097 0 0.277 0 0.277 0.86s-0.18 0.861-0.277 0.861-0.277 0-0.277-0.861c0-0.86 0.18-0.86 0.277-0.86z"></path>
<path d="M10.178 9.509c0.943 0 0.943-1.109 0.943-1.527s0-1.527-0.943-1.527c-0.943 0-0.943 1.109-0.943 1.527s0 1.527 0.943 1.527zM10.178 7.121c0.097 0 0.276 0 0.276 0.861s-0.18 0.86-0.276 0.86c-0.097 0-0.277 0-0.277-0.86s0.179-0.861 0.277-0.861z"></path>
<path d="M5.543 9.509c0.943 0 0.943-1.109 0.943-1.527s0-1.527-0.943-1.527-0.943 1.109-0.943 1.527c0 0.417 0 1.527 0.943 1.527zM5.543 7.121c0.097 0 0.277 0 0.277 0.861s-0.18 0.86-0.277 0.86-0.277 0-0.277-0.86c0-0.861 0.18-0.861 0.277-0.861z"></path>
<path d="M14.667 1.333h-13.333c-0.735 0-1.333 0.625-1.333 1.393v9.881c0 0.768 0.598 1.393 1.333 1.393h6.333v0.667h-4.333c-0.184 0-0.333 0.149-0.333 0.333s0.149 0.333 0.333 0.333h9.333c0.184 0 0.333-0.149 0.333-0.333s-0.149-0.333-0.333-0.333h-4.333v-0.667h6.333c0.735 0 1.333-0.625 1.333-1.393v-9.881c0-0.767-0.598-1.393-1.333-1.393zM1.333 2h13.333c0.368 0 0.667 0.325 0.667 0.726v7.941h-14.667v-7.941c0-0.401 0.299-0.726 0.667-0.726zM14.667 13.333h-13.333c-0.368 0-0.667-0.325-0.667-0.726v-1.274h14.667v1.274c0 0.401-0.299 0.726-0.667 0.726z"></path>
<path d="M8.667 12.333c0 0.368-0.298 0.667-0.667 0.667s-0.667-0.298-0.667-0.667c0-0.368 0.298-0.667 0.667-0.667s0.667 0.298 0.667 0.667z"></path>
</svg>
