<!-- Generated by IcoMoon.io -->
<svg version="1.1" xmlns="http://www.w3.org/2000/svg" width="16" height="16" viewBox="0 0 16 16">
<title>down</title>
<path d="M8 0.003c-4.411 0-8 3.589-8 8s3.589 8 8 8 8-3.589 8-8-3.589-8-8-8zM12.597 8.717l-3.885 3.741c-0.191 0.183-0.445 0.285-0.715 0.285-0.267 0-0.519-0.099-0.709-0.279l-3.879-3.677c-0.195-0.184-0.303-0.433-0.307-0.7s0.099-0.518 0.288-0.708l0.197-0.197c0.368-0.371 1.037-0.39 1.426-0.040l1.654 1.481v-4.955c0-0.551 0.449-1 1-1h0.667c0.551 0 1 0.449 1 1v4.932l1.657-1.52c0.389-0.356 1.050-0.343 1.423 0.031l0.197 0.199c0.189 0.189 0.292 0.44 0.289 0.708-0.003 0.267-0.11 0.516-0.303 0.701z"></path>
</svg>
