<!-- Generated by IcoMoon.io -->
<svg version="1.1" xmlns="http://www.w3.org/2000/svg" width="16" height="16" viewBox="0 0 16 16">
<title>library</title>
<path d="M15.667 15.333h-15.333c-0.184 0-0.333 0.149-0.333 0.333s0.149 0.333 0.333 0.333h15.333c0.184 0 0.333-0.149 0.333-0.333s-0.149-0.333-0.333-0.333z"></path>
<path d="M0.333 14.667h15.333c0.184 0 0.333-0.149 0.333-0.333s-0.149-0.333-0.333-0.333h-1v-1c0-0.184-0.149-0.333-0.333-0.333h-0.333v-6.667h1c0.184 0 0.333-0.149 0.333-0.333v-1.267c0.005-0.022 0.013-0.043 0.013-0.066 0-0.040-0.022-0.071-0.035-0.106-0.003-0.011-0.006-0.023-0.011-0.033-0.016-0.033-0.033-0.061-0.059-0.087-0.028-0.031-0.062-0.055-0.1-0.073-0.009-0.004-0.014-0.015-0.025-0.018l-6.952-3.973c-0.102-0.059-0.229-0.059-0.331 0l-7 4c-0.017 0.009-0.029 0.023-0.043 0.035-0.011 0.009-0.023 0.017-0.033 0.027-0.025 0.027-0.046 0.057-0.061 0.090-0.001 0.003-0.004 0.005-0.005 0.009-0.015 0.037-0.023 0.077-0.024 0.118 0 0.004-0.002 0.007-0.002 0.011v1.333c0 0.184 0.149 0.333 0.333 0.333h1v6.667h-0.333c-0.184 0-0.333 0.149-0.333 0.333v1h-1c-0.184 0-0.333 0.149-0.333 0.333s0.149 0.333 0.333 0.333zM13.333 12.667h-0.667v-6.667h0.667v6.667zM10.667 12.667v-6.667h1.333v6.667h-1.333zM9.333 12.667v-6.667h0.667v6.667h-0.667zM7.333 12.667v-6.667h1.333v6.667h-1.333zM6 12.667v-6.667h0.667v6.667h-0.667zM4 12.667v-6.667h1.333v6.667h-1.333zM8 0.717l5.745 3.283h-11.489l5.745-3.283zM1.333 4.667h13.333v0.667h-13.333v-0.667zM2.667 6h0.667v6.667h-0.667v-6.667zM2 13.333h12v0.667h-12v-0.667z"></path>
</svg>
