<!-- Generated by IcoMoon.io -->
<svg version="1.1" xmlns="http://www.w3.org/2000/svg" width="16" height="16" viewBox="0 0 16 16">
<title>newspaper</title>
<path d="M9.667 2h-7.333c-0.184 0-0.333 0.149-0.333 0.333s0.149 0.333 0.333 0.333h7.333c0.184 0 0.333-0.149 0.333-0.333s-0.149-0.333-0.333-0.333z"></path>
<path d="M2.333 8.667h3.333c0.184 0 0.333-0.149 0.333-0.333v-4c0-0.184-0.149-0.333-0.333-0.333h-3.333c-0.184 0-0.333 0.149-0.333 0.333v4c0 0.184 0.149 0.333 0.333 0.333zM2.667 4.667h2.667v3.333h-2.667v-3.333z"></path>
<path d="M9.667 5.333h-2c-0.184 0-0.333 0.149-0.333 0.333s0.149 0.333 0.333 0.333h2c0.184 0 0.333-0.149 0.333-0.333s-0.149-0.333-0.333-0.333z"></path>
<path d="M9.667 6.667h-2.667c-0.184 0-0.333 0.149-0.333 0.333s0.149 0.333 0.333 0.333h2.667c0.184 0 0.333-0.149 0.333-0.333s-0.149-0.333-0.333-0.333z"></path>
<path d="M9.667 8h-2.667c-0.184 0-0.333 0.149-0.333 0.333s0.149 0.333 0.333 0.333h2.667c0.184 0 0.333-0.149 0.333-0.333s-0.149-0.333-0.333-0.333z"></path>
<path d="M9.667 9.333h-7.333c-0.184 0-0.333 0.149-0.333 0.333s0.149 0.333 0.333 0.333h7.333c0.184 0 0.333-0.149 0.333-0.333s-0.149-0.333-0.333-0.333z"></path>
<path d="M9.667 10.667h-7.333c-0.184 0-0.333 0.149-0.333 0.333s0.149 0.333 0.333 0.333h7.333c0.184 0 0.333-0.149 0.333-0.333s-0.149-0.333-0.333-0.333z"></path>
<path d="M9.667 12h-7.333c-0.184 0-0.333 0.149-0.333 0.333s0.149 0.333 0.333 0.333h7.333c0.184 0 0.333-0.149 0.333-0.333s-0.149-0.333-0.333-0.333z"></path>
<path d="M15.667 2h-2.333v-0.667c0-0.184-0.149-0.333-0.333-0.333h-1v-0.667c0-0.184-0.149-0.333-0.333-0.333h-11.333c-0.184 0-0.333 0.149-0.333 0.333v13.333c0 1.287 1.047 2.333 2.333 2.333h11.333c1.287 0 2.333-1.047 2.333-2.333v-11.333c0-0.184-0.149-0.333-0.333-0.333zM13.333 4h0.667v9.667c0 0.184-0.15 0.333-0.333 0.333s-0.333-0.149-0.333-0.333v-9.667zM2.333 15.333c-0.919 0-1.667-0.748-1.667-1.667v-13h10.667v13c0 0.653 0.269 1.243 0.702 1.667h-9.702zM15.333 13.667c0 0.919-0.747 1.667-1.667 1.667s-1.667-0.748-1.667-1.667v-12h0.667v12c0 0.551 0.449 1 1 1s1-0.449 1-1v-10c0-0.184-0.149-0.333-0.333-0.333h-1v-0.667h2v11z"></path>
</svg>
