<!-- Generated by IcoMoon.io -->
<svg version="1.1" xmlns="http://www.w3.org/2000/svg" width="16" height="16" viewBox="0 0 16 16">
<title>question</title>
<path d="M7.667 0.667c-4.227 0-7.667 3.439-7.667 7.667s3.439 7.667 7.667 7.667 7.667-3.439 7.667-7.667c0-4.227-3.439-7.667-7.667-7.667zM7.667 15.333c-3.86 0-7-3.14-7-7s3.14-7 7-7 7 3.14 7 7c0 3.86-3.14 7-7 7z"></path>
<path d="M7.667 4.333c-1.287 0-2.333 1.047-2.333 2.333 0 0.184 0.149 0.333 0.333 0.333s0.333-0.149 0.333-0.333c0-0.919 0.747-1.667 1.667-1.667s1.667 0.748 1.667 1.667-0.747 1.667-1.667 1.667c-0.184 0-0.333 0.149-0.333 0.333v2c0 0.184 0.149 0.333 0.333 0.333s0.333-0.149 0.333-0.333v-1.69c1.129-0.163 2-1.136 2-2.31 0-1.287-1.047-2.333-2.333-2.333z"></path>
<path d="M8.333 12.333c0 0.368-0.298 0.667-0.667 0.667s-0.667-0.298-0.667-0.667c0-0.368 0.298-0.667 0.667-0.667s0.667 0.298 0.667 0.667z"></path>
</svg>
