<!-- Generated by IcoMoon.io -->
<svg version="1.1" xmlns="http://www.w3.org/2000/svg" width="16" height="16" viewBox="0 0 16 16">
<title>archives</title>
<path d="M15.667 2h-15.333c-0.184 0-0.333 0.149-0.333 0.333v3.333c0 0.184 0.149 0.333 0.333 0.333h0.333v8.333c0 0.184 0.149 0.333 0.333 0.333h14c0.184 0 0.333-0.149 0.333-0.333v-8.333h0.333c0.184 0 0.333-0.149 0.333-0.333v-3.333c0-0.184-0.149-0.333-0.333-0.333zM14.667 14h-13.333v-8h13.333v8zM15.333 5.333h-14.667v-2.667h14.667v2.667z"></path>
<path d="M5.667 9.333h4.667c0.184 0 0.333-0.149 0.333-0.333v-1.333c0-0.184-0.149-0.333-0.333-0.333h-4.667c-0.184 0-0.333 0.149-0.333 0.333v1.333c0 0.184 0.149 0.333 0.333 0.333zM6 8h4v0.667h-4v-0.667z"></path>
</svg>
