<!-- Generated by IcoMoon.io -->
<svg version="1.1" xmlns="http://www.w3.org/2000/svg" width="16" height="16" viewBox="0 0 16 16">
<title>best-bet</title>
<path d="M10 14.861l-2.097-2.097c-0.13-0.13-0.341-0.13-0.471 0l-2.098 2.097v-3.529h-0.667v4.333c0 0.135 0.081 0.257 0.206 0.308 0.123 0.053 0.267 0.023 0.363-0.072l2.431-2.431 2.431 2.431c0.064 0.064 0.149 0.097 0.236 0.097 0.043 0 0.087-0.008 0.127-0.025 0.125-0.051 0.206-0.173 0.206-0.308v-4.333h-0.667v3.529z"></path>
<path d="M7.667 0c-3.125 0-5.667 2.542-5.667 5.667s2.542 5.667 5.667 5.667 5.667-2.542 5.667-5.667-2.542-5.667-5.667-5.667zM7.667 10.667c-2.757 0-5-2.243-5-5s2.243-5 5-5 5 2.243 5 5c0 2.757-2.243 5-5 5z"></path>
<path d="M7.667 1.667c-2.206 0-4 1.794-4 4s1.794 4 4 4 4-1.794 4-4c0-2.206-1.794-4-4-4zM7.667 9c-1.838 0-3.333-1.495-3.333-3.333s1.495-3.333 3.333-3.333 3.333 1.495 3.333 3.333-1.495 3.333-3.333 3.333z"></path>
<path d="M7.797 3.693c-0.123-0.053-0.265-0.027-0.362 0.066l-0.397 0.381c-0.133 0.127-0.137 0.339-0.009 0.471 0.081 0.085 0.199 0.117 0.305 0.096v2.625c0 0.184 0.149 0.333 0.333 0.333s0.333-0.149 0.333-0.333v-3.333c0-0.133-0.080-0.254-0.203-0.306z"></path>
</svg>
