<!-- Generated by IcoMoon.io -->
<svg version="1.1" xmlns="http://www.w3.org/2000/svg" width="16" height="16" viewBox="0 0 16 16">
<title>bookmark</title>
<path d="M2.667 15.671c0 0.135 0.081 0.256 0.206 0.308s0.267 0.023 0.363-0.072l3.097-3.098 3.097 3.097c0.064 0.064 0.149 0.097 0.236 0.097 0.043 0 0.086-0.009 0.127-0.025 0.125-0.051 0.206-0.173 0.206-0.307v-12.667c0-0.579 0.421-1 1-1 0.183 0 0.333 0.149 0.333 0.333s-0.15 0.333-0.333 0.333c-0.212 0-0.333 0.121-0.333 0.333v1.667h2.333c0.183 0 0.333-0.15 0.333-0.333v-1.667c0-1.471-1.197-2.667-2.667-2.667h-5.333c-1.471 0-2.667 1.196-2.667 2.667v13z"></path>
</svg>
