<!-- Generated by IcoMoon.io -->
<svg version="1.1" xmlns="http://www.w3.org/2000/svg" width="16" height="16" viewBox="0 0 16 16">
<title>cite</title>
<path d="M8.667 14c4.043 0 7.333-3.29 7.333-7.333v-1c0-2.022-1.645-3.667-3.667-3.667s-3.667 1.645-3.667 3.667c0 2.021 1.645 3.667 3.667 3.667 1.166 0 2.204-0.549 2.875-1.399-0.593 3.072-3.299 5.399-6.542 5.399-0.184 0-0.333 0.149-0.333 0.333s0.149 0.333 0.333 0.333z"></path>
<path d="M0.333 14c4.043 0 7.333-3.29 7.333-7.333v-1c0-2.022-1.645-3.667-3.667-3.667s-3.667 1.645-3.667 3.667c0 2.021 1.645 3.667 3.667 3.667 1.166 0 2.204-0.549 2.875-1.399-0.593 3.072-3.299 5.399-6.542 5.399-0.184 0-0.333 0.149-0.333 0.333s0.149 0.333 0.333 0.333z"></path>
</svg>
