<!-- Generated by IcoMoon.io -->
<svg version="1.1" xmlns="http://www.w3.org/2000/svg" width="16" height="16" viewBox="0 0 16 16">
<title>guide</title>
<path d="M15.194 4.062l-4.667-3.333c-0.116-0.083-0.271-0.083-0.387 0l-4.473 3.195-4.473-3.195c-0.102-0.073-0.235-0.082-0.347-0.025s-0.181 0.171-0.181 0.296v10.667c0 0.108 0.052 0.209 0.139 0.271l4.667 3.333c0.006 0.005 0.014 0.003 0.020 0.007 0.051 0.032 0.109 0.055 0.174 0.055s0.123-0.023 0.174-0.055c0.006-0.004 0.014-0.002 0.020-0.007l4.473-3.195 4.473 3.195c0.058 0.041 0.125 0.062 0.194 0.062 0.052 0 0.105-0.012 0.153-0.037 0.111-0.057 0.181-0.171 0.181-0.296v-10.667c0-0.108-0.052-0.209-0.139-0.271zM6 4.505l4-2.857v9.848l-4 2.857v-9.848zM1.333 1.648l4 2.857v9.847l-4-2.857v-9.848zM14.667 14.352l-4-2.857v-9.847l4 2.857v9.847z"></path>
</svg>
