<!-- Generated by IcoMoon.io -->
<svg version="1.1" xmlns="http://www.w3.org/2000/svg" width="16" height="16" viewBox="0 0 16 16">
<title>manuscript</title>
<path d="M9.667 3.333h-3.667c-0.184 0-0.333 0.149-0.333 0.333s0.149 0.333 0.333 0.333h3.667c0.184 0 0.333-0.149 0.333-0.333s-0.149-0.333-0.333-0.333zM9.667 5.333h-3.667c-0.184 0-0.333 0.149-0.333 0.333s0.149 0.333 0.333 0.333h3.667c0.184 0 0.333-0.149 0.333-0.333s-0.149-0.333-0.333-0.333zM9.667 7.333h-3.667c-0.184 0-0.333 0.149-0.333 0.333s0.149 0.333 0.333 0.333h3.667c0.184 0 0.333-0.149 0.333-0.333s-0.149-0.333-0.333-0.333zM9.667 9.333h-3.667c-0.184 0-0.333 0.149-0.333 0.333s0.149 0.333 0.333 0.333h3.667c0.184 0 0.333-0.149 0.333-0.333s-0.149-0.333-0.333-0.333zM14 0c-0.076 0-0.149 0.014-0.222 0.023-0.035-0.013-0.071-0.023-0.111-0.023h-8c-1.287 0-2.333 1.047-2.333 2.333v9h-1c-1.287 0-2.333 1.047-2.333 2.333s1.047 2.333 2.333 2.333h8c1.287 0 2.333-1.047 2.333-2.333v-11h3c0.184 0 0.333-0.149 0.333-0.333 0-1.374-0.822-2.333-2-2.333zM2.333 15.333c-0.919 0-1.667-0.748-1.667-1.667s0.747-1.667 1.667-1.667h6.369c-0.433 0.424-0.702 1.014-0.702 1.667s0.269 1.243 0.702 1.667h-6.369zM12 13.667c0 0.919-0.747 1.667-1.667 1.667s-1.667-0.748-1.667-1.667 0.747-1.667 1.667-1.667c0.184 0 0.333-0.149 0.333-0.333s-0.149-0.333-0.333-0.333h-6.333v-9c0-0.919 0.747-1.667 1.667-1.667h6.853c-0.319 0.355-0.52 0.819-0.52 1.333v11.667zM12.667 2c0-0.736 0.598-1.333 1.333-1.333 0.705 0 1.206 0.523 1.312 1.333h-2.645z"></path>
</svg>
