<!-- Generated by IcoMoon.io -->
<svg version="1.1" xmlns="http://www.w3.org/2000/svg" width="16" height="16" viewBox="0 0 16 16">
<title>musical-score</title>
<path d="M13.853 0.057c-0.093-0.063-0.209-0.073-0.312-0.032l-7.333 3c-0.125 0.051-0.207 0.173-0.207 0.309v7.667h-1.667c-1.287 0-2.333 1.047-2.333 2.333s1.047 2.333 2.333 2.333c1.243 0 2.333-1.091 2.333-2.333v-7.443l6.667-2.727v5.17h-1.667c-1.287 0-2.333 1.047-2.333 2.333s1.047 2.333 2.333 2.333c1.243 0 2.333-1.091 2.333-2.333v-10.333c0-0.111-0.055-0.215-0.147-0.277zM6 13.333c0 0.787-0.713 1.667-1.667 1.667-0.919 0-1.667-0.747-1.667-1.667s0.748-1.667 1.667-1.667h1.667v1.667zM6.667 5.171v-1.613l6.667-2.727v1.613l-6.667 2.728zM13.333 10.667c0 0.787-0.713 1.667-1.667 1.667-0.919 0-1.667-0.747-1.667-1.667s0.748-1.667 1.667-1.667h1.667v1.667z"></path>
</svg>
