<!-- Generated by IcoMoon.io -->
<svg version="1.1" xmlns="http://www.w3.org/2000/svg" width="16" height="16" viewBox="0 0 16 16">
<title>phone</title>
<path d="M14.067 2.007c-3.996-0.814-8.141-0.813-12.133 0-1.084 0.222-1.933 1.243-1.933 2.327v1c0 0.919 0.748 1.667 1.667 1.667h2c0.919 0 1.667-0.747 1.667-1.667v-0.363c1.755-0.155 3.578-0.155 5.333 0v0.363c0 0.919 0.748 1.667 1.667 1.667h2c0.919 0 1.667-0.747 1.667-1.667v-1c0-1.083-0.849-2.105-1.933-2.327zM15.333 5.333c0 0.542-0.458 1-1 1h-2c-0.542 0-1-0.458-1-1v-0.667c0-0.171-0.13-0.315-0.301-0.332-0.995-0.098-2.015-0.149-3.032-0.149s-2.039 0.050-3.033 0.149c-0.171 0.017-0.301 0.161-0.301 0.332v0.667c0 0.542-0.458 1-1 1h-2c-0.542 0-1-0.458-1-1v-1c0-0.765 0.628-1.515 1.4-1.673 3.904-0.795 7.958-0.795 11.867 0 0.772 0.158 1.4 0.909 1.4 1.673v1z"></path>
<path d="M9.333 7.35v-1.017c0-0.184-0.149-0.333-0.333-0.333s-0.333 0.149-0.333 0.333v1h-1.333v-1c0-0.184-0.149-0.333-0.333-0.333s-0.333 0.149-0.333 0.333v1.017c-2.969 0.174-5.333 2.638-5.333 5.65v2c0 0.184 0.149 0.333 0.333 0.333h12.667c0.184 0 0.333-0.149 0.333-0.333v-2c0-3.012-2.364-5.476-5.333-5.65zM14 14.667h-12v-1.667c0-2.757 2.243-5 5-5h2c2.757 0 5 2.243 5 5v1.667z"></path>
<path d="M8 8.667c-1.471 0-2.667 1.196-2.667 2.667s1.196 2.667 2.667 2.667 2.667-1.196 2.667-2.667-1.196-2.667-2.667-2.667zM8 13.333c-1.103 0-2-0.897-2-2s0.897-2 2-2 2 0.897 2 2-0.897 2-2 2z"></path>
</svg>
