<svg xmlns="http://www.w3.org/2000/svg" viewBox="0 0 16 16">
    <path d="M13.754 2.795A6.936 6.936 0 0 0 8.736.918a6.868 6.868 0 0 0-4.924 2.289C2.909 4.213 2.323 5.466 2.083 6.85l-.876-1.32a.667.667 0 1 0-1.111.737c.115.173 1.901 2.867 2.019 3.035.311.371.797.338 1.053.014L5.484 6.68a.667.667 0 0 0-1.002-.88L3.411 7.02c.204-1.115.674-2.121 1.394-2.923a5.55 5.55 0 0 1 3.977-1.846c1.514-.05 2.956.487 4.063 1.519s1.746 2.433 1.798 3.947c.054 1.513-.486 2.955-1.518 4.062s-2.433 1.745-3.947 1.798A.665.665 0 0 0 9.2 14.91l.024-.001c1.869-.065 3.6-.854 4.875-2.221s1.942-3.15 1.876-5.018a6.953 6.953 0 0 0-2.222-4.875z"/>
</svg>
