<svg xmlns="http://www.w3.org/2000/svg" viewBox="0 0 16 16">
    <path d="M15.667 0H.334a.333.333 0 0 0-.333.333v15.333c0 .184.149.333.333.333h15.333a.333.333 0 0 0 .333-.333V.333A.333.333 0 0 0 15.667 0zm-.334.667v10.667h-.461l-2.265-4.53a1.444 1.444 0 0 0-1.299-.803c-.514 0-.995.276-1.253.72L8.296 9.736c-.518-.625-1.625-1.735-2.963-1.735-1.643 0-2.874 2.534-3.221 3.333H.667V.667h14.667zm-1.206 10.666H2.845c.484-1.021 1.477-2.667 2.488-2.667 1.466 0 2.71 1.833 2.723 1.852.063.095.164.14.287.148a.333.333 0 0 0 .278-.165l2.01-3.445a.786.786 0 0 1 1.379.045l2.117 4.233zm-13.46 4V12h14.667v3.333H.667zM4.333 6h2c1.103 0 2-.897 2-2s-.897-2-2-2c-.865 0-1.609.545-1.883 1.339a1.34 1.34 0 0 0-1.451 1.328C2.999 5.402 3.597 6 4.332 6zm0-2c.079 0 .157.015.241.047a.334.334 0 0 0 .449-.258 1.324 1.324 0 0 1 1.311-1.123c.735 0 1.333.598 1.333 1.333s-.598 1.333-1.333 1.333h-2a.668.668 0 0 1 0-1.334z"/>
</svg>
