<svg xmlns="http://www.w3.org/2000/svg" viewBox="0 0 16 16">
    <path d="M14.333 4.667H1.666A1.67 1.67 0 0 0-.001 6.334v4a1.67 1.67 0 0 0 1.667 1.667h1.667v3c0 .184.149.333.333.333h8.667a.333.333 0 0 0 .333-.333v-3h1.667A1.67 1.67 0 0 0 16 10.334v-4a1.67 1.67 0 0 0-1.667-1.667zm-2.333 10H4V10h8v4.667zm3.333-4.334c0 .551-.449 1-1 1h-1.667V9.666a.333.333 0 0 0-.333-.333H3.666a.333.333 0 0 0-.333.333v1.667H1.666c-.551 0-1-.449-1-1v-4c0-.551.449-1 1-1h12.667c.551 0 1 .449 1 1v4zM3.667 4A.333.333 0 0 0 4 3.667V1.334h6v1.667c0 .184.149.333.333.333H12v.333a.333.333 0 1 0 .666 0V3a.34.34 0 0 0-.098-.236L10.569.765a.327.327 0 0 0-.108-.071.326.326 0 0 0-.128-.027H3.666A.333.333 0 0 0 3.333 1v2.667c0 .184.149.333.333.333zm7-2.195l.862.862h-.862v-.862z"/>
    <path d="M2.333 6c-.551 0-1 .449-1 1s.449 1 1 1 1-.449 1-1-.449-1-1-1zm0 1.333a.333.333 0 1 1 0-.666.333.333 0 0 1 0 .666zM11 10.667H5a.333.333 0 1 0 0 .666h6a.333.333 0 1 0 0-.666zM11 12H5a.333.333 0 1 0 0 .666h6A.333.333 0 1 0 11 12zM11 13.333H5a.333.333 0 1 0 0 .666h6a.333.333 0 1 0 0-.666z"/>
</svg>
