<svg xmlns="http://www.w3.org/2000/svg" viewBox="0 0 16 16">
    <path d="M14.333 1.329H1.666c-.919 0-1.667.747-1.667 1.667v9.333c0 .919.747 1.667 1.667 1.667h12.667c.919 0 1.667-.747 1.667-1.667V2.996c0-.919-.747-1.667-1.667-1.667zm-12.666.666h12.667c.551 0 1 .449 1 1v1.667H.667V2.995c0-.551.449-1 1-1zm12.666 11.334H1.666c-.551 0-1-.449-1-1v-7h14.667v7c0 .551-.449 1-1 1z"/>
    <path d="M3.333 3.329a.667.667 0 1 1-1.334 0 .667.667 0 0 1 1.334 0zM5.333 3.329a.667.667 0 1 1-1.334 0 .667.667 0 0 1 1.334 0zM7.333 3.329a.667.667 0 1 1-1.334 0 .667.667 0 0 1 1.334 0z"/>
</svg>
