<!-- Generated by IcoMoon.io -->
<svg version="1.1" xmlns="http://www.w3.org/2000/svg" width="16" height="16" viewBox="0 0 16 16">
<title>dissertation</title>
<path d="M13.667 0h-11.333c-0.551 0-1 0.449-1 1v14c0 0.551 0.449 1 1 1h11.333c0.184 0 0.333-0.149 0.333-0.333v-15.333c0-0.184-0.149-0.333-0.333-0.333zM2 15v-14c0-0.184 0.15-0.333 0.333-0.333h1v14.667h-1c-0.183 0-0.333-0.149-0.333-0.333zM13.333 15.333h-9.333v-14.667h9.333v14.667zM7 6h4c0.184 0 0.333-0.149 0.333-0.333v-2c0-0.184-0.149-0.333-0.333-0.333h-4c-0.184 0-0.333 0.149-0.333 0.333v2c0 0.184 0.149 0.333 0.333 0.333zM7.333 4h3.333v1.333h-3.333v-1.333z"></path>
</svg>
