<!-- Generated by IcoMoon.io -->
<svg version="1.1" xmlns="http://www.w3.org/2000/svg" width="16" height="16" viewBox="0 0 16 16">
<title>email</title>
<path d="M14 2.667h-12c-0.735 0-1.333 0.597-1.333 1.333v7.333c0 0.735 0.598 1.333 1.333 1.333h12c0.735 0 1.333-0.598 1.333-1.333v-7.333c0-0.736-0.598-1.333-1.333-1.333zM14 3.333c0.038 0 0.070 0.015 0.106 0.021l-6.106 4.885-6.106-4.885c0.036-0.006 0.068-0.021 0.106-0.021h12zM14.667 11.333c0 0.367-0.299 0.667-0.667 0.667h-12c-0.367 0-0.667-0.299-0.667-0.667v-7.333c0-0.073 0.020-0.14 0.042-0.206l6.417 5.133c0.061 0.048 0.135 0.073 0.208 0.073s0.147-0.025 0.209-0.073l6.417-5.133c0.021 0.066 0.041 0.133 0.041 0.206v7.333z"></path>
</svg>
