<svg xmlns="http://www.w3.org/2000/svg" viewBox="0 0 48 48">
    <path d="M43.922 12.616a.941.941 0 0 0-.216-.322l-11.998-12a1.016 1.016 0 0 0-.324-.214A.964.964 0 0 0 31 0H5a1 1 0 0 0-1 1v46a1 1 0 0 0 1 1h38a1 1 0 0 0 1-1V13c0-.132-.028-.264-.078-.384zM32 3.414L40.586 12H32V3.414zM6 46V2h24v11a1 1 0 0 0 1 1h11v32H6z"/>
    <path d="M37 26h-4.51a1 1 0 0 0-1 1v10.376a1 1 0 0 0 2 0v-4.188h2.282a1 1 0 0 0 0-2H33.49V28H37a1 1 0 0 0 0-2zM24.06 26h-1.876a1 1 0 0 0-1 1v10.376a1 1 0 0 0 1 1h1.876c2.714 0 4.54-2.486 4.54-6.188S26.776 26 24.06 26zm0 10.376h-.876V28h.876c1.874 0 2.54 2.256 2.54 4.188s-.666 4.188-2.54 4.188zM15.042 26H12.56a1 1 0 0 0-1 1v10.376a1 1 0 0 0 2 0v-4.188h1.48c2.31 0 3.48-1.208 3.48-3.594S17.35 26 15.042 26zm0 5.188H13.56V28h1.48c1.276 0 1.48.378 1.48 1.594s-.202 1.594-1.478 1.594z"/>
</svg>
