<?xml version="1.0" encoding="UTF-8"?><svg version="1.1" viewBox="0 0 24 24" xmlns="http://www.w3.org/2000/svg" xmlns:xlink="http://www.w3.org/1999/xlink"><!--Generated by IJSVG (https://github.com/curthard89/IJSVG)--><path fill="#000000" d="M12,0c-6.617,0 -12,5.383 -12,12c0,6.617 5.383,12 12,12c6.617,0 12,-5.383 12,-12c0,-6.617 -5.383,-12 -12,-12Zm5.262,9.385c0.006,0.113 0.008,0.226 0.008,0.34c0,3.477 -2.647,7.489 -7.488,7.489c-1.486,0 -2.87,-0.437 -4.035,-1.184c1.374,0.161 2.772,-0.207 3.897,-1.089c-1.151,-0.023 -2.123,-0.783 -2.458,-1.829c0.397,0.075 0.803,0.061 1.188,-0.046c-1.204,-0.24 -2.111,-1.305 -2.111,-2.579c0,-0.011 0,-0.023 0,-0.035c0.355,0.197 0.762,0.315 1.192,0.33c-0.706,-0.473 -1.171,-1.277 -1.171,-2.19c0,-0.482 0.13,-0.934 0.356,-1.324c1.298,1.593 3.237,2.642 5.425,2.75c-0.045,-0.192 -0.068,-0.394 -0.068,-0.599c0,-1.454 1.179,-2.632 2.633,-2.632c0.757,0 1.44,0.319 1.921,0.832c0.6,-0.119 1.95,-0.266 1.95,-0.266c-0.354,0.529 -0.725,1.66 -1.239,2.032Z"></path><path fill="none" d="M0,0h24v24h-24Z"></path></svg>