<!-- Generated by IcoMoon.io -->
<svg version="1.1" xmlns="http://www.w3.org/2000/svg" width="16" height="16" viewBox="0 0 16 16">
<title>refresh</title>
<path d="M13.754 2.795c-1.367-1.275-3.148-1.946-5.018-1.877-1.913 0.067-3.661 0.879-4.924 2.289-0.903 1.006-1.489 2.259-1.729 3.643l-0.876-1.32c-0.203-0.307-0.617-0.391-0.925-0.187s-0.39 0.617-0.186 0.924c0.115 0.173 1.901 2.867 2.019 3.035 0.311 0.371 0.797 0.338 1.053 0.014l2.316-2.636c0.243-0.277 0.215-0.697-0.061-0.941-0.277-0.243-0.698-0.215-0.941 0.061l-1.071 1.22c0.204-1.115 0.674-2.121 1.394-2.923 1.019-1.136 2.431-1.792 3.977-1.846 1.514-0.050 2.956 0.487 4.063 1.519s1.746 2.433 1.798 3.947c0.054 1.513-0.486 2.955-1.518 4.062s-2.433 1.745-3.947 1.798c-0.369 0.013-0.656 0.321-0.643 0.689 0.013 0.36 0.309 0.644 0.665 0.644 0.009 0 0.016 0 0.024-0.001 1.869-0.065 3.6-0.854 4.875-2.221s1.942-3.15 1.876-5.018c-0.065-1.868-0.854-3.599-2.222-4.875z"></path>
</svg>
