<!-- Generated by IcoMoon.io -->
<svg version="1.1" xmlns="http://www.w3.org/2000/svg" width="16" height="16" viewBox="0 0 16 16">
<title>location</title>
<path d="M8 0c-2.941 0-5.333 2.393-5.333 5.333 0 2.83 4.849 10.205 5.055 10.517 0.061 0.094 0.166 0.15 0.278 0.15s0.217-0.056 0.278-0.15c0.207-0.312 5.055-7.687 5.055-10.517 0-2.941-2.393-5.333-5.333-5.333zM8 15.053c-1.044-1.632-4.667-7.456-4.667-9.72 0-2.573 2.093-4.667 4.667-4.667s4.667 2.093 4.667 4.667c0 2.263-3.623 8.088-4.667 9.72z"></path>
<path d="M8 3c-1.287 0-2.333 1.047-2.333 2.333s1.047 2.333 2.333 2.333 2.333-1.047 2.333-2.333-1.047-2.333-2.333-2.333zM8 7c-0.919 0-1.667-0.748-1.667-1.667s0.748-1.667 1.667-1.667 1.667 0.748 1.667 1.667-0.748 1.667-1.667 1.667z"></path>
</svg>
