<!-- Generated by IcoMoon.io -->
<svg version="1.1" xmlns="http://www.w3.org/2000/svg" width="16" height="16" viewBox="0 0 16 16">
<title>film</title>
<path d="M11 0h-6c-0.184 0-0.333 0.149-0.333 0.333v4c0 0.184 0.149 0.333 0.333 0.333h6c0.184 0 0.333-0.149 0.333-0.333v-4c0-0.184-0.149-0.333-0.333-0.333zM10.667 4h-5.333v-3.333h5.333v3.333z"></path>
<path d="M11 5.333h-6c-0.184 0-0.333 0.149-0.333 0.333v4c0 0.184 0.149 0.333 0.333 0.333h6c0.184 0 0.333-0.149 0.333-0.333v-4c0-0.184-0.149-0.333-0.333-0.333zM10.667 9.333h-5.333v-3.333h5.333v3.333z"></path>
<path d="M11 10.667h-6c-0.184 0-0.333 0.149-0.333 0.333v4c0 0.184 0.149 0.333 0.333 0.333h6c0.184 0 0.333-0.149 0.333-0.333v-4c0-0.184-0.149-0.333-0.333-0.333zM10.667 14.667h-5.333v-3.333h5.333v3.333z"></path>
<path d="M1.667 0c-0.184 0-0.333 0.149-0.333 0.333v15.333c0 0.184 0.149 0.333 0.333 0.333s0.333-0.149 0.333-0.333v-15.333c0-0.184-0.149-0.333-0.333-0.333z"></path>
<path d="M14.333 0c-0.184 0-0.333 0.149-0.333 0.333v15.333c0 0.184 0.149 0.333 0.333 0.333s0.333-0.149 0.333-0.333v-15.333c0-0.184-0.149-0.333-0.333-0.333z"></path>
<path d="M3.667 0.667h-0.667c-0.184 0-0.333 0.149-0.333 0.333v0.667c0 0.184 0.149 0.333 0.333 0.333h0.667c0.184 0 0.333-0.149 0.333-0.333v-0.667c0-0.184-0.149-0.333-0.333-0.333z"></path>
<path d="M3.667 3.333h-0.667c-0.184 0-0.333 0.149-0.333 0.333v0.667c0 0.184 0.149 0.333 0.333 0.333h0.667c0.184 0 0.333-0.149 0.333-0.333v-0.667c0-0.184-0.149-0.333-0.333-0.333z"></path>
<path d="M3.667 6h-0.667c-0.184 0-0.333 0.149-0.333 0.333v0.667c0 0.184 0.149 0.333 0.333 0.333h0.667c0.184 0 0.333-0.149 0.333-0.333v-0.667c0-0.184-0.149-0.333-0.333-0.333z"></path>
<path d="M3.667 8.667h-0.667c-0.184 0-0.333 0.149-0.333 0.333v0.667c0 0.184 0.149 0.333 0.333 0.333h0.667c0.184 0 0.333-0.149 0.333-0.333v-0.667c0-0.184-0.149-0.333-0.333-0.333z"></path>
<path d="M3.667 11.333h-0.667c-0.184 0-0.333 0.149-0.333 0.333v0.667c0 0.184 0.149 0.333 0.333 0.333h0.667c0.184 0 0.333-0.149 0.333-0.333v-0.667c0-0.184-0.149-0.333-0.333-0.333z"></path>
<path d="M3.667 14h-0.667c-0.184 0-0.333 0.149-0.333 0.333v0.667c0 0.184 0.149 0.333 0.333 0.333h0.667c0.184 0 0.333-0.149 0.333-0.333v-0.667c0-0.184-0.149-0.333-0.333-0.333z"></path>
<path d="M13 0.667h-0.667c-0.184 0-0.333 0.149-0.333 0.333v0.667c0 0.184 0.149 0.333 0.333 0.333h0.667c0.184 0 0.333-0.149 0.333-0.333v-0.667c0-0.184-0.149-0.333-0.333-0.333z"></path>
<path d="M13 3.333h-0.667c-0.184 0-0.333 0.149-0.333 0.333v0.667c0 0.184 0.149 0.333 0.333 0.333h0.667c0.184 0 0.333-0.149 0.333-0.333v-0.667c0-0.184-0.149-0.333-0.333-0.333z"></path>
<path d="M13 6h-0.667c-0.184 0-0.333 0.149-0.333 0.333v0.667c0 0.184 0.149 0.333 0.333 0.333h0.667c0.184 0 0.333-0.149 0.333-0.333v-0.667c0-0.184-0.149-0.333-0.333-0.333z"></path>
<path d="M13 8.667h-0.667c-0.184 0-0.333 0.149-0.333 0.333v0.667c0 0.184 0.149 0.333 0.333 0.333h0.667c0.184 0 0.333-0.149 0.333-0.333v-0.667c0-0.184-0.149-0.333-0.333-0.333z"></path>
<path d="M13 11.333h-0.667c-0.184 0-0.333 0.149-0.333 0.333v0.667c0 0.184 0.149 0.333 0.333 0.333h0.667c0.184 0 0.333-0.149 0.333-0.333v-0.667c0-0.184-0.149-0.333-0.333-0.333z"></path>
<path d="M13 14h-0.667c-0.184 0-0.333 0.149-0.333 0.333v0.667c0 0.184 0.149 0.333 0.333 0.333h0.667c0.184 0 0.333-0.149 0.333-0.333v-0.667c0-0.184-0.149-0.333-0.333-0.333z"></path>
</svg>
