<svg xmlns="http://www.w3.org/2000/svg" viewBox="0 0 48 48">
    <path d="M23.646 25.67a1.012 1.012 0 0 0-1.124.424l-2.46 3.864-2.46-3.864a1.016 1.016 0 0 0-1.124-.424 1 1 0 0 0-.72.96v10.376a1 1 0 0 0 2 0v-6.944l1.46 2.292c.368.578 1.32.578 1.688 0l1.46-2.292v6.944a1 1 0 0 0 2 0V26.63a.996.996 0 0 0-.72-.96zM32.094 36.006h-3.962V26.63a1 1 0 0 0-2 0v10.376a1 1 0 0 0 1 1h4.962a1 1 0 0 0 0-2zM13.458 25.728a1 1 0 0 0-1.334.472l-1.58 3.3-1.58-3.3a1 1 0 0 0-1.804.864l2.276 4.756-2.276 4.754a1 1 0 0 0 1.804.864l1.578-3.3 1.58 3.3a.998.998 0 0 0 1.334.47 1 1 0 0 0 .47-1.334l-2.276-4.756 2.276-4.756a.998.998 0 0 0-.468-1.334z"/>
    <path d="M39.922 12.616a1.022 1.022 0 0 0-.216-.324L27.71.294a1.016 1.016 0 0 0-.324-.214A.988.988 0 0 0 27 0H1a1 1 0 0 0-1 1v46a1 1 0 0 0 1 1h38a1 1 0 0 0 1-1V13c0-.132-.028-.264-.078-.384zM28 3.414L36.586 12H28V3.414zM2 46V2h24v11a1 1 0 0 0 1 1h11v32H2z"/>
</svg>
