<svg xmlns="http://www.w3.org/2000/svg" viewBox="0 0 16 16">
    <path d="M8.003 0c-.117 0-.233.002-.347.007C3.291.183-.001 3.548-.001 7.833-.001 12.336 3.578 16 7.978 16c4.423 0 8.021-3.601 8.021-8.029C15.999 3.576 12.412 0 8.002 0zM.674 7.986h3.697c.036 1.098.24 2.213.61 3.333H1.51a7.595 7.595 0 0 1-.836-3.333zm3.694-.667H.691a7.068 7.068 0 0 1 1.083-3.333h3.243a10.427 10.427 0 0 0-.649 3.333zm1.335-3.333h4.6a9.624 9.624 0 0 1 .699 3.333H5.004a9.596 9.596 0 0 1 .699-3.333zm-.697 4H11a11.094 11.094 0 0 1-.656 3.333H5.661a11.129 11.129 0 0 1-.655-3.333zm6.629 0h3.697a7.313 7.313 0 0 1-.812 3.333h-3.496c.371-1.12.574-2.236.611-3.333zm.003-.667a10.378 10.378 0 0 0-.649-3.333h3.149A7.224 7.224 0 0 1 15.3 7.319h-3.662zm2.011-4h-2.934A11.635 11.635 0 0 0 9.131.762a7.329 7.329 0 0 1 4.518 2.557zM8.185.677A11.533 11.533 0 0 1 9.996 3.32H6.011A11.606 11.606 0 0 1 7.827.672c.059-.002.117-.005.177-.005.061 0 .121.008.181.01zM6.887.749A11.643 11.643 0 0 0 5.291 3.32H2.252C3.365 1.956 4.991 1.018 6.887.749zM1.895 11.986h3.323a15.96 15.96 0 0 0 1.762 3.269c-2.117-.299-3.949-1.523-5.085-3.269zm5.948 3.341a16.146 16.146 0 0 1-1.919-3.341h4.159a16.147 16.147 0 0 1-1.917 3.339c-.063.001-.123.009-.186.009-.047 0-.091-.006-.136-.007zm1.186-.077a16 16 0 0 0 1.758-3.264h3.349a7.36 7.36 0 0 1-5.107 3.264z"/>
</svg>
