<!-- Generated by IcoMoon.io -->
<svg version="1.1" xmlns="http://www.w3.org/2000/svg" width="16" height="16" viewBox="0 0 16 16">
<title>staff</title>
<path d="M15.298 12.813c-0.49-0.979-2.162-1.595-4.476-2.445-0.267-0.098-0.541-0.199-0.822-0.304v-1.606c0.293-0.248 0.919-0.897 0.993-1.955 0.151-0.129 0.27-0.349 0.339-0.641 0.111-0.47 0.055-1.027-0.277-1.359 0.018-0.045 0.039-0.097 0.062-0.155 0.255-0.644 0.731-1.843 0.543-2.785-0.231-1.153-1.869-1.563-3.202-1.563-1.035 0-2.291 0.261-2.687 0.974-0.398 0.045-0.705 0.209-0.915 0.492-0.579 0.781-0.159 2.168 0.067 2.913 0.012 0.041 0.023 0.079 0.034 0.111-0.343 0.329-0.402 0.895-0.289 1.371 0.069 0.293 0.188 0.513 0.339 0.641 0.074 1.059 0.7 1.707 0.993 1.955v1.606c-0.281 0.105-0.555 0.206-0.823 0.304-2.314 0.851-3.986 1.466-4.475 2.445-0.694 1.389-0.702 2.795-0.702 2.855 0 0.184 0.149 0.333 0.333 0.333h15.333c0.184 0 0.333-0.149 0.333-0.333 0-0.059-0.008-1.466-0.702-2.854zM0.687 15.333c0.043-0.468 0.18-1.359 0.611-2.222 0.371-0.743 2.103-1.38 4.109-2.117 0.337-0.125 0.686-0.253 1.043-0.387 0.131-0.049 0.217-0.174 0.217-0.313v-2c0-0.111-0.055-0.215-0.149-0.277-0.008-0.005-0.851-0.581-0.851-1.723 0-0.154-0.104-0.283-0.246-0.322-0.069-0.097-0.172-0.41-0.129-0.709 0.025-0.173 0.089-0.286 0.191-0.337 0.113-0.057 0.184-0.171 0.184-0.298 0-0.090-0.027-0.184-0.105-0.443-0.165-0.542-0.549-1.811-0.17-2.323 0.117-0.157 0.317-0.234 0.609-0.234 0.153 0 0.286-0.104 0.323-0.253 0.087-0.349 0.909-0.709 2.135-0.709 1.165 0 2.414 0.353 2.549 1.027 0.149 0.748-0.279 1.827-0.509 2.408-0.116 0.292-0.164 0.412-0.164 0.527 0 0.127 0.071 0.241 0.184 0.298 0.101 0.051 0.166 0.164 0.191 0.337 0.043 0.3-0.059 0.613-0.129 0.709-0.142 0.039-0.246 0.169-0.246 0.323 0 1.129-0.818 1.7-0.851 1.723-0.093 0.062-0.149 0.166-0.149 0.277v2c0 0.139 0.086 0.263 0.216 0.312 0.357 0.134 0.706 0.262 1.042 0.386 2.006 0.737 3.738 1.375 4.11 2.118 0.432 0.863 0.569 1.754 0.612 2.222h-14.627z"></path>
</svg>
