<svg xmlns="http://www.w3.org/2000/svg" viewBox="0 0 48 48">
    <path d="M43.5 0h-39A4.513 4.513 0 0 0 0 4.5v39C0 45.975 2.025 48 4.5 48h39c2.475 0 4.5-2.025 4.5-4.5v-39C48 2.025 45.975 0 43.5 0zM13.078 38.963A4.065 4.065 0 0 1 9 34.904a4.085 4.085 0 0 1 4.078-4.069 4.08 4.08 0 0 1 4.078 4.069 4.065 4.065 0 0 1-4.078 4.059zM23.316 39c0-3.834-1.491-7.444-4.191-10.144A14.22 14.22 0 0 0 9 24.656v-5.869c11.138 0 20.213 9.066 20.213 20.212h-5.897zm10.415 0c0-13.641-11.091-24.75-24.722-24.75V8.381c16.875 0 30.609 13.744 30.609 30.619H33.73z"/>
</svg>
