<svg xmlns="http://www.w3.org/2000/svg" viewBox="0 0 16 16">
    <path d="M5.349 4.128v1.741a.333.333 0 1 0 .666 0V3.534a.334.334 0 0 0-.563-.242l-.279.266a.333.333 0 0 0 .175.57zM3.499 6.506a.337.337 0 0 0-.361.065l-.28.267a.333.333 0 0 0 .176.57V9.15a.333.333 0 1 0 .666 0V6.812a.33.33 0 0 0-.201-.305zM12.301 4.128v1.741a.333.333 0 1 0 .666 0V3.534a.332.332 0 0 0-.563-.241l-.28.265a.333.333 0 0 0 .176.57zM12.301 7.408V9.15a.333.333 0 1 0 .666 0V6.812a.334.334 0 0 0-.563-.242l-.28.267a.333.333 0 0 0 .177.57zM9.984 4.128v1.741a.333.333 0 1 0 .666 0V3.534a.334.334 0 0 0-.563-.242l-.279.265a.333.333 0 0 0 .176.57zM8.131 6.506a.33.33 0 0 0-.361.066l-.279.267a.334.334 0 0 0 .175.569V9.15a.333.333 0 1 0 .666 0V6.812a.331.331 0 0 0-.202-.306zM3.227 6.229c.943 0 .943-1.109.943-1.527s0-1.527-.943-1.527-.943 1.109-.943 1.527 0 1.527.943 1.527zm0-2.387c.097 0 .277 0 .277.86s-.18.861-.277.861-.276 0-.276-.861c0-.86.179-.86.276-.86zM7.861 6.229c.943 0 .943-1.109.943-1.527s0-1.527-.943-1.527-.943 1.109-.943 1.527c0 .418 0 1.527.943 1.527zm0-2.387c.097 0 .277 0 .277.86s-.18.861-.277.861-.277 0-.277-.861c0-.86.18-.86.277-.86zM10.178 9.509c.943 0 .943-1.109.943-1.527s0-1.527-.943-1.527-.943 1.109-.943 1.527 0 1.527.943 1.527zm0-2.388c.097 0 .276 0 .276.861s-.18.86-.276.86c-.097 0-.277 0-.277-.86s.179-.861.277-.861zM5.543 9.509c.943 0 .943-1.109.943-1.527s0-1.527-.943-1.527S4.6 7.564 4.6 7.982c0 .417 0 1.527.943 1.527zm0-2.388c.097 0 .277 0 .277.861s-.18.86-.277.86-.277 0-.277-.86c0-.861.18-.861.277-.861z"/>
    <path d="M14.667 1.333H1.334c-.735 0-1.333.625-1.333 1.393v9.881C.001 13.375.599 14 1.334 14h6.333v.667H3.334a.333.333 0 1 0 0 .666h9.333a.333.333 0 1 0 0-.666H8.334V14h6.333c.735 0 1.333-.625 1.333-1.393V2.726c0-.767-.598-1.393-1.333-1.393zM1.333 2h13.333c.368 0 .667.325.667.726v7.941H.666V2.726c0-.401.299-.726.667-.726zm13.334 11.333H1.334c-.368 0-.667-.325-.667-.726v-1.274h14.667v1.274c0 .401-.299.726-.667.726z"/>
    <path d="M8.667 12.333a.667.667 0 1 1-1.334 0 .667.667 0 0 1 1.334 0z"/>
</svg>
