<svg viewBox="0 0 24 24" xmlns="http://www.w3.org/2000/svg">
    <path d="M12 0C5.383 0 0 5.383 0 12s5.383 12 12 12 12-5.383 12-12S18.617 0 12 0zm5.262 9.385c.006.113.008.226.008.34 0 3.477-2.647 7.489-7.488 7.489a7.452 7.452 0 0 1-4.035-1.184 5.294 5.294 0 0 0 3.897-1.089 2.637 2.637 0 0 1-2.458-1.829c.397.075.803.061 1.188-.046a2.631 2.631 0 0 1-2.111-2.579v-.035c.355.197.762.315 1.192.33a2.632 2.632 0 0 1-.815-3.514 7.463 7.463 0 0 0 5.425 2.75 2.632 2.632 0 0 1 4.486-2.399c.6-.119 1.95-.266 1.95-.266-.354.529-.725 1.66-1.239 2.032z"/>
    <path fill="none" d="M0 0h24v24H0z"/>
</svg>
