<!-- Generated by IcoMoon.io -->
<svg version="1.1" xmlns="http://www.w3.org/2000/svg" width="16" height="16" viewBox="0 0 16 16">
<title>newtab</title>
<path d="M15.717 6.461c0.033-0.081 0.033-0.173 0-0.255-0.017-0.041-0.042-0.078-0.073-0.109l-2.666-2.667c-0.13-0.13-0.341-0.13-0.471 0s-0.13 0.341 0 0.471l2.097 2.098h-6.271c-1.654 0-3 1.346-3 3v1.333c0 0.184 0.149 0.333 0.333 0.333s0.333-0.149 0.333-0.333v-1.333c0-1.287 1.047-2.333 2.333-2.333h6.271l-2.097 2.097c-0.13 0.13-0.13 0.341 0 0.471 0.065 0.065 0.15 0.098 0.235 0.098s0.171-0.033 0.236-0.097l2.666-2.667c0.031-0.031 0.056-0.068 0.073-0.109z"></path>
<path d="M9.667 8.333c-0.184 0-0.333 0.149-0.333 0.333v4h-8.667v-8.667h8.667v0.667c0 0.184 0.149 0.333 0.333 0.333s0.333-0.149 0.333-0.333v-1c0-0.184-0.149-0.333-0.333-0.333h-9.333c-0.184 0-0.333 0.149-0.333 0.333v9.333c0 0.184 0.149 0.333 0.333 0.333h9.333c0.184 0 0.333-0.149 0.333-0.333v-4.333c0-0.184-0.149-0.333-0.333-0.333z"></path>
</svg>
