<svg xmlns="http://www.w3.org/2000/svg" viewBox="0 0 16 16">
    <path d="M10.667 6.667h.667v-3a.34.34 0 0 0-.098-.236L7.903.098a.327.327 0 0 0-.108-.071A.326.326 0 0 0 7.667 0H.334a.333.333 0 0 0-.333.333v14c0 .184.149.333.333.333h7v-.667H.667V.666h6.667v3c0 .184.149.333.333.333h3v2.667zM8 1.138l2.195 2.195H8V1.138z"/>
    <path d="M15.903 15.431l-2.124-2.124a2.842 2.842 0 0 0 .628-1.77c0-1.583-1.287-2.871-2.87-2.871s-2.87 1.289-2.87 2.871 1.288 2.871 2.871 2.871c.671 0 1.281-.241 1.77-.629l2.124 2.124a.335.335 0 0 0 .471 0 .334.334 0 0 0 0-.472zm-6.57-3.894c0-1.215.989-2.204 2.204-2.204s2.203.989 2.203 2.204-.988 2.204-2.203 2.204a2.208 2.208 0 0 1-2.204-2.204z"/>
</svg>
