<!-- Generated by IcoMoon.io -->
<svg version="1.1" xmlns="http://www.w3.org/2000/svg" width="16" height="16" viewBox="0 0 16 16">
<title>toggle.collapsed</title>
<path d="M3.667 8h3.667v3.667c0 0.184 0.149 0.333 0.333 0.333s0.333-0.149 0.333-0.333v-3.667h3.667c0.184 0 0.333-0.149 0.333-0.333s-0.149-0.333-0.333-0.333h-3.667v-3.667c0-0.184-0.149-0.333-0.333-0.333s-0.333 0.149-0.333 0.333v3.667h-3.667c-0.184 0-0.333 0.149-0.333 0.333s0.149 0.333 0.333 0.333zM15 0h-14.667c-0.184 0-0.333 0.149-0.333 0.333v14.667c0 0.184 0.149 0.333 0.333 0.333h14.667c0.184 0 0.333-0.149 0.333-0.333v-14.667c0-0.184-0.149-0.333-0.333-0.333zM14.667 14.667h-14v-14h14v14z"></path>
</svg>
