<!-- Generated by IcoMoon.io -->
<svg version="1.1" xmlns="http://www.w3.org/2000/svg" width="16" height="16" viewBox="0 0 16 16">
<title>moveback</title>
<path d="M15.333 6.667h-13.057l1.862-1.862c0.261-0.261 0.261-0.682 0-0.943s-0.683-0.261-0.943 0l-3 3c-0.127 0.127-0.198 0.3-0.195 0.481s0.077 0.351 0.209 0.475l2.989 2.827c0.129 0.122 0.293 0.182 0.458 0.182 0.177 0 0.354-0.069 0.485-0.209 0.253-0.267 0.241-0.689-0.026-0.943l-1.773-1.676h12.325v3.494c0 0.369 0.298 0.667 0.667 0.667s0.667-0.298 0.667-0.667v-4.161c0-0.369-0.299-0.667-0.667-0.667z"></path>
</svg>
