<!-- Generated by IcoMoon.io -->
<svg version="1.1" xmlns="http://www.w3.org/2000/svg" width="16" height="16" viewBox="0 0 16 16">
<title>right</title>
<path d="M8 0.003c-4.411 0-8 3.589-8 8s3.589 8 8 8 8-3.589 8-8-3.589-8-8-8zM12.459 8.713l-3.677 3.881c-0.188 0.198-0.441 0.307-0.713 0.307-0.262 0-0.509-0.102-0.695-0.289l-0.197-0.196c-0.384-0.383-0.402-1.023-0.041-1.427l1.481-1.656h-4.952c-0.551 0-1-0.449-1-1v-0.664c0-0.551 0.449-1 1-1l4.929 0.001-1.521-1.657c-0.367-0.401-0.353-1.040 0.031-1.424l0.197-0.197c0.379-0.378 1.039-0.371 1.41 0.014l3.74 3.883c0.377 0.392 0.38 1.031 0.005 1.425z"></path>
</svg>
