<!-- Generated by IcoMoon.io -->
<svg version="1.1" xmlns="http://www.w3.org/2000/svg" width="16" height="16" viewBox="0 0 16 16">
<title>mobile</title>
<path d="M11 0h-6c-0.919 0-1.667 0.747-1.667 1.667v12.667c0 0.919 0.748 1.667 1.667 1.667h6c0.919 0 1.667-0.747 1.667-1.667v-12.667c0-0.919-0.747-1.667-1.667-1.667zM4 3.333h8v9.333h-8v-9.333zM5 0.667h6c0.552 0 1 0.449 1 1v1h-8v-1c0-0.551 0.449-1 1-1zM11 15.333h-6c-0.551 0-1-0.449-1-1v-1h8v1c0 0.551-0.448 1-1 1z"></path>
<path d="M9.667 14h-3.333c-0.184 0-0.333 0.149-0.333 0.333s0.149 0.333 0.333 0.333h3.333c0.184 0 0.333-0.149 0.333-0.333s-0.149-0.333-0.333-0.333z"></path>
<path d="M8.667 1.667c0 0.368-0.298 0.667-0.667 0.667s-0.667-0.298-0.667-0.667c0-0.368 0.298-0.667 0.667-0.667s0.667 0.298 0.667 0.667z"></path>
</svg>
