<svg xmlns="http://www.w3.org/2000/svg" viewBox="0 0 16 16">
    <path d="M15.667.667c-3.221 0-6.611.645-7.667 1.856C6.945 1.312 3.555.667.333.667A.333.333 0 0 0 0 1v11c0 .184.149.333.333.333 4.543 0 7.333 1.165 7.333 2a.333.333 0 1 0 .666 0c0-.835 2.79-2 7.333-2a.333.333 0 0 0 .333-.333V1a.333.333 0 0 0-.333-.333zm-15 11.002V1.336c4.346.055 7 1.183 7 1.998v9.887c-1.267-.977-4.163-1.513-7-1.552zm14.666 0c-2.837.039-5.733.575-7 1.551V3.333c0-.815 2.654-1.943 7-1.998v10.333zm-8.88-7.153c-1.122-.43-2.695-.731-4.43-.849-.175-.003-.343.126-.355.31s.126.343.31.355c1.671.113 3.176.399 4.237.805a.332.332 0 0 0 .43-.192.333.333 0 0 0-.192-.43zm0 2c-1.122-.43-2.695-.731-4.43-.849-.175-.005-.343.126-.355.31s.126.343.31.355c1.671.113 3.176.399 4.237.805a.332.332 0 0 0 .43-.192.333.333 0 0 0-.192-.43zm0 2c-1.122-.43-2.695-.731-4.43-.849-.175-.007-.343.126-.355.31s.126.343.31.355c1.671.113 3.176.399 4.237.805a.331.331 0 0 0 .43-.191.333.333 0 0 0-.192-.43zm0 2c-1.122-.43-2.695-.731-4.43-.849-.175-.009-.343.126-.355.31s.126.343.31.355c1.671.113 3.176.399 4.237.805a.331.331 0 0 0 .43-.191.333.333 0 0 0-.192-.43zM9.667 5.16a.31.31 0 0 0 .119-.023c1.063-.406 2.567-.692 4.237-.805.183-.012.322-.171.31-.355s-.177-.313-.355-.31c-1.734.117-3.307.419-4.43.849a.332.332 0 0 0 .119.644zm0 2a.31.31 0 0 0 .119-.023c1.063-.406 2.567-.692 4.237-.805.183-.012.322-.171.31-.355s-.177-.315-.355-.31c-1.734.117-3.307.419-4.43.849a.332.332 0 0 0 .119.644zm0 2a.31.31 0 0 0 .119-.023c1.063-.406 2.567-.692 4.237-.805.183-.012.322-.171.31-.355s-.177-.317-.355-.31c-1.734.117-3.307.419-4.43.849a.332.332 0 0 0 .119.644zm0 2a.31.31 0 0 0 .119-.023c1.063-.406 2.567-.692 4.237-.805.183-.012.322-.171.31-.355s-.177-.319-.355-.31c-1.734.117-3.307.419-4.43.849a.332.332 0 0 0 .119.644z"/>
</svg>
