<!-- Generated by IcoMoon.io -->
<svg version="1.1" xmlns="http://www.w3.org/2000/svg" width="48" height="48" viewBox="0 0 48 48">
<title>spinner</title>
<path d="M18 6c0-3.314 2.686-6 6-6s6 2.686 6 6c0 3.314-2.686 6-6 6s-6-2.686-6-6zM30.728 11.272c0-3.314 2.686-6 6-6s6 2.686 6 6c0 3.314-2.686 6-6 6s-6-2.686-6-6zM39 24c0-1.657 1.343-3 3-3s3 1.343 3 3c0 1.657-1.343 3-3 3s-3-1.343-3-3zM33.728 36.728c0-1.657 1.343-3 3-3s3 1.343 3 3c0 1.657-1.343 3-3 3s-3-1.343-3-3zM21 42c0 0 0 0 0 0 0-1.657 1.343-3 3-3s3 1.343 3 3c0 0 0 0 0 0 0 1.657-1.343 3-3 3s-3-1.343-3-3zM8.272 36.728c0 0 0 0 0 0 0-1.657 1.343-3 3-3s3 1.343 3 3c0 0 0 0 0 0 0 1.657-1.343 3-3 3s-3-1.343-3-3zM6.772 11.272c0 0 0 0 0 0 0-2.485 2.015-4.5 4.5-4.5s4.5 2.015 4.5 4.5c0 0 0 0 0 0 0 2.485-2.015 4.5-4.5 4.5s-4.5-2.015-4.5-4.5zM2.625 24c0-1.864 1.511-3.375 3.375-3.375s3.375 1.511 3.375 3.375c0 1.864-1.511 3.375-3.375 3.375s-3.375-1.511-3.375-3.375z"></path>
</svg>
