<!-- Generated by IcoMoon.io -->
<svg version="1.1" xmlns="http://www.w3.org/2000/svg" width="16" height="16" viewBox="0 0 16 16">
<title>home</title>
<path d="M13.667 9c-0.184 0-0.333 0.149-0.333 0.333v6h-3.333v-4.333c0-0.184-0.149-0.333-0.333-0.333h-3.333c-0.184 0-0.333 0.149-0.333 0.333v4.333h-3.333v-6.333c0-0.184-0.149-0.333-0.333-0.333s-0.333 0.149-0.333 0.333v6.667c0 0.185 0.149 0.333 0.333 0.333h4c0.184 0 0.333-0.149 0.333-0.333v-4.333h2.667v4.333c0 0.184 0.149 0.333 0.333 0.333h4c0.184 0 0.333-0.149 0.333-0.333v-6.333c0-0.184-0.149-0.333-0.333-0.333z"></path>
<path d="M15.903 8.431l-7.667-7.667c-0.13-0.13-0.341-0.13-0.471 0l-7.667 7.667c-0.13 0.13-0.13 0.341 0 0.471s0.341 0.13 0.471 0l7.431-7.431 7.431 7.431c0.065 0.065 0.151 0.097 0.236 0.097s0.171-0.033 0.236-0.097c0.13-0.13 0.13-0.341 0-0.471z"></path>
<path d="M10.667 2h2v2c0 0.184 0.149 0.333 0.333 0.333s0.333-0.149 0.333-0.333v-2.333c0-0.184-0.149-0.333-0.333-0.333h-2.333c-0.184 0-0.333 0.149-0.333 0.333s0.149 0.333 0.333 0.333z"></path>
</svg>
