<!-- Generated by IcoMoon.io -->
<svg version="1.1" xmlns="http://www.w3.org/2000/svg" width="16" height="16" viewBox="0 0 16 16">
<title>collections</title>
<path d="M4.876 5.976l3.333 1.333c0.040 0.016 0.082 0.024 0.124 0.024s0.084-0.008 0.124-0.024l3.333-1.333c0.127-0.051 0.209-0.173 0.209-0.309v-4.333c0-0.005-0.003-0.011-0.004-0.016-0.002-0.039-0.012-0.076-0.026-0.111-0.004-0.009-0.004-0.017-0.009-0.026-0.021-0.042-0.052-0.079-0.091-0.109-0.002-0.001-0.003-0.005-0.005-0.007-0.011-0.007-0.023-0.008-0.034-0.014-0.023-0.013-0.043-0.029-0.069-0.037l-3.333-1c-0.063-0.019-0.129-0.019-0.191 0l-3.333 1c-0.027 0.008-0.047 0.024-0.070 0.037-0.011 0.006-0.023 0.007-0.033 0.014-0.003 0.001-0.003 0.005-0.005 0.007-0.038 0.029-0.069 0.067-0.091 0.109-0.004 0.009-0.004 0.018-0.008 0.027-0.015 0.035-0.024 0.071-0.026 0.111-0.001 0.005-0.004 0.011-0.004 0.016v4.333c0 0.137 0.083 0.259 0.209 0.309zM5.333 1.781l2.667 0.8v3.927l-2.667-1.067v-3.66zM11.333 5.441l-2.667 1.067v-3.927l2.667-0.8v3.66zM8.333 0.681l2.173 0.652-2.153 0.646c-0.007 0-0.013-0.004-0.019-0.004s-0.013 0.003-0.019 0.004l-2.155-0.646 2.173-0.652z"></path>
<path d="M15.332 8.327c-0.001-0.049-0.013-0.097-0.035-0.141-0.006-0.011-0.014-0.019-0.021-0.030-0.019-0.030-0.042-0.058-0.071-0.081-0.005-0.005-0.008-0.013-0.014-0.017-0.009-0.007-0.021-0.007-0.031-0.012-0.015-0.008-0.026-0.020-0.042-0.027l-2.667-1c-0.075-0.028-0.159-0.028-0.235 0l-2.667 1c-0.016 0.006-0.027 0.018-0.042 0.027-0.010 0.005-0.021 0.005-0.031 0.012-0.007 0.004-0.009 0.012-0.014 0.017-0.029 0.023-0.052 0.051-0.071 0.081-0.007 0.011-0.015 0.019-0.021 0.030-0.021 0.043-0.033 0.091-0.035 0.141 0 0.002-0.001 0.004-0.001 0.006v3c0 0.127 0.071 0.241 0.184 0.298l2.667 1.333c0.047 0.023 0.098 0.035 0.149 0.035s0.102-0.012 0.149-0.035l2.667-1.333c0.111-0.057 0.183-0.171 0.183-0.298v-3c0-0.002-0.001-0.004-0.001-0.006zM12.333 7.69l1.717 0.643-1.714 0.643c0 0-0.001-0.001-0.003-0.001s-0.002 0.001-0.003 0.001l-1.714-0.643 1.717-0.643zM10 8.815l2 0.75v2.563l-2-1v-2.313zM14.667 11.127l-2 1v-2.563l2-0.75v2.313z"></path>
<path d="M8.63 8.849c-0.001-0.003-0.005-0.006-0.007-0.009-0.021-0.039-0.050-0.072-0.086-0.1-0.004-0.003-0.005-0.008-0.009-0.011-0.011-0.008-0.023-0.009-0.035-0.014-0.018-0.011-0.034-0.025-0.055-0.031l-4-1.333c-0.069-0.023-0.142-0.023-0.211 0l-4 1.333c-0.021 0.007-0.037 0.021-0.055 0.031-0.011 0.006-0.024 0.007-0.035 0.015-0.003 0.003-0.005 0.007-0.009 0.010-0.036 0.028-0.065 0.061-0.086 0.1-0.002 0.003-0.006 0.005-0.007 0.009-0.022 0.043-0.032 0.090-0.034 0.139 0.001 0.004-0.002 0.007-0.002 0.011v5.333c0 0.143 0.092 0.271 0.228 0.316l4 1.333c0.035 0.011 0.069 0.017 0.105 0.017s0.071-0.006 0.105-0.017l4-1.333c0.136-0.045 0.228-0.173 0.228-0.316v-5.333c0-0.004-0.003-0.007-0.003-0.011-0.002-0.049-0.011-0.097-0.034-0.139zM4.333 8.018l2.947 0.982-2.934 0.978c-0.005 0-0.008-0.002-0.013-0.002s-0.008 0.002-0.013 0.002l-2.933-0.978 2.946-0.982zM0.667 9.463l3.333 1.111v4.631l-3.333-1.111v-4.631zM8 14.093l-3.333 1.111v-4.631l3.333-1.111v4.631z"></path>
</svg>
