<svg xmlns="http://www.w3.org/2000/svg" viewBox="0 0 16 16">
    <path d="M9.667 3.333H6a.333.333 0 1 0 0 .666h3.667a.333.333 0 1 0 0-.666zm0 2H6a.333.333 0 1 0 0 .666h3.667a.333.333 0 1 0 0-.666zm0 2H6a.333.333 0 1 0 0 .666h3.667a.333.333 0 1 0 0-.666zm0 2H6a.333.333 0 1 0 0 .666h3.667a.333.333 0 1 0 0-.666zM14 0c-.076 0-.149.014-.222.023A.314.314 0 0 0 13.667 0h-8a2.336 2.336 0 0 0-2.333 2.333v9h-1c-1.287 0-2.333 1.047-2.333 2.333s1.047 2.333 2.333 2.333h8a2.336 2.336 0 0 0 2.333-2.333v-11h3A.333.333 0 0 0 16 2.333C16 .959 15.178 0 14 0zM2.333 15.333c-.919 0-1.667-.748-1.667-1.667s.747-1.667 1.667-1.667h6.369C8.269 12.423 8 13.013 8 13.666s.269 1.243.702 1.667H2.333zM12 13.667c0 .919-.747 1.667-1.667 1.667s-1.667-.748-1.667-1.667S9.413 12 10.333 12a.333.333 0 1 0 0-.666H4v-9C4 1.415 4.747.667 5.667.667h6.853C12.201 1.022 12 1.486 12 2v11.667zM12.667 2c0-.736.598-1.333 1.333-1.333.705 0 1.206.523 1.312 1.333h-2.645z"/>
</svg>
