<svg xmlns="http://www.w3.org/2000/svg" viewBox="0 0 16 16">
    <path d="M11 0H5a.333.333 0 0 0-.333.333v4c0 .184.149.333.333.333h6a.333.333 0 0 0 .333-.333v-4A.333.333 0 0 0 11 0zm-.333 4H5.334V.667h5.333V4zM11 5.333H5a.333.333 0 0 0-.333.333v4c0 .184.149.333.333.333h6a.333.333 0 0 0 .333-.333v-4A.333.333 0 0 0 11 5.333zm-.333 4H5.334V6h5.333v3.333zM11 10.667H5a.333.333 0 0 0-.333.333v4c0 .184.149.333.333.333h6a.333.333 0 0 0 .333-.333v-4a.333.333 0 0 0-.333-.333zm-.333 4H5.334v-3.333h5.333v3.333zM1.667 0a.333.333 0 0 0-.333.333v15.333a.333.333 0 1 0 .666 0V.333A.333.333 0 0 0 1.667 0zM14.333 0A.333.333 0 0 0 14 .333v15.333a.333.333 0 1 0 .666 0V.333A.333.333 0 0 0 14.333 0zM3.667.667H3A.333.333 0 0 0 2.667 1v.667c0 .184.149.333.333.333h.667A.333.333 0 0 0 4 1.667V1a.333.333 0 0 0-.333-.333zM3.667 3.333H3a.333.333 0 0 0-.333.333v.667c0 .184.149.333.333.333h.667A.333.333 0 0 0 4 4.333v-.667a.333.333 0 0 0-.333-.333zM3.667 6H3a.333.333 0 0 0-.333.333V7c0 .184.149.333.333.333h.667A.333.333 0 0 0 4 7v-.667A.333.333 0 0 0 3.667 6zM3.667 8.667H3A.333.333 0 0 0 2.667 9v.667c0 .184.149.333.333.333h.667A.333.333 0 0 0 4 9.667V9a.333.333 0 0 0-.333-.333zM3.667 11.333H3a.333.333 0 0 0-.333.333v.667c0 .184.149.333.333.333h.667A.333.333 0 0 0 4 12.333v-.667a.333.333 0 0 0-.333-.333zM3.667 14H3a.333.333 0 0 0-.333.333V15c0 .184.149.333.333.333h.667A.333.333 0 0 0 4 15v-.667A.333.333 0 0 0 3.667 14zM13 .667h-.667A.333.333 0 0 0 12 1v.667c0 .184.149.333.333.333H13a.333.333 0 0 0 .333-.333V1A.333.333 0 0 0 13 .667zM13 3.333h-.667a.333.333 0 0 0-.333.333v.667c0 .184.149.333.333.333H13a.333.333 0 0 0 .333-.333v-.667A.333.333 0 0 0 13 3.333zM13 6h-.667a.333.333 0 0 0-.333.333V7c0 .184.149.333.333.333H13A.333.333 0 0 0 13.333 7v-.667A.333.333 0 0 0 13 6zM13 8.667h-.667A.333.333 0 0 0 12 9v.667c0 .184.149.333.333.333H13a.333.333 0 0 0 .333-.333V9A.333.333 0 0 0 13 8.667zM13 11.333h-.667a.333.333 0 0 0-.333.333v.667c0 .184.149.333.333.333H13a.333.333 0 0 0 .333-.333v-.667a.333.333 0 0 0-.333-.333zM13 14h-.667a.333.333 0 0 0-.333.333V15c0 .184.149.333.333.333H13a.333.333 0 0 0 .333-.333v-.667A.333.333 0 0 0 13 14z"/>
</svg>
