<!-- Generated by IcoMoon.io -->
<svg version="1.1" xmlns="http://www.w3.org/2000/svg" width="16" height="16" viewBox="0 0 16 16">
<title>calendar</title>
<path d="M15.667 1.333h-2.333v-1c0-0.184-0.149-0.333-0.333-0.333h-2c-0.184 0-0.333 0.149-0.333 0.333v1h-5.333v-1c0-0.184-0.149-0.333-0.333-0.333h-2c-0.184 0-0.333 0.149-0.333 0.333v1h-2.333c-0.184 0-0.333 0.149-0.333 0.333v14c0 0.184 0.149 0.333 0.333 0.333h15.333c0.184 0 0.333-0.149 0.333-0.333v-14c0-0.184-0.149-0.333-0.333-0.333zM11.333 0.667h1.333v2h-1.333v-2zM3.333 0.667h1.333v2h-1.333v-2zM2.667 2v1c0 0.184 0.149 0.333 0.333 0.333h2c0.184 0 0.333-0.149 0.333-0.333v-1h5.333v1c0 0.184 0.149 0.333 0.333 0.333h2c0.184 0 0.333-0.149 0.333-0.333v-1h2v2.667h-14.667v-2.667h2zM0.667 15.333v-10h14.667v10h-14.667z"></path>
<path d="M14.333 8c0.184 0 0.333-0.149 0.333-0.333s-0.149-0.333-0.333-0.333h-3v-1c0-0.184-0.149-0.333-0.333-0.333s-0.333 0.149-0.333 0.333v1h-2.667v-1c0-0.184-0.149-0.333-0.333-0.333s-0.333 0.149-0.333 0.333v1h-2.667v-1c0-0.184-0.149-0.333-0.333-0.333s-0.333 0.149-0.333 0.333v1h-2.333c-0.184 0-0.333 0.149-0.333 0.333s0.149 0.333 0.333 0.333h2.333v2h-2.333c-0.184 0-0.333 0.149-0.333 0.333s0.149 0.333 0.333 0.333h2.333v2h-2.333c-0.184 0-0.333 0.149-0.333 0.333s0.149 0.333 0.333 0.333h2.333v1c0 0.184 0.149 0.333 0.333 0.333s0.333-0.149 0.333-0.333v-1h2.667v1c0 0.184 0.149 0.333 0.333 0.333s0.333-0.149 0.333-0.333v-1h2.667v1c0 0.184 0.149 0.333 0.333 0.333s0.333-0.149 0.333-0.333v-1h3c0.184 0 0.333-0.149 0.333-0.333s-0.149-0.333-0.333-0.333h-3v-2h3c0.184 0 0.333-0.149 0.333-0.333s-0.149-0.333-0.333-0.333h-3v-2h3zM4.667 8h2.667v2h-2.667v-2zM4.667 12.667v-2h2.667v2h-2.667zM10.667 12.667h-2.667v-2h2.667v2zM10.667 10h-2.667v-2h2.667v2z"></path>
</svg>
