<?xml version="1.0" encoding="UTF-8"?><svg width="16" height="16" version="1.1" viewBox="0 0 16 16" xmlns="http://www.w3.org/2000/svg" xmlns:xlink="http://www.w3.org/1999/xlink"><!--Generated by IJSVG (https://github.com/curthard89/IJSVG)--><g transform="scale(0.666667)"><path d="M3.5,0h-3.5v5.5c0,0.276 0.224,0.5 0.5,0.5h23c0.276,0 0.5,-0.224 0.5,-0.5v-5.5h-2h-18.5Z" transform="translate(0, 18)"></path><path d="M0.5,0c-0.276,0 -0.5,0.224 -0.5,0.5v16.5h3.168c0.521,-1.198 2.367,-5 4.832,-5c2.007,0 3.668,1.664 4.445,2.602l2.638,-4.522c0.864,-1.481 3.049,-1.435 3.828,0.124l3.398,6.796h1.691v-16.5c0,-0.276 -0.224,-0.5 -0.5,-0.5h-23Zm9,9h-3c-1.102,0 -2,-0.896 -2,-2c0,-1.162 1.014,-2.096 2.176,-1.991c0.411,-1.191 1.527,-2.009 2.824,-2.009c1.654,0 3,1.346 3,3c0,1.654 -1.346,3 -3,3Z"></path><path fill="none" d="M0,0h24v24h-24Z"></path></g></svg>