<svg xmlns="http://www.w3.org/2000/svg" viewBox="0 0 16 16">
    <path d="M15.194 4.062L10.527.729a.332.332 0 0 0-.387 0L5.667 3.924 1.194.729A.334.334 0 0 0 .666 1v10.667c0 .108.052.209.139.271l4.667 3.333c.006.005.014.003.02.007.051.032.109.055.174.055s.123-.023.174-.055c.006-.004.014-.002.02-.007l4.473-3.195 4.473 3.195a.334.334 0 0 0 .528-.271V4.333a.333.333 0 0 0-.139-.271zM6 4.505l4-2.857v9.848l-4 2.857V4.505zM1.333 1.648l4 2.857v9.847l-4-2.857V1.647zm13.334 12.704l-4-2.857V1.648l4 2.857v9.847z"/>
</svg>
