<svg xmlns="http://www.w3.org/2000/svg" viewBox="0 0 16 16">
    <path d="M8.667 14C12.71 14 16 10.71 16 6.667v-1C16 3.645 14.355 2 12.333 2S8.666 3.645 8.666 5.667a3.672 3.672 0 0 0 3.667 3.667 3.657 3.657 0 0 0 2.875-1.399c-.593 3.072-3.299 5.399-6.542 5.399a.333.333 0 1 0 0 .666zM.333 14c4.043 0 7.333-3.29 7.333-7.333v-1C7.666 3.645 6.021 2 3.999 2S.332 3.645.332 5.667a3.672 3.672 0 0 0 3.667 3.667 3.657 3.657 0 0 0 2.875-1.399c-.593 3.072-3.299 5.399-6.542 5.399a.333.333 0 1 0 0 .666z"/>
</svg>
