<svg xmlns="http://www.w3.org/2000/svg" viewBox="0 0 16 16">
    <path d="M15.298 12.813c-.49-.979-2.162-1.595-4.476-2.445-.267-.098-.541-.199-.822-.304V8.458c.293-.248.919-.897.993-1.955.151-.129.27-.349.339-.641.111-.47.055-1.027-.277-1.359l.062-.155c.255-.644.731-1.843.543-2.785C11.429.41 9.791 0 8.458 0 7.423 0 6.167.261 5.771.974c-.398.045-.705.209-.915.492-.579.781-.159 2.168.067 2.913.012.041.023.079.034.111-.343.329-.402.895-.289 1.371.069.293.188.513.339.641.074 1.059.7 1.707.993 1.955v1.606c-.281.105-.555.206-.823.304-2.314.851-3.986 1.466-4.475 2.445A7.053 7.053 0 0 0 0 15.667c0 .184.149.333.333.333h15.333a.333.333 0 0 0 .333-.333 7.05 7.05 0 0 0-.702-2.854zM.687 15.333c.043-.468.18-1.359.611-2.222.371-.743 2.103-1.38 4.109-2.117.337-.125.686-.253 1.043-.387a.334.334 0 0 0 .217-.313v-2a.331.331 0 0 0-.149-.277 2.161 2.161 0 0 1-.851-1.723.334.334 0 0 0-.246-.322c-.069-.097-.172-.41-.129-.709.025-.173.089-.286.191-.337a.333.333 0 0 0 .184-.298c0-.09-.027-.184-.105-.443-.165-.542-.549-1.811-.17-2.323.117-.157.317-.234.609-.234a.333.333 0 0 0 .323-.253c.087-.349.909-.709 2.135-.709 1.165 0 2.414.353 2.549 1.027.149.748-.279 1.827-.509 2.408-.116.292-.164.412-.164.527 0 .127.071.241.184.298.101.051.166.164.191.337.043.3-.059.613-.129.709a.335.335 0 0 0-.246.323c0 1.129-.818 1.7-.851 1.723a.333.333 0 0 0-.149.277v2c0 .139.086.263.216.312.357.134.706.262 1.042.386 2.006.737 3.738 1.375 4.11 2.118.432.863.569 1.754.612 2.222H.688z"/>
</svg>
