<!-- Generated by IcoMoon.io -->
<svg version="1.1" xmlns="http://www.w3.org/2000/svg" width="16" height="16" viewBox="0 0 16 16">
<title>bookslibrary</title>
<path d="M15.925 15.083l-3.333-12.909c-0.045-0.179-0.227-0.286-0.405-0.24l-1.937 0.5c-0.086 0.022-0.159 0.077-0.204 0.153s-0.058 0.167-0.036 0.253l0.643 2.493h-3.32v-5c0-0.184-0.15-0.333-0.333-0.333h-4c-0.184 0-0.333 0.149-0.333 0.333v1.667h-2.333c-0.184 0-0.333 0.149-0.333 0.333v13.333c0 0.184 0.149 0.333 0.333 0.333h10.667c0.183 0 0.333-0.149 0.333-0.333v-7.703l2.011 7.786c0.039 0.151 0.174 0.25 0.322 0.25 0.028 0 0.056-0.003 0.084-0.011l1.936-0.5c0.179-0.046 0.285-0.227 0.239-0.406zM2 13.667c0 0.184-0.15 0.333-0.333 0.333s-0.333-0.149-0.333-0.333v-9.333c0-0.184 0.149-0.333 0.333-0.333s0.333 0.149 0.333 0.333v9.333zM4.667 1.667c0-0.184 0.149-0.333 0.333-0.333s0.333 0.149 0.333 0.333v8.667c0 0.184-0.15 0.333-0.333 0.333s-0.333-0.149-0.333-0.333v-8.667zM6 14.333c0 0.184-0.15 0.333-0.333 0.333h-1.333c-0.184 0-0.333-0.149-0.333-0.333v-2.667c0-0.184 0.149-0.333 0.333-0.333h1.333c0.183 0 0.333 0.149 0.333 0.333v2.667zM8.667 7c0-0.184 0.149-0.333 0.333-0.333s0.333 0.149 0.333 0.333v6c0 0.184-0.15 0.333-0.333 0.333s-0.333-0.149-0.333-0.333v-6zM9.667 14.667h-1.333c-0.184 0-0.333-0.149-0.333-0.333s0.149-0.333 0.333-0.333h1.333c0.183 0 0.333 0.149 0.333 0.333s-0.15 0.333-0.333 0.333z"></path>
</svg>
