<svg xmlns="http://www.w3.org/2000/svg" viewBox="0 0 16 16">
    <path d="M10 14.861l-2.097-2.097a.333.333 0 0 0-.471 0l-2.098 2.097v-3.529h-.667v4.333c0 .135.081.257.206.308a.332.332 0 0 0 .363-.072l2.431-2.431 2.431 2.431a.332.332 0 0 0 .363.072.332.332 0 0 0 .206-.308v-4.333H10v3.529z"/>
    <path d="M7.667 0C4.542 0 2 2.542 2 5.667s2.542 5.667 5.667 5.667 5.667-2.542 5.667-5.667S10.792 0 7.667 0zm0 10.667c-2.757 0-5-2.243-5-5s2.243-5 5-5 5 2.243 5 5-2.243 5-5 5z"/>
    <path d="M7.667 1.667c-2.206 0-4 1.794-4 4s1.794 4 4 4 4-1.794 4-4-1.794-4-4-4zm0 7.333C5.829 9 4.334 7.505 4.334 5.667s1.495-3.333 3.333-3.333S11 3.829 11 5.667 9.505 9 7.667 9z"/>
    <path d="M7.797 3.693a.332.332 0 0 0-.362.066l-.397.381a.332.332 0 0 0 .296.567v2.625a.333.333 0 1 0 .666 0V3.999a.333.333 0 0 0-.203-.306z"/>
</svg>
