<svg xmlns="http://www.w3.org/2000/svg" viewBox="0 0 16 16">
    <path d="M14.488 2.684l-1.172-1.172c-.877-.878-2.422-.878-3.299 0L7.374 4.155c-.65.649-.65 1.708.001 2.358l.057.057a.333.333 0 0 0 .47-.472l-.057-.057a1 1 0 0 1 0-1.414l2.643-2.643c.626-.627 1.731-.627 2.357 0l1.171 1.171a1.67 1.67 0 0 1 0 2.357l-2.643 2.643a.999.999 0 0 1-1.414 0l-.057-.057a.333.333 0 0 0-.471.471l.057.057c.325.325.751.487 1.179.487s.853-.163 1.179-.487l2.643-2.643a2.335 2.335 0 0 0 0-3.298zM8.569 9.431a.333.333 0 0 0-.471.471l.057.057a1 1 0 0 1 0 1.414l-2.643 2.644c-.625.626-1.73.626-2.357 0l-1.172-1.172a1.67 1.67 0 0 1 0-2.357l2.643-2.643a1.002 1.002 0 0 1 1.415.001l.057.057a.333.333 0 0 0 .47-.472l-.057-.057a1.67 1.67 0 0 0-2.357 0l-2.643 2.644a2.336 2.336 0 0 0 0 3.299l1.171 1.171c.439.439 1.025.681 1.65.681s1.211-.242 1.65-.681l2.643-2.643c.65-.649.65-1.708 0-2.357l-.057-.057z"/>
    <path d="M5.172 10.829a.333.333 0 0 0 .472 0l5.185-5.186a.333.333 0 0 0-.471-.471l-5.185 5.185a.333.333 0 0 0-.001.472z"/>
</svg>
