<svg xmlns="http://www.w3.org/2000/svg" viewBox="0 0 16 16">
    <path d="M7.667.667C3.44.667 0 4.106 0 8.334s3.439 7.667 7.667 7.667 7.667-3.439 7.667-7.667c0-4.227-3.439-7.667-7.667-7.667zm0 14.666c-3.86 0-7-3.14-7-7s3.14-7 7-7 7 3.14 7 7-3.14 7-7 7z"/>
    <path d="M7.667 4.333a2.336 2.336 0 0 0-2.333 2.333.333.333 0 1 0 .666 0c0-.919.747-1.667 1.667-1.667s1.667.748 1.667 1.667-.747 1.667-1.667 1.667a.333.333 0 0 0-.333.333v2a.333.333 0 1 0 .666 0v-1.69a2.338 2.338 0 0 0 2-2.31 2.336 2.336 0 0 0-2.333-2.333zM8.333 12.333a.667.667 0 1 1-1.334 0 .667.667 0 0 1 1.334 0z"/>
</svg>
