<!-- Generated by IcoMoon.io -->
<svg version="1.1" xmlns="http://www.w3.org/2000/svg" width="16" height="16" viewBox="0 0 16 16">
<title>video-projected-medium</title>
<path d="M9.667 9.333h-6.667c-0.184 0-0.333 0.149-0.333 0.333s0.149 0.333 0.333 0.333h6.667c0.184 0 0.333-0.149 0.333-0.333s-0.149-0.333-0.333-0.333zM3 6.667c1.654 0 3-1.346 3-3s-1.346-3-3-3-3 1.346-3 3 1.346 3 3 3zM3 1.333c1.287 0 2.333 1.047 2.333 2.333s-1.047 2.333-2.333 2.333-2.333-1.047-2.333-2.333 1.047-2.333 2.333-2.333zM8.667 6.667c1.103 0 2-0.897 2-2s-0.897-2-2-2-2 0.897-2 2 0.897 2 2 2zM8.667 3.333c0.735 0 1.333 0.597 1.333 1.333s-0.598 1.333-1.333 1.333-1.333-0.598-1.333-1.333c0-0.736 0.598-1.333 1.333-1.333zM15.67 8.327c-0.209-0.139-0.481-0.155-0.747-0.045l-2.923 1.218v-1.167c0-0.551-0.449-1-1-1h-9.333c-0.551 0-1 0.449-1 1v5.333c0 0.551 0.449 1 1 1h9.333c0.551 0 1-0.449 1-1v-1.167l2.923 1.218c0.117 0.049 0.235 0.072 0.348 0.072 0.145 0 0.282-0.039 0.399-0.117 0.21-0.139 0.33-0.384 0.33-0.673v-4c0-0.289-0.12-0.533-0.33-0.673zM11 14h-9.333c-0.184 0-0.333-0.149-0.333-0.333v-5.333c0-0.184 0.149-0.333 0.333-0.333h9.333c0.184 0 0.333 0.149 0.333 0.333v1.665c0 0.001 0 0.001 0 0.001v3.668c0 0.184-0.149 0.333-0.333 0.333zM15.333 13c0 0.071-0.019 0.109-0.033 0.118s-0.055 0.012-0.121-0.015l-3.179-1.325v-1.556l3.18-1.324c0.065-0.027 0.108-0.025 0.121-0.015 0.013 0.008 0.033 0.047 0.033 0.117v4z"></path>
</svg>
