<svg xmlns="http://www.w3.org/2000/svg" viewBox="0 0 16 16">
    <path d="M4.876 5.976l3.333 1.333a.334.334 0 0 0 .248 0l3.333-1.333a.332.332 0 0 0 .209-.309V1.334c0-.005-.003-.011-.004-.016a.346.346 0 0 0-.026-.111c-.004-.009-.004-.017-.009-.026a.316.316 0 0 0-.091-.109c-.002-.001-.003-.005-.005-.007-.011-.007-.023-.008-.034-.014-.023-.013-.043-.029-.069-.037l-3.333-1a.327.327 0 0 0-.191 0l-3.333 1c-.027.008-.047.024-.07.037-.011.006-.023.007-.033.014-.003.001-.003.005-.005.007a.33.33 0 0 0-.091.109c-.004.009-.004.018-.008.027a.317.317 0 0 0-.026.111c-.001.005-.004.011-.004.016v4.333c0 .137.083.259.209.309zm.457-4.195l2.667.8v3.927L5.333 5.441v-3.66zm6 3.66L8.666 6.508V2.581l2.667-.8v3.66zm-3-4.76l2.173.652-2.153.646c-.007 0-.013-.004-.019-.004s-.013.003-.019.004L6.16 1.333 8.333.681zM15.332 8.327a.33.33 0 0 0-.035-.141c-.006-.011-.014-.019-.021-.03a.321.321 0 0 0-.071-.081c-.005-.005-.008-.013-.014-.017-.009-.007-.021-.007-.031-.012-.015-.008-.026-.02-.042-.027l-2.667-1a.34.34 0 0 0-.235 0l-2.667 1c-.016.006-.027.018-.042.027-.01.005-.021.005-.031.012-.007.004-.009.012-.014.017a.321.321 0 0 0-.071.081c-.007.011-.015.019-.021.03a.353.353 0 0 0-.035.141l-.001.006v3c0 .127.071.241.184.298l2.667 1.333a.34.34 0 0 0 .298 0l2.667-1.333a.335.335 0 0 0 .183-.298v-3l-.001-.006zm-2.999-.637l1.717.643-1.714.643-.003-.001-.003.001-1.714-.643 1.717-.643zM10 8.815l2 .75v2.563l-2-1V8.815zm4.667 2.312l-2 1V9.564l2-.75v2.313zM8.63 8.849c-.001-.003-.005-.006-.007-.009a.316.316 0 0 0-.086-.1c-.004-.003-.005-.008-.009-.011-.011-.008-.023-.009-.035-.014-.018-.011-.034-.025-.055-.031l-4-1.333a.331.331 0 0 0-.211 0l-4 1.333c-.021.007-.037.021-.055.031-.011.006-.024.007-.035.015l-.009.01a.316.316 0 0 0-.086.1c-.002.003-.006.005-.007.009a.331.331 0 0 0-.034.139c.001.004-.002.007-.002.011v5.333c0 .143.092.271.228.316l4 1.333a.344.344 0 0 0 .21 0l4-1.333a.333.333 0 0 0 .228-.316V8.999c0-.004-.003-.007-.003-.011a.313.313 0 0 0-.034-.139zm-4.297-.831L7.28 9l-2.934.978-.013-.002-.013.002L1.387 9l2.946-.982zM.667 9.463L4 10.574v4.631L.667 14.094V9.463zM8 14.093l-3.333 1.111v-4.631L8 9.462v4.631z"/>
</svg>
