<!-- Generated by IcoMoon.io -->
<svg version="1.1" xmlns="http://www.w3.org/2000/svg" width="16" height="16" viewBox="0 0 16 16">
<title>phone-book</title>
<path d="M9.827 13.18c0.262 0.173 0.567 0.265 0.881 0.265 0.426 0 0.826-0.165 1.126-0.466l0.489-0.489c0.222-0.223 0.345-0.517 0.345-0.831s-0.122-0.609-0.344-0.83l-0.892-0.892c-0.444-0.444-1.218-0.444-1.661 0l-0.082 0.082c-0.802-0.68-1.576-1.453-2.261-2.261l0.082-0.082c0.223-0.222 0.345-0.517 0.345-0.831s-0.123-0.608-0.344-0.829l-0.893-0.892c-0.443-0.444-1.218-0.443-1.661 0l-0.489 0.489c-0.532 0.533-0.617 1.377-0.2 2.007 1.447 2.191 3.371 4.113 5.561 5.561zM4.937 6.084l0.489-0.489c0.096-0.096 0.223-0.149 0.359-0.149s0.264 0.053 0.36 0.149l0.892 0.893c0.096 0.095 0.148 0.222 0.149 0.357 0 0.136-0.053 0.264-0.149 0.36l-0.297 0.297c-0.121 0.121-0.131 0.315-0.022 0.447 0.823 1.003 1.785 1.964 2.779 2.778 0.133 0.109 0.325 0.098 0.447-0.022l0.297-0.297c0.192-0.193 0.527-0.191 0.718 0l0.892 0.892c0.095 0.095 0.149 0.223 0.149 0.358s-0.053 0.263-0.149 0.359l-0.489 0.489c-0.303 0.303-0.808 0.354-1.167 0.117-2.116-1.399-3.974-3.256-5.373-5.372-0.243-0.367-0.195-0.857 0.115-1.167z"></path>
<path d="M14.333 2.667h-11.333c-0.551 0-1-0.449-1-1s0.449-1 1-1h11.333c0.184 0 0.333-0.149 0.333-0.333s-0.149-0.333-0.333-0.333h-11.333c-0.919 0-1.667 0.747-1.667 1.667 0 0.078 0.005 0.155 0.016 0.231-0.011 0.032-0.016 0.066-0.016 0.102v2.667h-0.333c-0.184 0-0.333 0.149-0.333 0.333s0.149 0.333 0.333 0.333h0.333v1.333h-0.333c-0.184 0-0.333 0.149-0.333 0.333s0.149 0.333 0.333 0.333h0.333v1.333h-0.333c-0.184 0-0.333 0.149-0.333 0.333s0.149 0.333 0.333 0.333h0.333v1.333h-0.333c-0.184 0-0.333 0.149-0.333 0.333s0.149 0.333 0.333 0.333h0.333v1.333h-0.333c-0.184 0-0.333 0.149-0.333 0.333s0.149 0.333 0.333 0.333h0.333v1c0 0.919 0.748 1.667 1.667 1.667h11.333c0.184 0 0.333-0.149 0.333-0.333v-12.667c0-0.184-0.149-0.333-0.333-0.333zM14 15.333h-11c-0.551 0-1-0.449-1-1v-1h0.333c0.184 0 0.333-0.149 0.333-0.333s-0.149-0.333-0.333-0.333h-0.333v-1.333h0.333c0.184 0 0.333-0.149 0.333-0.333s-0.149-0.333-0.333-0.333h-0.333v-1.333h0.333c0.184 0 0.333-0.149 0.333-0.333s-0.149-0.333-0.333-0.333h-0.333v-1.333h0.333c0.184 0 0.333-0.149 0.333-0.333s-0.149-0.333-0.333-0.333h-0.333v-1.333h0.333c0.184 0 0.333-0.149 0.333-0.333s-0.149-0.333-0.333-0.333h-0.333v-1.667c0.279 0.209 0.625 0.334 1 0.334h11v12z"></path>
<path d="M3 1.333c-0.184 0-0.333 0.149-0.333 0.333s0.149 0.333 0.333 0.333h10.667c0.184 0 0.333-0.149 0.333-0.333s-0.149-0.333-0.333-0.333h-10.667z"></path>
</svg>
