<svg xmlns="http://www.w3.org/2000/svg" viewBox="0 0 16 16">
    <path d="M8 .584c-4.411 0-8 2.956-8 6.589 0 1.716.785 3.324 2.217 4.555L.61 14.935a.335.335 0 0 0 .439.452L5.34 13.39a9.55 9.55 0 0 0 2.66.373c4.411 0 8-2.955 8-6.588S12.411.586 8 .586zm0 12.51a8.83 8.83 0 0 1-2.589-.38.327.327 0 0 0-.238.017l-3.539 1.647 1.297-2.589a.334.334 0 0 0-.09-.41C1.438 10.257.666 8.764.666 7.172c0-3.265 3.29-5.922 7.333-5.922s7.333 2.657 7.333 5.922c0 3.265-3.29 5.921-7.333 5.921z"/>
    <path d="M8.333 3.625C7.046 3.625 6 4.69 6 6a.333.333 0 1 0 .666 0c0-.926.763-1.709 1.667-1.709.919 0 1.667.739 1.667 1.647s-.748 1.646-1.667 1.646A.333.333 0 0 0 8 7.917v.833a.333.333 0 1 0 .666 0v-.523a2.323 2.323 0 0 0 2-2.289c0-1.275-1.047-2.313-2.333-2.313zM9 10.251a.667.667 0 1 1-1.334 0 .667.667 0 0 1 1.334 0z"/>
</svg>
