<!-- Generated by IcoMoon.io -->
<svg version="1.1" xmlns="http://www.w3.org/2000/svg" width="16" height="16" viewBox="0 0 16 16">
<title>search</title>
<path d="M6 12c1.421 0 2.726-0.499 3.755-1.328l5.105 5.131c0.259 0.261 0.681 0.263 0.943 0.002s0.262-0.682 0.003-0.943l-5.112-5.138c0.815-1.023 1.306-2.317 1.306-3.725 0-3.309-2.691-6-6-6s-6 2.691-6 6c0 3.308 2.691 6 6 6zM6 1.333c2.573 0 4.667 2.093 4.667 4.667s-2.094 4.667-4.667 4.667c-2.573 0-4.667-2.094-4.667-4.667s2.093-4.667 4.667-4.667z"></path>
</svg>
