<svg xmlns="http://www.w3.org/2000/svg" viewBox="0 0 16 16">
    <path d="M13.853.057a.333.333 0 0 0-.312-.032l-7.333 3a.333.333 0 0 0-.207.309v7.667H4.334c-1.287 0-2.333 1.047-2.333 2.333s1.047 2.333 2.333 2.333c1.243 0 2.333-1.091 2.333-2.333V5.891l6.667-2.727v5.17h-1.667c-1.287 0-2.333 1.047-2.333 2.333S10.381 13 11.667 13C12.91 13 14 11.909 14 10.667V.334a.334.334 0 0 0-.147-.277zM6 13.333C6 14.12 5.287 15 4.333 15c-.919 0-1.667-.747-1.667-1.667s.748-1.667 1.667-1.667H6v1.667zm.667-8.162V3.558L13.334.831v1.613L6.667 5.172zm6.666 5.496c0 .787-.713 1.667-1.667 1.667-.919 0-1.667-.747-1.667-1.667S10.747 9 11.666 9h1.667v1.667z"/>
</svg>
