<svg xmlns="http://www.w3.org/2000/svg" viewBox="0 0 16 16">
    <path d="M15.717 6.461a.34.34 0 0 0-.073-.364L12.978 3.43a.333.333 0 0 0-.471.471l2.097 2.098H8.333c-1.654 0-3 1.346-3 3v1.333a.333.333 0 1 0 .666 0V8.999a2.336 2.336 0 0 1 2.333-2.333h6.271l-2.097 2.097a.333.333 0 0 0 .471.472l2.666-2.667a.337.337 0 0 0 .073-.109z"/>
    <path d="M9.667 8.333a.333.333 0 0 0-.333.333v4H.667V3.999h8.667v.667a.333.333 0 1 0 .666 0v-1a.333.333 0 0 0-.333-.333H.334a.333.333 0 0 0-.333.333v9.333c0 .184.149.333.333.333h9.333a.333.333 0 0 0 .333-.333V8.666a.333.333 0 0 0-.333-.333z"/>
</svg>
