<svg xmlns="http://www.w3.org/2000/svg" viewBox="0 0 16 16">
    <path d="M8 0C3.589 0 0 3.589 0 8s3.589 8 8 8 8-3.589 8-8-3.589-8-8-8zm0 15.333C3.957 15.333.667 12.044.667 8S3.957.667 8 .667 15.333 3.957 15.333 8c0 4.044-3.29 7.333-7.333 7.333z"/>
    <path d="M11.873 3.692L6.206 6.025c-.016.007-.026.021-.041.029-.023.015-.045.028-.064.047s-.033.041-.047.063c-.009.015-.023.025-.029.041l-2.333 5.667a.333.333 0 0 0 .435.435l5.667-2.333c.016-.006.026-.021.041-.029.023-.014.045-.028.064-.047s.033-.041.047-.064c.009-.015.023-.025.029-.041l2.333-5.667a.333.333 0 0 0-.435-.435zm-7.26 7.696l1.838-4.465 2.626 2.625-4.464 1.839zm4.936-2.311L6.923 6.451l4.465-1.838-1.839 4.464z"/>
</svg>
