<svg xmlns="http://www.w3.org/2000/svg" viewBox="0 0 16 16">
    <path d="M8 0C3.589 0 0 3.589 0 8s3.589 8 8 8 8-3.589 8-8-3.589-8-8-8zm0 15.333C3.957 15.333.667 12.043.667 8S3.957.667 8 .667 15.333 3.957 15.333 8 12.043 15.333 8 15.333z"/>
    <path d="M8 6c-1.103 0-2 .897-2 2s.897 2 2 2 2-.897 2-2-.897-2-2-2zm0 3.333c-.735 0-1.333-.598-1.333-1.333S7.265 6.667 8 6.667 9.333 7.265 9.333 8 8.735 9.333 8 9.333z"/>
    <path d="M8.333 8a.333.333 0 1 1-.666 0 .333.333 0 0 1 .666 0zM9.185 1.781c-.183-.035-.356.085-.389.265s.085.355.265.389a5.669 5.669 0 0 1 4.529 4.669.333.333 0 1 0 .659-.104 6.336 6.336 0 0 0-5.063-5.22z"/>
    <path d="M8.935 3.091a.333.333 0 0 0-.124.654 4.335 4.335 0 0 1 3.463 3.57.333.333 0 1 0 .659-.104A5.002 5.002 0 0 0 8.936 3.09z"/>
    <path d="M8.685 4.4c-.178-.032-.355.085-.389.265s.085.355.265.389a3 3 0 0 1 2.397 2.472.333.333 0 1 0 .659-.105A3.664 3.664 0 0 0 8.686 4.4zM6.939 13.564a5.665 5.665 0 0 1-4.528-4.669.332.332 0 0 0-.381-.277.335.335 0 0 0-.277.381 6.333 6.333 0 0 0 5.063 5.22.334.334 0 0 0 .389-.265.333.333 0 0 0-.266-.389z"/>
    <path d="M7.189 12.255a4.333 4.333 0 0 1-3.463-3.57.333.333 0 0 0-.658.104 5 5 0 0 0 3.997 4.121.333.333 0 0 0 .125-.655z"/>
    <path d="M7.439 10.946a3.002 3.002 0 0 1-2.397-2.472.333.333 0 1 0-.658.104 3.668 3.668 0 0 0 2.931 3.023.333.333 0 0 0 .125-.654z"/>
</svg>
