<svg xmlns="http://www.w3.org/2000/svg" viewBox="0 0 16 16">
    <path d="M9.827 13.18a1.596 1.596 0 0 0 2.007-.201l.489-.489a1.17 1.17 0 0 0 .001-1.661l-.892-.892c-.444-.444-1.218-.444-1.661 0l-.082.082a19.705 19.705 0 0 1-2.261-2.261l.082-.082c.223-.222.345-.517.345-.831s-.123-.608-.344-.829l-.893-.892c-.443-.444-1.218-.443-1.661 0l-.489.489a1.6 1.6 0 0 0-.2 2.007 19.818 19.818 0 0 0 5.561 5.561zm-4.89-7.096l.489-.489a.506.506 0 0 1 .719 0l.892.893a.503.503 0 0 1 0 .717l-.297.297a.333.333 0 0 0-.022.447 20.266 20.266 0 0 0 2.779 2.778.334.334 0 0 0 .447-.022l.297-.297a.52.52 0 0 1 .718 0l.892.892a.506.506 0 0 1 0 .717l-.489.489a.946.946 0 0 1-1.167.117 19.167 19.167 0 0 1-5.373-5.372.929.929 0 0 1 .115-1.167z"/>
    <path d="M14.333 2.667H3c-.551 0-1-.449-1-1s.449-1 1-1h11.333a.333.333 0 1 0 0-.666H3a1.668 1.668 0 0 0-1.651 1.898.311.311 0 0 0-.016.102v2.667H1a.333.333 0 1 0 0 .666h.333v1.333H1a.333.333 0 1 0 0 .666h.333v1.333H1a.333.333 0 1 0 0 .666h.333v1.333H1a.333.333 0 1 0 0 .666h.333v1.333H1a.333.333 0 1 0 0 .666h.333v1A1.67 1.67 0 0 0 3 15.997h11.333a.333.333 0 0 0 .333-.333V2.997a.333.333 0 0 0-.333-.333zM14 15.333H3c-.551 0-1-.449-1-1v-1h.333a.333.333 0 1 0 0-.666H2v-1.333h.333a.333.333 0 1 0 0-.666H2V9.335h.333a.333.333 0 1 0 0-.666H2V7.336h.333a.333.333 0 1 0 0-.666H2V5.337h.333a.333.333 0 1 0 0-.666H2V3.004c.279.209.625.334 1 .334h11v12z"/>
    <path d="M3 1.333a.333.333 0 1 0 0 .666h10.667a.333.333 0 1 0 0-.666H3z"/>
</svg>
