<svg xmlns="http://www.w3.org/2000/svg" viewBox="0 0 16 16">
    <path d="M2 6C.897 6 0 6.897 0 8s.897 2 2 2 2-.897 2-2-.897-2-2-2zm0 3.333C1.265 9.333.667 8.735.667 8S1.265 6.667 2 6.667 3.333 7.265 3.333 8 2.735 9.333 2 9.333zM8 6c-1.103 0-2 .897-2 2s.897 2 2 2 2-.897 2-2-.897-2-2-2zm0 3.333c-.735 0-1.333-.598-1.333-1.333S7.265 6.667 8 6.667 9.333 7.265 9.333 8 8.735 9.333 8 9.333zM14 6c-1.103 0-2 .897-2 2s.897 2 2 2 2-.897 2-2-.897-2-2-2zm0 3.333c-.735 0-1.333-.598-1.333-1.333S13.265 6.667 14 6.667s1.333.598 1.333 1.333S14.735 9.333 14 9.333z"/>
</svg>
