<svg xmlns="http://www.w3.org/2000/svg" viewBox="0 0 16 16">
    <path d="M15.925 15.083L12.592 2.174a.332.332 0 0 0-.405-.24l-1.937.5a.332.332 0 0 0-.24.406l.643 2.493h-3.32v-5A.334.334 0 0 0 7 0H3a.333.333 0 0 0-.333.333V2H.334a.333.333 0 0 0-.333.333v13.333c0 .184.149.333.333.333h10.667a.334.334 0 0 0 .333-.333V7.963l2.011 7.786a.332.332 0 0 0 .406.239l1.936-.5a.332.332 0 0 0 .239-.406zM2 13.667a.334.334 0 0 1-.666 0V4.334a.333.333 0 1 1 .666 0v9.333zm2.667-12a.333.333 0 1 1 .666 0v8.667a.334.334 0 0 1-.666 0V1.667zM6 14.333c0 .184-.15.333-.333.333H4.334a.333.333 0 0 1-.333-.333v-2.667c0-.184.149-.333.333-.333h1.333c.183 0 .333.149.333.333v2.667zM8.667 7a.333.333 0 1 1 .666 0v6a.334.334 0 0 1-.666 0V7zm1 7.667H8.334a.333.333 0 1 1 0-.666h1.333a.334.334 0 0 1 0 .666z"/>
</svg>
