<svg xmlns="http://www.w3.org/2000/svg" viewBox="0 0 16 16">
    <path d="M15.667.667H.334A.333.333 0 0 0 .001 1v13.333c0 .184.149.333.333.333h15.333a.333.333 0 0 0 .333-.333V1a.333.333 0 0 0-.333-.333zm-15 .666H2V14H.667V1.333zM15.333 14H2.666V1.333h12.667V14z"/>
    <path d="M9 13.333c3.125 0 5.667-2.542 5.667-5.667S12.125 1.999 9 1.999 3.333 4.541 3.333 7.666 5.875 13.333 9 13.333zM9 2.667c2.757 0 5 2.243 5 5s-2.243 5-5 5-5-2.243-5-5 2.243-5 5-5z"/>
    <path d="M9 9.333c.919 0 1.667-.747 1.667-1.667S9.919 5.999 9 5.999s-1.667.747-1.667 1.667S8.081 9.333 9 9.333zm0-2.666c.551 0 1 .449 1 1s-.449 1-1 1-1-.449-1-1 .449-1 1-1z"/>
    <path d="M9.333 7.667a.333.333 0 1 1-.666 0 .333.333 0 0 1 .666 0z"/>
</svg>
