<svg xmlns="http://www.w3.org/2000/svg" viewBox="0 0 16 16">
    <path d="M14.067 2.007a30.465 30.465 0 0 0-12.133 0C.85 2.229.001 3.25.001 4.334v1a1.67 1.67 0 0 0 1.667 1.667h2c.919 0 1.667-.747 1.667-1.667v-.363a30.64 30.64 0 0 1 5.333 0v.363a1.67 1.67 0 0 0 1.667 1.667h2c.919 0 1.667-.747 1.667-1.667v-1c0-1.083-.849-2.105-1.933-2.327zm1.266 3.326c0 .542-.458 1-1 1h-2c-.542 0-1-.458-1-1v-.667a.334.334 0 0 0-.301-.332 31.058 31.058 0 0 0-6.065 0 .334.334 0 0 0-.301.332v.667c0 .542-.458 1-1 1h-2c-.542 0-1-.458-1-1v-1c0-.765.628-1.515 1.4-1.673a29.821 29.821 0 0 1 11.867 0c.772.158 1.4.909 1.4 1.673v1z"/>
    <path d="M9.333 7.35V6.333a.333.333 0 1 0-.666 0v1H7.334v-1a.333.333 0 1 0-.666 0V7.35C3.699 7.524 1.335 9.988 1.335 13v2c0 .184.149.333.333.333h12.667a.333.333 0 0 0 .333-.333v-2c0-3.012-2.364-5.476-5.333-5.65zM14 14.667H2V13c0-2.757 2.243-5 5-5h2c2.757 0 5 2.243 5 5v1.667z"/>
    <path d="M8 8.667c-1.471 0-2.667 1.196-2.667 2.667S6.529 14.001 8 14.001s2.667-1.196 2.667-2.667S9.471 8.667 8 8.667zm0 4.666c-1.103 0-2-.897-2-2s.897-2 2-2 2 .897 2 2-.897 2-2 2z"/>
</svg>
