<!-- Generated by IcoMoon.io -->
<svg version="1.1" xmlns="http://www.w3.org/2000/svg" width="16" height="16" viewBox="0 0 16 16">
<title>print</title>
<path d="M14.333 4.667h-12.667c-0.919 0-1.667 0.748-1.667 1.667v4c0 0.919 0.748 1.667 1.667 1.667h1.667v3c0 0.184 0.149 0.333 0.333 0.333h8.667c0.184 0 0.333-0.149 0.333-0.333v-3h1.667c0.919 0 1.667-0.748 1.667-1.667v-4c0-0.919-0.748-1.667-1.667-1.667zM12 14.667h-8v-4.667h8v4.667zM15.333 10.333c0 0.551-0.449 1-1 1h-1.667v-1.667c0-0.184-0.149-0.333-0.333-0.333h-8.667c-0.184 0-0.333 0.149-0.333 0.333v1.667h-1.667c-0.551 0-1-0.449-1-1v-4c0-0.551 0.449-1 1-1h12.667c0.551 0 1 0.449 1 1v4z"></path>
<path d="M3.667 4c0.184 0 0.333-0.149 0.333-0.333v-2.333h6v1.667c0 0.184 0.149 0.333 0.333 0.333h1.667v0.333c0 0.184 0.149 0.333 0.333 0.333s0.333-0.149 0.333-0.333v-0.667c0-0.045-0.009-0.088-0.026-0.128s-0.041-0.077-0.072-0.108l-1.999-1.999c-0.031-0.030-0.067-0.055-0.108-0.071-0.040-0.017-0.083-0.027-0.128-0.027h-6.667c-0.184 0-0.333 0.149-0.333 0.333v2.667c0 0.184 0.149 0.333 0.333 0.333zM10.667 1.805l0.862 0.862h-0.862v-0.862z"></path>
<path d="M2.333 6c-0.551 0-1 0.449-1 1s0.449 1 1 1 1-0.449 1-1-0.449-1-1-1zM2.333 7.333c-0.184 0-0.333-0.149-0.333-0.333s0.149-0.333 0.333-0.333 0.333 0.149 0.333 0.333c0 0.184-0.149 0.333-0.333 0.333z"></path>
<path d="M11 10.667h-6c-0.184 0-0.333 0.149-0.333 0.333s0.149 0.333 0.333 0.333h6c0.184 0 0.333-0.149 0.333-0.333s-0.149-0.333-0.333-0.333z"></path>
<path d="M11 12h-6c-0.184 0-0.333 0.149-0.333 0.333s0.149 0.333 0.333 0.333h6c0.184 0 0.333-0.149 0.333-0.333s-0.149-0.333-0.333-0.333z"></path>
<path d="M11 13.333h-6c-0.184 0-0.333 0.149-0.333 0.333s0.149 0.333 0.333 0.333h6c0.184 0 0.333-0.149 0.333-0.333s-0.149-0.333-0.333-0.333z"></path>
</svg>
