<!-- Generated by IcoMoon.io -->
<svg version="1.1" xmlns="http://www.w3.org/2000/svg" width="16" height="16" viewBox="0 0 16 16">
<title>lp</title>
<path d="M8 0c-4.411 0-8 3.589-8 8s3.589 8 8 8 8-3.589 8-8-3.589-8-8-8zM8 15.333c-4.043 0-7.333-3.29-7.333-7.333s3.29-7.333 7.333-7.333 7.333 3.29 7.333 7.333-3.29 7.333-7.333 7.333z"></path>
<path d="M8 6c-1.103 0-2 0.897-2 2s0.897 2 2 2 2-0.897 2-2-0.897-2-2-2zM8 9.333c-0.735 0-1.333-0.598-1.333-1.333s0.598-1.333 1.333-1.333 1.333 0.598 1.333 1.333-0.598 1.333-1.333 1.333z"></path>
<path d="M8.333 8c0 0.184-0.149 0.333-0.333 0.333s-0.333-0.149-0.333-0.333c0-0.184 0.149-0.333 0.333-0.333s0.333 0.149 0.333 0.333z"></path>
<path d="M9.185 1.781c-0.183-0.035-0.356 0.085-0.389 0.265s0.085 0.355 0.265 0.389c2.335 0.443 4.155 2.319 4.529 4.669 0.026 0.164 0.167 0.281 0.329 0.281 0.017 0 0.035-0.001 0.053-0.004 0.181-0.029 0.305-0.2 0.277-0.381-0.417-2.627-2.452-4.725-5.063-5.22z"></path>
<path d="M8.935 3.091c-0.184-0.035-0.355 0.084-0.389 0.265s0.085 0.355 0.265 0.389c1.785 0.339 3.177 1.773 3.463 3.57 0.026 0.164 0.167 0.281 0.329 0.281 0.017 0 0.035-0.001 0.053-0.004 0.181-0.029 0.305-0.2 0.277-0.381-0.33-2.075-1.936-3.73-3.997-4.121z"></path>
<path d="M8.685 4.4c-0.178-0.032-0.355 0.085-0.389 0.265s0.085 0.355 0.265 0.389c1.235 0.234 2.199 1.227 2.397 2.472 0.026 0.164 0.167 0.281 0.329 0.281 0.017 0 0.035-0.001 0.053-0.004 0.182-0.029 0.305-0.2 0.277-0.382-0.241-1.521-1.419-2.736-2.931-3.021z"></path>
<path d="M6.939 13.564c-2.335-0.442-4.155-2.319-4.528-4.669-0.029-0.181-0.195-0.305-0.381-0.277-0.181 0.029-0.305 0.2-0.277 0.381 0.417 2.628 2.452 4.726 5.063 5.22 0.021 0.004 0.042 0.006 0.062 0.006 0.157 0 0.297-0.111 0.327-0.271 0.034-0.181-0.085-0.355-0.266-0.389z"></path>
<path d="M7.189 12.255c-1.786-0.339-3.178-1.773-3.463-3.57-0.029-0.181-0.201-0.303-0.381-0.277-0.182 0.029-0.306 0.2-0.277 0.381 0.329 2.074 1.935 3.731 3.997 4.121 0.021 0.004 0.042 0.006 0.063 0.006 0.157 0 0.297-0.111 0.327-0.271 0.034-0.182-0.085-0.355-0.265-0.39z"></path>
<path d="M7.439 10.946c-1.236-0.235-2.199-1.228-2.397-2.472-0.029-0.181-0.197-0.305-0.381-0.277-0.181 0.029-0.305 0.2-0.277 0.381 0.241 1.521 1.419 2.736 2.931 3.023 0.021 0.004 0.042 0.006 0.063 0.006 0.157 0 0.297-0.111 0.327-0.271 0.034-0.181-0.085-0.355-0.265-0.389z"></path>
</svg>
