<!-- Generated by IcoMoon.io -->
<svg version="1.1" xmlns="http://www.w3.org/2000/svg" width="16" height="16" viewBox="0 0 16 16">
<title>plus-sign-alt</title>
<path d="M7.667 0c-4.227 0-7.667 3.439-7.667 7.667s3.439 7.667 7.667 7.667 7.667-3.439 7.667-7.667-3.439-7.667-7.667-7.667zM12.667 9c0 0.184-0.149 0.333-0.333 0.333h-3v3c0 0.184-0.149 0.333-0.333 0.333h-2.667c-0.184 0-0.333-0.149-0.333-0.333v-3h-3c-0.184 0-0.333-0.149-0.333-0.333v-2.667c0-0.184 0.149-0.333 0.333-0.333h3v-3c0-0.184 0.149-0.333 0.333-0.333h2.667c0.184 0 0.333 0.149 0.333 0.333v3h3c0.184 0 0.333 0.149 0.333 0.333v2.667z"></path>
</svg>
