<?xml version="1.0" encoding="UTF-8"?><svg version="1.1" viewBox="0 0 24 24" xmlns="http://www.w3.org/2000/svg" xmlns:xlink="http://www.w3.org/1999/xlink"><!--Generated by IJSVG (https://github.com/curthard89/IJSVG)--><path fill="#000000" d="M12,0c-6.617,0 -12,5.383 -12,12c0,6.617 5.383,12 12,12c6.617,0 12,-5.383 12,-12c0,-6.617 -5.383,-12 -12,-12Zm3.595,11.5h-2.095c0,3.013 0,7 0,7h-3c0,0 0,-3.951 0,-7h-2v-2h2v-1.164c0,-1.1 0.352,-2.819 2.649,-2.819l2.351,0.007v2.306c0,0 -1.163,0 -1.408,0c-0.244,0 -0.592,0.123 -0.592,0.647v1.023h2.339l-0.244,2Z"></path><path fill="none" d="M0,0h24v24h-24Z"></path></svg>