<!-- Generated by IcoMoon.io -->
<svg version="1.1" xmlns="http://www.w3.org/2000/svg" width="16" height="16" viewBox="0 0 16 16">
<title>clock</title>
<path d="M8 0c-4.411 0-8 3.589-8 8s3.589 8 8 8 8-3.589 8-8-3.589-8-8-8zM8 15.333c-4.043 0-7.333-3.289-7.333-7.333s3.29-7.333 7.333-7.333 7.333 3.29 7.333 7.333c0 4.044-3.29 7.333-7.333 7.333z"></path>
<path d="M8 7.853v-3.52c0-0.184-0.149-0.333-0.333-0.333s-0.333 0.149-0.333 0.333v3.667c0 0.093 0.039 0.183 0.108 0.246l4 3.667c0.064 0.059 0.145 0.087 0.225 0.087 0.090 0 0.18-0.037 0.246-0.108 0.125-0.136 0.115-0.347-0.021-0.471l-3.892-3.567z"></path>
</svg>
