<svg xmlns="http://www.w3.org/2000/svg" viewBox="0 0 16 16">
    <path d="M13.667 0H2.334c-.533 0-1 .467-1 1v14c0 .533.467 1 1 1h11.333c.2 0 .333-.133.333-.333V.334c0-.2-.133-.333-.333-.333zM3.333 15.333h-1C2.133 15.333 2 15.2 2 15V1c0-.2.133-.333.333-.333h1v14.667zm10 0H4V.666h9.333v14.667zm-3-9.133V4.733l-.6-.6H7.666v2.733h2.067l.6-.667zm-2-.067V4.8H9.4l.2.2v.867l-.2.2H8.333zm.534 3.334h-.533V8.334h2.467l1.467-1.467v-2.8L10.801 2.6H5.134v2.2h.533v4.667h-.533v2.2h3.733v-2.2zm-.734.733v.8H5.866v-.8h.533V4.133h-.533v-.867h4.667l1.133 1.133v2.133l-1.133 1.133H7.666v2.6h.467z"/>
</svg>
