<svg xmlns="http://www.w3.org/2000/svg" viewBox="0 0 16 16">
    <path d="M15.667 15.333H.334a.333.333 0 1 0 0 .666h15.333a.333.333 0 1 0 0-.666zM.333 14.667h15.333a.333.333 0 1 0 0-.666h-1v-1a.333.333 0 0 0-.333-.333H14V6.001h1a.333.333 0 0 0 .333-.333V4.401c.005-.022.013-.043.013-.066 0-.04-.022-.071-.035-.106-.003-.011-.006-.023-.011-.033a.304.304 0 0 0-.059-.087.315.315 0 0 0-.1-.073c-.009-.004-.014-.015-.025-.018L8.164.045a.332.332 0 0 0-.331 0l-7 4c-.017.009-.029.023-.043.035-.011.009-.023.017-.033.027a.34.34 0 0 0-.061.09c-.001.003-.004.005-.005.009a.336.336 0 0 0-.024.118l-.002.011v1.333c0 .184.149.333.333.333h1v6.667h-.333a.333.333 0 0 0-.333.333v1h-1a.333.333 0 1 0 0 .666zm13-2h-.667V6h.667v6.667zm-2.666 0V6H12v6.667h-1.333zm-1.334 0V6H10v6.667h-.667zm-2 0V6h1.333v6.667H7.333zm-1.333 0V6h.667v6.667H6zm-2 0V6h1.333v6.667H4zM8 .717L13.745 4H2.256L8.001.717zm-6.667 3.95h13.333v.667H1.333v-.667zM2.667 6h.667v6.667h-.667V6zM2 13.333h12V14H2v-.667z"/>
</svg>
