<svg viewBox="0 0 16 16" xmlns="http://www.w3.org/2000/svg">
    <path d="M2.333 12H0v3.667c0 .184.15.333.333.333h15.334c.184 0 .333-.15.333-.333V12H2.333zM.333 0A.333.333 0 0 0 0 .333v11h2.112C2.459 10.535 3.69 8 5.333 8 6.671 8 7.78 9.11 8.297 9.735l1.758-3.015c.576-.987 2.033-.957 2.552.083l2.266 4.53H16v-11A.333.333 0 0 0 15.667 0H.333zm6 6h-2A1.335 1.335 0 0 1 3 4.667a1.34 1.34 0 0 1 1.45-1.328A1.984 1.984 0 0 1 6.334 2c1.103 0 2 .897 2 2s-.897 2-2 2z"/>
    <path fill="none" d="M0 0h16v16H0z"/>
</svg>
