<svg xmlns="http://www.w3.org/2000/svg" viewBox="0 0 22 16">
    <path d="M21.219 11.346c-1.223 2.344-2.82 3.295-4.824 3.295-1.597 0-2.718-.747-3.499-2.072-.611-.951-.985-2.378-.985-4.518 0-.646.034-1.155.068-1.461h8.628c.578 0 .849 0 .985-.068.339-.102.476-.34.476-.917 0-1.155-.442-2.208-1.325-3.397C19.622.815 17.889.068 15.885.068c-1.789 0-3.432.668-4.743 1.948C10.345.676 8.673 0 6.148 0 4.245 0 2.887.441 1.732 1.189.951 1.733.373 2.548.373 3.533c0 1.393.679 2.072 2.038 2.072 1.257 0 1.936-.578 1.936-1.665 0-1.019-.408-1.325-.883-1.903.374-.544 1.393-.985 2.582-.985 1.257 0 2.344.645 2.65 1.325.068.645.102 2.038.102 3.465l-2.548.985c-2.174.815-3.974 1.664-4.994 2.616-.883.815-1.257 1.97-1.257 3.057 0 2.106 1.461 3.431 3.669 3.431 1.936 0 3.974-1.393 5.13-2.82h.02a.75.75 0 0 1 .615-.283c.062 0 .115.012.17.024.013 0 .024-.004.037-.004.157 0 .29.038.399.1.222.32.471.625.75.911 1.393 1.427 3.193 2.14 5.197 2.14 2.31 0 4.45-.917 5.605-2.82.408-.714.577-1.189.577-1.461-.17-.34-.543-.374-.951-.374zm-5.3-10.225c.883 0 1.529.306 2.14.917.509.51.815.985.815 1.801 0 .679-.17 1.019-.442 1.223-.068.068-.374.17-.713.204-.306 0-1.903.102-3.091.102h-2.514c0-2.14 1.597-4.246 3.805-4.246zM8.876 12.033a.694.694 0 0 1-.144.137.725.725 0 0 1-.176.159.72.72 0 0 1-.23.233c-.836.819-1.826 1.195-2.823 1.195-1.427 0-2.548-.951-2.548-2.344 0-1.359.917-2.548 3.703-3.669 1.092-.437 1.811-.672 2.158-.813-.064.469-.098.954-.098 1.459 0 .873.111 1.695.333 2.461l-.011.013.029.045c.037.124.077.246.119.367.027.284-.077.582-.311.757z"/>
</svg>
