<!-- Generated by IcoMoon.io -->
<svg version="1.1" xmlns="http://www.w3.org/2000/svg" width="16" height="16" viewBox="0 0 16 16">
<title>chat</title>
<path d="M8 0.584c-4.411 0-8 2.956-8 6.589 0 1.716 0.785 3.324 2.217 4.555l-1.607 3.207c-0.063 0.127-0.040 0.28 0.059 0.382 0.064 0.066 0.151 0.101 0.239 0.101 0.047 0 0.096-0.010 0.141-0.031l4.291-1.997c0.852 0.247 1.747 0.373 2.66 0.373 4.411 0 8-2.955 8-6.588s-3.589-6.589-8-6.589zM8 13.094c-0.892 0-1.763-0.127-2.589-0.38-0.079-0.024-0.164-0.019-0.238 0.017l-3.539 1.647 1.297-2.589c0.070-0.141 0.033-0.312-0.090-0.41-1.403-1.122-2.175-2.615-2.175-4.207 0-3.265 3.29-5.922 7.333-5.922s7.333 2.657 7.333 5.922c0 3.265-3.29 5.921-7.333 5.921z"></path>
<path d="M8.333 3.625c-1.287 0-2.333 1.065-2.333 2.375 0 0.184 0.149 0.333 0.333 0.333s0.333-0.149 0.333-0.333c0-0.926 0.763-1.709 1.667-1.709 0.919 0 1.667 0.739 1.667 1.647s-0.748 1.646-1.667 1.646c-0.184 0-0.333 0.149-0.333 0.333v0.833c0 0.184 0.149 0.333 0.333 0.333s0.333-0.149 0.333-0.333v-0.523c1.129-0.161 2-1.125 2-2.289 0-1.275-1.047-2.313-2.333-2.313z"></path>
<path d="M9 10.251c0 0.368-0.298 0.667-0.667 0.667s-0.667-0.298-0.667-0.667c0-0.368 0.298-0.667 0.667-0.667s0.667 0.298 0.667 0.667z"></path>
</svg>
