<!-- Generated by IcoMoon.io -->
<svg version="1.1" xmlns="http://www.w3.org/2000/svg" width="16" height="16" viewBox="0 0 16 16">
<title>windows</title>
<path d="M14.333 1.329h-12.667c-0.919 0-1.667 0.747-1.667 1.667v9.333c0 0.919 0.747 1.667 1.667 1.667h12.667c0.919 0 1.667-0.747 1.667-1.667v-9.333c0-0.919-0.747-1.667-1.667-1.667zM1.667 1.995h12.667c0.551 0 1 0.449 1 1v1.667h-14.667v-1.667c0-0.551 0.449-1 1-1zM14.333 13.329h-12.667c-0.551 0-1-0.449-1-1v-7h14.667v7c0 0.551-0.449 1-1 1z"></path>
<path d="M3.333 3.329c0 0.368-0.298 0.667-0.667 0.667s-0.667-0.298-0.667-0.667c0-0.368 0.298-0.667 0.667-0.667s0.667 0.298 0.667 0.667z"></path>
<path d="M5.333 3.329c0 0.368-0.298 0.667-0.667 0.667s-0.667-0.298-0.667-0.667c0-0.368 0.298-0.667 0.667-0.667s0.667 0.298 0.667 0.667z"></path>
<path d="M7.333 3.329c0 0.368-0.298 0.667-0.667 0.667s-0.667-0.298-0.667-0.667c0-0.368 0.298-0.667 0.667-0.667s0.667 0.298 0.667 0.667z"></path>
</svg>
