<svg xmlns="http://www.w3.org/2000/svg" viewBox="0 0 236.204 34.282"><defs><style>.a{fill:none;}.b{fill:#fbfbfb;}.c{fill:#fff;}</style></defs><title>PUsig1-bw-wns</title><rect class="a" width="236.204" height="34.282"/><path class="b" d="M145.041,21.62a.424.424,0,0,0-.039-.184h-.3c-.658,0-1.078.026-2.263.026-.408,0-1.012-.026-1.158-.026h-.342c-.04.026-.053.17-.053.223a.345.345,0,0,0,.066.225,5.509,5.509,0,0,1,1.356.381,2.583,2.583,0,0,1,.381,1.341c.013.2.027.395.027.936v2.75a4.8,4.8,0,0,1-.027.566c-.223-.25-.539-.724-1.065-1.316l-4.4-4.869a.95.95,0,0,0-.2-.172c-.106,0-.29-.012-.395-.012-.842,0-2.368-.041-2.592-.041a.5.5,0,0,0-.053.186,2.009,2.009,0,0,0,.04.25,1.794,1.794,0,0,1,.987.5,4.384,4.384,0,0,1,.7.83,1.169,1.169,0,0,1,.052.42c0,.683-.039,1.644-.039,2.566v2.67a5.767,5.767,0,0,1-.08,1,2.74,2.74,0,0,1-1.381.672.755.755,0,0,0-.052.236c0,.039.013.172.039.186h.25c.263,0,.869-.039,1.263-.039.579,0,.973.039,1.513.039h.789c.054-.014.066-.172.066-.225a.6.6,0,0,0-.038-.211,2.515,2.515,0,0,1-1.579-.814,7.344,7.344,0,0,1-.172-1.633c0-.422-.014-1-.014-1.775,0-1.041.014-1.95.027-2.408.079.091.171.208.237.288l6.08,6.831a.766.766,0,0,0,.367.078.291.291,0,0,0,.158-.028,1.445,1.445,0,0,0,.119-.591c0-.381-.012-.776-.012-.973V24.015c0-1.645.776-2.106,1.684-2.145a.584.584,0,0,0,.051-.25m-15.08,4.186c0,1.986-.551,3.736-1.3,4.355a2.14,2.14,0,0,1-1.395.473,1.97,1.97,0,0,1-1.75-.881,7.006,7.006,0,0,1-.778-3.422c0-1.83.474-3.264,1.317-3.961a2.093,2.093,0,0,1,1.368-.514,2.189,2.189,0,0,1,1.789.909,5.071,5.071,0,0,1,.75,3.041m2.383.25A4.411,4.411,0,0,0,130,21.964a5.086,5.086,0,0,0-2.5-.674,5.357,5.357,0,0,0-4.436,2.449A5.032,5.032,0,0,0,122.3,26.4a4.722,4.722,0,0,0,4.881,4.8,5.454,5.454,0,0,0,2-.383,4.7,4.7,0,0,0,1.83-1.25,5.086,5.086,0,0,0,1.329-3.511M120.777,24.4V21.712c0-.2-.078-.25-.277-.25-.395,0-2.474.053-4.578.053-1.633,0-2.987-.026-3.725-.026h-.973c-.171,0-.224.039-.224.223v2.514a.39.39,0,0,0,.211.052,1.05,1.05,0,0,0,.289-.027,4.42,4.42,0,0,1,1.843-2.2c.393-.041,1.171-.055,1.381-.055.013.147.026.605.04,1.158.012.947.012,1.356.012,3.592,0,1.935-.012,2.805-.039,3.016-.052.367.013.644-1.565.709a.741.741,0,0,0-.041.3,1.15,1.15,0,0,0,.013.211h.514c.486,0,1.631-.053,2.106-.053.381,0,1.605.04,2.408.04h.369a.673.673,0,0,0,.039-.276.467.467,0,0,0-.054-.236,2.736,2.736,0,0,1-1.354-.25,4.135,4.135,0,0,1-.118-.988c-.015-1.42-.028-1.959-.028-2.909,0-1.222.013-2.052.013-4.328.186,0,.606-.013,1,0a2.574,2.574,0,0,1,1.566,1,6.639,6.639,0,0,1,.7,1.434.635.635,0,0,0,.223.027.733.733,0,0,0,.25-.052m-11.342,4.277a2.722,2.722,0,0,0-.015-.383.284.284,0,0,0-.2-.041,1.053,1.053,0,0,0-.29.027,5.049,5.049,0,0,1-1.448,2.014,2.022,2.022,0,0,1-.986.144h-1.08a4.721,4.721,0,0,1-.867-.066c-.2-.039-.409-.353-.5-.564a1.393,1.393,0,0,1-.144-.83V26.1h.486a2.074,2.074,0,0,1,.8.183,1.222,1.222,0,0,1,.592.553,4.628,4.628,0,0,1,.224,1.094.9.9,0,0,0,.341.051.451.451,0,0,0,.265-.067c0-.353-.08-1.314-.08-1.842,0-.658.092-1.566.131-2.039a.55.55,0,0,0-.262-.052.992.992,0,0,0-.343.039c-.04.185-.184.736-.211.777a1.6,1.6,0,0,1-.895.684,3.376,3.376,0,0,1-.762.105h-.277V24.356c0-1.261.027-1.67.039-1.908.015-.158.041-.328.054-.447a5.976,5.976,0,0,1,.79-.025c.762,0,1.117.013,1.236.013a1.5,1.5,0,0,1,.842.262,5.618,5.618,0,0,1,1.263,1.633,1.086,1.086,0,0,0,.276.025c.08,0,.093-.025.2-.078,0-.8-.054-1.842-.08-2.172-.013-.131-.039-.17-.3-.17-.105,0-.605-.027-1.132-.027-.75,0-1.051.014-2.2.014-.619,0-1.895.013-2.435.013-.789,0-1.46-.027-1.8-.027h-.447a.446.446,0,0,0-.067.211.6.6,0,0,0,.067.263,6.627,6.627,0,0,1,.961.145,1.085,1.085,0,0,1,.474.855c.026.278.039,1.04.039,1.645v2.711c0,.553-.013,1.355-.027,1.684a3.771,3.771,0,0,1-.289,1.25,3.508,3.508,0,0,1-1.184.2.732.732,0,0,0-.066.289.477.477,0,0,0,.066.236h.434c.421,0,1.973-.039,2.328-.039.33,0,.961.025,1.725.025.42,0,1.658.081,4.316.081a1.15,1.15,0,0,0,.355-.028.415.415,0,0,0,.053-.211c.027-.261.027-1.039.027-2.1M98.3,29.134a.439.439,0,0,0-.447-.317c-.027,0-.066.014-.092.014a3.1,3.1,0,0,1-2.646,1.539,2.88,2.88,0,0,1-2.658-1.736,7.284,7.284,0,0,1-.407-2.395,5.8,5.8,0,0,1,.393-2.3c.58-1.527,1.422-2,2.449-2A2.692,2.692,0,0,1,97,23.12a5.87,5.87,0,0,1,.672,1.594,1.381,1.381,0,0,0,.289.037.658.658,0,0,0,.316-.117c-.012-.145-.144-1.158-.144-1.475,0-.394.1-1.039.1-1.289a1.061,1.061,0,0,0-.512-.144,2.621,2.621,0,0,0-.448.539,4.33,4.33,0,0,0-2.92-.934,4.493,4.493,0,0,0-3.3,1.3,5,5,0,0,0-1.408,3.711A4.812,4.812,0,0,0,91.5,30.278a5.23,5.23,0,0,0,3.067.883,4.082,4.082,0,0,0,3.369-1.408,2.607,2.607,0,0,0,.368-.619M88.065,21.62a.411.411,0,0,0-.041-.184h-.3c-.658,0-1.079.026-2.263.026-.408,0-1.014-.026-1.158-.026h-.342c-.039.026-.053.17-.053.223a.35.35,0,0,0,.066.225,5.5,5.5,0,0,1,1.354.381,2.564,2.564,0,0,1,.383,1.341c.013.2.025.395.025.936v2.75a4.937,4.937,0,0,1-.025.566c-.225-.25-.539-.724-1.066-1.316l-4.395-4.869a.942.942,0,0,0-.2-.172c-.106,0-.29-.012-.395-.012-.842,0-2.369-.041-2.592-.041a.485.485,0,0,0-.053.186,1.838,1.838,0,0,0,.04.25,1.8,1.8,0,0,1,.986.5,4.377,4.377,0,0,1,.7.83,1.165,1.165,0,0,1,.053.42c0,.683-.039,1.644-.039,2.566v2.67a5.668,5.668,0,0,1-.08,1,2.736,2.736,0,0,1-1.381.672.786.786,0,0,0-.053.236c0,.039.014.172.039.186h.25c.264,0,.87-.039,1.264-.039.58,0,.974.039,1.514.039h.789c.053-.014.066-.172.066-.225a.6.6,0,0,0-.039-.211,2.52,2.52,0,0,1-1.58-.814,7.421,7.421,0,0,1-.17-1.633c0-.422-.015-1-.015-1.775,0-1.041.015-1.95.027-2.408.08.091.172.208.238.288L85.7,31.017a.771.771,0,0,0,.369.078.293.293,0,0,0,.158-.028,1.488,1.488,0,0,0,.118-.591c0-.381-.012-.776-.012-.973V24.015c0-1.645.776-2.106,1.684-2.145a.572.572,0,0,0,.053-.25M75.049,30.739a.862.862,0,0,0-.038-.263,8.907,8.907,0,0,1-.974-.118,2.074,2.074,0,0,1-.447-1.013c-.014-.631-.028-1.936-.028-3.159V22.948a1.047,1.047,0,0,1,.237-.709,2.206,2.206,0,0,1,1.172-.341.82.82,0,0,0,.04-.25.389.389,0,0,0-.067-.212h-.38c-.553,0-1.843.065-2.291.065-.275,0-1.566-.039-2.144-.053h-.291a.333.333,0,0,0-.065.225,2.006,2.006,0,0,0,.026.25,2.836,2.836,0,0,1,1.027.183,1.464,1.464,0,0,1,.435,1.12c.012.25.026.789.038,2,.013.658.027,1.58.027,2.341,0,.383-.027,1.239-.039,1.7a2.254,2.254,0,0,1-.185.789c-.158.13-.315.369-1.276.433a.987.987,0,0,0-.039.278c0,.1.025.158.025.222h.225c.525,0,1.842-.064,2.525-.064.2,0,1.567.039,2,.039H75a.512.512,0,0,0,.051-.225M64.5,23.87a2.049,2.049,0,0,1-1.2,1.908,4.347,4.347,0,0,1-1.079.106,3.225,3.225,0,0,1-.487-.026l-.013-1.119V22.317a.419.419,0,0,1,.079-.289,1.316,1.316,0,0,1,.553-.08c1.025,0,1.474.092,1.841.711a2.332,2.332,0,0,1,.3,1.211m3.816,6.883a.631.631,0,0,0-.066-.277,2.035,2.035,0,0,1-.867-.17,3,3,0,0,1-.225-.33,13.7,13.7,0,0,0-.566-1.512,4.916,4.916,0,0,0-.973-1.566,4.035,4.035,0,0,0-.986-.434c-.211-.08-.383-.147-.541-.213.2-.037.291-.051.541-.078a2.333,2.333,0,0,0,1.447-.487,2.073,2.073,0,0,0,.816-1.71,2.527,2.527,0,0,0-1.646-2.395,6.434,6.434,0,0,0-1.578-.145c-.987,0-2.369.092-3.027.092-.2,0-1.342-.027-1.8-.027-.2,0-.7-.025-.777-.025a.808.808,0,0,0-.065.25,1.522,1.522,0,0,0,.027.238c.223.025.63.076.842.117a1.546,1.546,0,0,1,.553.711c.064.422.078,1.5.078,3.356,0,1.341.014,2.894-.053,3.394a1.009,1.009,0,0,1-.54.883c-.171.025-.485.078-.75.092a.66.66,0,0,0-.065.261.819.819,0,0,0,.053.211c.183,0,2.2-.039,2.619-.039.842,0,1.552.039,2.3.039a.557.557,0,0,0,.053-.2.78.78,0,0,0-.053-.275c-.263-.028-.592-.106-.736-.133a.985.985,0,0,1-.566-.934l-.014-3.041c.106-.011.237-.011.342-.011a1.305,1.305,0,0,1,.7.21,2.515,2.515,0,0,1,1.041.959,8.048,8.048,0,0,1,.828,2.83c.039.278.145.514.4.539.1.014.8.04,1.3.04h1.881a.348.348,0,0,0,.079-.223M54.023,23.936a2.152,2.152,0,0,1-.672,1.645,2.129,2.129,0,0,1-1.369.355,4.3,4.3,0,0,1-.566-.027c-.1-.011-.17-.025-.17-.092l.012-3.853a5.323,5.323,0,0,1,.763-.066c.895,0,1.449.222,1.711.775a2.8,2.8,0,0,1,.291,1.263m2.354.053A2.525,2.525,0,0,0,54.97,21.7a6.61,6.61,0,0,0-2.355-.3c-1.014,0-2.594.078-3.291.078-.486,0-1.223-.053-1.632-.053a.489.489,0,0,0-.065.211.657.657,0,0,0,.039.264c.25.078.658.142.922.208a1.137,1.137,0,0,1,.354.75c.04.461.066,1.042.066,2.042,0,2.775-.012,4.236-.053,4.552a1.116,1.116,0,0,1-.75.934,7.5,7.5,0,0,1-.763.133,1.476,1.476,0,0,0-.026.275.36.36,0,0,0,.039.184c.422,0,1.658-.051,2.133-.051,1.17,0,2.369.051,2.854.051h.329a.369.369,0,0,0,.04-.209.669.669,0,0,0-.026-.239,2.147,2.147,0,0,1-1.236-.42,1.12,1.12,0,0,1-.264-.777l-.039-2.895c.789.053,1.631.081,2.092.081a4.975,4.975,0,0,0,1.527-.239,2.412,2.412,0,0,0,1.512-2.289" transform="translate(-21.149 -9.122)"/><path class="b" d="M247.369,21.515c0-.079-.053-.106-.079-.159-.54,0-1.25.042-1.526.042-.671,0-1.488-.053-1.843-.053-.038.078-.052.091-.052.158a.52.52,0,0,0,.026.156c.381.08.934.172,1.04.356a.955.955,0,0,1,.119.513,1.314,1.314,0,0,1-.079.487c-.119.33-.37.841-.725,1.566-.6,1.225-.986,1.986-1.2,2.289-.343-.578-1.107-2.105-1.29-2.5l-.738-1.605a1.2,1.2,0,0,1-.051-.356.882.882,0,0,1,.051-.342c.119-.236.528-.261,1.079-.328a.546.546,0,0,0,.04-.2c0-.092-.04-.064-.079-.131h-.237c-.882,0-.619.039-2.132.039-.644,0-1.421-.039-1.526-.039-.053.094-.078.106-.078.2a.286.286,0,0,0,.051.159c.882.211,1.145.369,1.237.541l2.3,4.511a5.152,5.152,0,0,1,.42.989,7.313,7.313,0,0,1,.106,1.578,1.114,1.114,0,0,1-.422,1.013,6.077,6.077,0,0,1-1.052.17.32.32,0,0,0-.066.186.581.581,0,0,0,.039.158c.673,0,1.369-.014,1.765-.014.275,0,.7.014,1.473.028.447.011.789.025,1.027.025a.4.4,0,0,0,.065-.172.289.289,0,0,0-.053-.17,3.176,3.176,0,0,1-1.144-.263,1.015,1.015,0,0,1-.343-.842l-.1-1.975a.79.79,0,0,1,.052-.314,1.9,1.9,0,0,1,.146-.369l2.026-4.014a2.733,2.733,0,0,1,.842-.883,3.776,3.776,0,0,1,.855-.262.473.473,0,0,0,.053-.171m-10.632,2.711V21.673c0-.2-.079-.25-.277-.25-.4,0-2.21.053-4.316.053-1.631,0-2.724-.028-3.46-.028h-.974c-.172,0-.224.041-.224.225v2.383a.229.229,0,0,0,.158.05.358.358,0,0,0,.159-.025c.512-1.145.775-1.75,1.657-2.2.394-.039,1.776-.053,1.987-.053.013.145.027.605.039,1.158.013.947.013,1.459.013,3.7,0,1.934-.013,2.934-.039,3.145-.053.369.014.645-1.566.711a.42.42,0,0,0-.04.225.623.623,0,0,0,.014.158h.513c.487,0,1.132-.055,1.6-.055.382,0,1.107.041,1.908.041h.37a.362.362,0,0,0,.039-.2.311.311,0,0,0-.053-.186,2.711,2.711,0,0,1-1.356-.25,4.083,4.083,0,0,1-.118-.986c-.012-1.422-.027-2.092-.027-3.039,0-1.225.015-2.158.015-4.436.183,0,1.157-.011,1.551,0a2.377,2.377,0,0,1,1.488,1,4.257,4.257,0,0,1,.591,1.436.548.548,0,0,0,.2.025.238.238,0,0,0,.144-.052m-10.934,6.5a.436.436,0,0,0-.04-.184c-.2-.014-.738-.066-.975-.117a2.082,2.082,0,0,1-.446-1.016c-.014-.631-.027-2.064-.027-3.289V22.778a1.044,1.044,0,0,1,.238-.711,2.241,2.241,0,0,1,1.171-.341.432.432,0,0,0,.039-.17.211.211,0,0,0-.067-.158h-.381c-.552,0-1.341.064-1.79.064-.276,0-1.066-.039-1.645-.053h-.288a.191.191,0,0,0-.067.172.865.865,0,0,0,.027.172,2.827,2.827,0,0,1,1.026.183,1.46,1.46,0,0,1,.435,1.12c.012.25.025.92.039,2.13.013.659.026,1.553.026,2.317,0,.381-.026,1.367-.04,1.828a2.212,2.212,0,0,1-.184.789c-.158.133-.316.369-1.276.436a.529.529,0,0,0-.04.2c0,.105.026.105.026.172h.224c.526,0,1.342-.067,2.027-.067.2,0,1.066.039,1.5.039h.434a.328.328,0,0,0,.054-.171m-6.5-2.42a2.445,2.445,0,0,0-1.488-2.317,7.162,7.162,0,0,0-1.46-.525,9.659,9.659,0,0,1-1.908-.725,1.574,1.574,0,0,1-.777-1.433,1.742,1.742,0,0,1,1.856-1.541,2.2,2.2,0,0,1,1.8.921,6.774,6.774,0,0,1,.817,1.5.512.512,0,0,0,.131.028.419.419,0,0,0,.289-.133,10.515,10.515,0,0,1-.1-1.183,6.993,6.993,0,0,1,.118-1.028.4.4,0,0,0-.393-.184,2.927,2.927,0,0,0-.514.473,3.292,3.292,0,0,0-2.236-.814,2.574,2.574,0,0,0-2.778,2.511,2.647,2.647,0,0,0,.488,1.45,2.847,2.847,0,0,0,1.275.959c.383.158,2.094.671,2.329.763,1.054.408,1.448.764,1.448,1.7a2.059,2.059,0,0,1-.579,1.33,1.84,1.84,0,0,1-1.461.619,2.956,2.956,0,0,1-2.21-.975,6.248,6.248,0,0,1-.894-1.777.476.476,0,0,0-.185-.025.464.464,0,0,0-.251.078c0,.171.053,1.041.053,1.3a5.309,5.309,0,0,1-.145,1.172.507.507,0,0,0,.421.264,1.917,1.917,0,0,1,.658-.422.628.628,0,0,1,.316.117,3.788,3.788,0,0,0,2.2.658c1.856,0,3.185-.933,3.185-2.761m-11.646-4.541a2.126,2.126,0,0,1-1.448,1.961,7.063,7.063,0,0,1-1.368.105c-.157,0-.606,0-.8-.025l-.013-1.158V22.159c0-.17.039-.261.092-.3a4.372,4.372,0,0,1,.921-.078c1.237,0,1.8.12,2.25.762a2.082,2.082,0,0,1,.369,1.225m2.763,6.974a.347.347,0,0,0-.066-.2,2,2,0,0,1-.868-.172,2.7,2.7,0,0,1-.223-.328,17.16,17.16,0,0,0-.554-1.645,4.91,4.91,0,0,0-.973-1.566,3.655,3.655,0,0,0-.948-.433c-.21-.081-.381-.145-.539-.212a5.058,5.058,0,0,1,.539-.078,2.412,2.412,0,0,0,1.4-.488,2.094,2.094,0,0,0,.868-1.7,2.514,2.514,0,0,0-1.645-2.383,6.482,6.482,0,0,0-1.579-.142c-.987,0-1.724.091-2.382.091-.2,0-.842-.027-1.3-.027-.2,0-.7-.026-.777-.026-.04.092-.065.12-.065.17a.876.876,0,0,0,.025.184c.225.027.632.08.842.119a1.574,1.574,0,0,1,.554.711c.065.42.079,1.606.079,3.461,0,1.342.012,3.027-.054,3.527a1,1,0,0,1-.539.881,7.491,7.491,0,0,1-.75.092.346.346,0,0,0-.065.186.536.536,0,0,0,.052.158c.184,0,1.7-.041,2.118-.041.842,0,1.053.041,1.8.041a.333.333,0,0,0,.053-.147.385.385,0,0,0-.053-.2c-.263-.025-.592-.105-.737-.131a.988.988,0,0,1-.566-.933l-.012-3.291c.1-.012.486-.012.592-.012a2.423,2.423,0,0,1,1.052.184,2.957,2.957,0,0,1,1.29,1.066,8.217,8.217,0,0,1,.829,2.867c.039.277.144.514.394.539a4.752,4.752,0,0,0,.765.041h1.367a.227.227,0,0,0,.079-.172m-11.04-2a3.137,3.137,0,0,0-.013-.381.288.288,0,0,0-.2-.041.367.367,0,0,0-.171.028,3.48,3.48,0,0,1-1.354,2.013,2.485,2.485,0,0,1-1.12.145H195.05a5.729,5.729,0,0,1-.868-.067c-.2-.039-.409-.355-.5-.566a1.717,1.717,0,0,1-.146-.906v-3h.421a2.587,2.587,0,0,1,1.119.184,1.583,1.583,0,0,1,.71.566,4.559,4.559,0,0,1,.186,1.092.331.331,0,0,0,.21.052.311.311,0,0,0,.211-.066c0-.356-.08-1.316-.08-1.842,0-.658.092-1.461.131-1.935a.34.34,0,0,0-.21-.051.386.386,0,0,0-.211.039c-.039.183-.145.736-.171.775a1.9,1.9,0,0,1-1.013.7,4.172,4.172,0,0,1-1.078.105h-.211V24.292c0-1.264.026-1.777.039-2.014.013-.158.039-.33.053-.447.119-.014.5-.025,1.105-.025.764,0,1.329.011,1.447.011a1.5,1.5,0,0,1,.842.264,3.332,3.332,0,0,1,1.172,1.633.379.379,0,0,0,.157.025c.079,0,.093-.025.2-.08,0-.8-.052-1.711-.079-2.039-.012-.131-.04-.172-.3-.172-.106,0-.606-.025-1.131-.025-.75,0-1.054.013-2.2.013-.618,0-1.71.012-2.25.012-.79,0-.96-.025-1.3-.025h-.448a.271.271,0,0,0-.066.158.309.309,0,0,0,.066.184,6.727,6.727,0,0,1,.96.144c.185.158.356.2.474.83.026.276.04,1.17.04,1.776v2.711c0,.552-.014,1.46-.026,1.791a4,4,0,0,1-.289,1.275,3.436,3.436,0,0,1-1.186.2.434.434,0,0,0-.064.211.32.32,0,0,0,.064.184h.436c.421,0,1.473-.039,1.828-.039.329,0,.776.025,1.539.025.422,0,1.658.08,4.317.08a1.15,1.15,0,0,0,.356-.025.433.433,0,0,0,.051-.211c.027-.264.027-.908.027-1.975m-9.737-7.183c0-.053-.014-.133-.067-.147h-.447c-.316,0-.816.027-1.04.027-1.065,0-1.446-.066-1.6-.066h-.237c-.025.066-.065.106-.065.17s.026.094.026.146a4.723,4.723,0,0,1,.908.2,1.229,1.229,0,0,1,.329.83,5,5,0,0,1-.316,1.2L185.01,29.12,182.4,22.528a.987.987,0,0,1,.434-.738,6.019,6.019,0,0,1,.855-.1.45.45,0,0,0,.053-.183c0-.055-.013-.133-.065-.147h-.329c-.409,0-1.027.053-1.725.053-.3,0-.894-.025-1.473-.025h-.513a.272.272,0,0,0-.053.156.283.283,0,0,0,.039.158,4.471,4.471,0,0,1,1.106.45,23.015,23.015,0,0,1,1.079,2.394l1.092,2.631c.908,2.185,1.448,3.644,1.513,3.894.066.041,0,.08.118.08s.107-.027.132-.091l3.4-8.158a2.579,2.579,0,0,1,.474-.75,2.062,2.062,0,0,1,1.052-.422.639.639,0,0,0,.054-.17m-11.528,9.17a.407.407,0,0,0-.039-.184c-.2-.014-.737-.066-.973-.117a2.074,2.074,0,0,1-.449-1.016c-.012-.631-.026-2.064-.026-3.289V22.778a1.055,1.055,0,0,1,.237-.711,2.241,2.241,0,0,1,1.171-.341.417.417,0,0,0,.04-.17.222.222,0,0,0-.065-.158h-.383c-.553,0-1.342.064-1.789.064-.277,0-1.066-.039-1.645-.053h-.29a.193.193,0,0,0-.066.172,1.04,1.04,0,0,0,.027.172,2.829,2.829,0,0,1,1.027.183,1.454,1.454,0,0,1,.433,1.12c.014.25.028.92.04,2.13.013.659.027,1.553.027,2.317,0,.381-.027,1.367-.039,1.828a2.229,2.229,0,0,1-.186.789c-.156.133-.314.369-1.275.436a.509.509,0,0,0-.039.2c0,.105.025.105.025.172h.225c.525,0,1.341-.067,2.025-.067.2,0,1.066.039,1.5.039h.434a.308.308,0,0,0,.053-.171m-5.948-9.2a.217.217,0,0,0-.039-.13h-.3c-.658,0-.947.025-2.132.025-.408,0-1.012-.025-1.158-.025h-.342c-.039.025-.051.117-.051.169a.167.167,0,0,0,.064.145,5.6,5.6,0,0,1,1.356.383,2.553,2.553,0,0,1,.381,1.341c.013.2.028.395.028.934v3.908a4.753,4.753,0,0,1-.028.567c-.222-.25-.605-.737-1.118-1.342L163.8,21.634a.837.837,0,0,0-.2-.172c-.107,0-.238-.014-.342-.014-.844,0-1.579-.039-1.8-.039a.272.272,0,0,0-.04.131,1.009,1.009,0,0,0,.027.172,2.272,2.272,0,0,1,1.013.369,4,4,0,0,1,.646.775,1.2,1.2,0,0,1,.051.422c0,.686-.039,1.936-.039,2.856v2.8a5.9,5.9,0,0,1-.079,1,2.752,2.752,0,0,1-1.382.672.38.38,0,0,0-.051.159c0,.039.012.117.039.13h.25c.262,0,.869-.039,1.262-.039.579,0,.842.039,1.382.039h.79c.052-.013.066-.119.066-.171a.267.267,0,0,0-.039-.131,2.537,2.537,0,0,1-1.58-.817,7.8,7.8,0,0,1-.17-1.658c0-.42-.014-1.105-.014-1.881,0-1.039.014-2.474.026-2.933.079.092.2.236.289.342l6.239,7.3a.178.178,0,0,0,.158.078c.064,0,.025,0,.078-.025a2.043,2.043,0,0,0,.065-.594c0-.381-.012-.775-.012-.973V23.845c0-1.647.776-2.106,1.684-2.147a.283.283,0,0,0,.052-.17m-12.185.067a.271.271,0,0,0-.066-.172h-.381c-.408,0-.961.025-1.434.025-.527,0-1.119-.025-1.5-.025h-.475a.324.324,0,0,0-.052.172.458.458,0,0,0,.039.17c.054,0,1.015.013,1.185.25a3.247,3.247,0,0,1,.513.974,8.554,8.554,0,0,1,.106,1.447c0,1.12,0,1.87-.014,2.264a7.064,7.064,0,0,1-.236,1.75,2.407,2.407,0,0,1-2.58,1.709,3.616,3.616,0,0,1-1.539-.328,2.225,2.225,0,0,1-1.277-1.658l-.066-3.947-.013-1.606c0-.3.382-.58.513-.736a6.038,6.038,0,0,1,1.013-.131.381.381,0,0,0,.066-.186.22.22,0,0,0-.092-.169l-.5.011c-.487.014-1.131.027-1.54.027-.631,0-1.118-.013-1.512-.013h-.553a.225.225,0,0,0-.066.183.212.212,0,0,0,.052.159c.421.052.7.091.882.133a1.1,1.1,0,0,1,.462.578c.012.172.038.591.038,1.422v3.158a7.979,7.979,0,0,0,.132,1.761,2.607,2.607,0,0,0,1.144,1.619,4.31,4.31,0,0,0,2.409.631,4.529,4.529,0,0,0,2.263-.539,2.689,2.689,0,0,0,1.3-1.75,6.005,6.005,0,0,0,.21-1.564V24.686c0-.472.026-1.066.026-1.3a2.67,2.67,0,0,1,.4-1.448,5.349,5.349,0,0,1,1.093-.183.34.34,0,0,0,.052-.158" transform="translate(-21.149 -9.122)"/><path class="c" d="M35.781,22.354a.08.08,0,0,0-.072.046l-.152.34-.012,0c-.005,0-.011,0-.015-.015a1.574,1.574,0,0,0-.061-.151l-.049-.111c-.018-.041-.032-.069-.036-.076a.074.074,0,0,0-.065-.037l0-.01,0-.01h.1l.095,0h.016l0,.009,0,.01c-.017,0-.059,0-.059.028a.064.064,0,0,0,0,.022l.1.238.083-.2a.114.114,0,0,0,.012-.051c0-.023-.016-.032-.058-.037l0-.01,0-.011h.012c.019,0,.037,0,.079,0h.079l0,.009Z" transform="translate(-21.149 -9.122)"/><path class="c" d="M36.2,22.733c-.121,0-.186,0-.2,0h-.057l-.1,0H35.82v-.02a.131.131,0,0,0,.062-.013c.007-.007.011-.025.013-.061v-.059c0-.031,0-.068,0-.113V22.4c0-.044-.022-.044-.068-.049l0-.01,0-.011h.153l.152,0h.042c.009,0,.013,0,.013.01l0,.09-.011,0-.009,0a.206.206,0,0,0-.061-.069.066.066,0,0,0-.035-.01h-.054a.249.249,0,0,0-.044,0c-.005,0,0,0-.006.015s0,.027,0,.08v.053h.013a.183.183,0,0,0,.046,0,.076.076,0,0,0,.041-.029l.009-.033.013,0,.011.005a.739.739,0,0,0,0,.085c0,.019,0,.062,0,.08a.021.021,0,0,1-.012,0l-.011,0c0-.034-.009-.057-.038-.069A.1.1,0,0,0,36,22.528l-.027,0v.105a.128.128,0,0,0,.006.048c0,.007.011.021.023.022s.017,0,.037,0h.058a.137.137,0,0,0,.044-.006.233.233,0,0,0,.063-.086l.013,0,.012,0v.108C36.226,22.731,36.219,22.733,36.2,22.733Z" transform="translate(-21.149 -9.122)"/><path class="c" d="M36.685,22.459l-.01,0a.29.29,0,0,0-.03-.059.1.1,0,0,0-.074-.039h-.039v.176c0,.027,0,.061,0,.121s.022.048.07.053l0,.013,0,.008h-.118l-.1,0s0,0,0-.009l0-.012c.064-.005.07-.017.072-.037s0-.066,0-.119v-.147a.227.227,0,0,0,0-.048.409.409,0,0,0-.061,0,.163.163,0,0,0-.081.089l-.01,0-.01,0v-.1c0-.009,0-.011.013-.011h.188c.1,0,.168,0,.187,0a.034.034,0,0,1,.019,0v.117A.011.011,0,0,1,36.685,22.459Z" transform="translate(-21.149 -9.122)"/><path class="c" d="M35.762,23.086l-.013,0a.2.2,0,0,0-.029-.059.1.1,0,0,0-.075-.039h-.039v.176c0,.028,0,.062,0,.121s.023.048.071.053l0,.013,0,.008H35.66l-.1,0-.1,0,0-.009,0-.012c.064,0,.07-.017.073-.036s0-.067,0-.12v-.147a.233.233,0,0,0,0-.048.333.333,0,0,0-.063,0,.155.155,0,0,0-.079.088l-.012,0-.009,0v-.1c0-.01,0-.012.012-.012h.19c.095,0,.167,0,.185,0s.017,0,.019,0v.118Z" transform="translate(-21.149 -9.122)"/><path class="c" d="M36.219,23.36c-.12,0-.187,0-.2,0h-.059c-.016,0-.056,0-.1,0h-.023l0-.007,0-.013a.1.1,0,0,0,.059-.013c.008-.007.012-.024.014-.06,0-.019,0-.039,0-.06s0-.067,0-.113v-.062c0-.045-.021-.045-.067-.049l0-.011.005-.011H36l.152,0h.042c.009,0,.013,0,.013.01l0,.09-.011,0h-.009a.2.2,0,0,0-.061-.071.076.076,0,0,0-.034-.01h-.055a.269.269,0,0,0-.044,0c-.006,0-.005,0-.007.015s0,.028,0,.081v.052H36a.172.172,0,0,0,.046,0,.087.087,0,0,0,.042-.028.284.284,0,0,0,.008-.034l.013,0,.011,0c0,.017-.005.047-.005.086,0,.02,0,.062,0,.079l-.011,0-.012,0c0-.034-.008-.057-.038-.069a.1.1,0,0,0-.043-.008h-.028v.106a.16.16,0,0,0,.005.047c0,.007.013.021.025.022a.181.181,0,0,0,.037,0h.057a.1.1,0,0,0,.043-.007.219.219,0,0,0,.065-.085.022.022,0,0,1,.013,0l.01,0v.107C36.24,23.358,36.233,23.36,36.219,23.36Z" transform="translate(-21.149 -9.122)"/><path class="c" d="M36.5,23.369a.254.254,0,0,1-.093-.024l-.014,0a.1.1,0,0,0-.031.014c-.008,0-.02,0-.022-.011s.007-.034.007-.049,0-.054,0-.066a.026.026,0,0,1,.017-.007h.007c.009.015.026.058.037.077a.127.127,0,0,0,.089.042.092.092,0,0,0,.065-.02.058.058,0,0,0,.022-.049.057.057,0,0,0-.011-.036.1.1,0,0,0-.042-.029c-.017-.009-.079-.024-.1-.035a.165.165,0,0,1-.056-.04.128.128,0,0,1-.023-.073.113.113,0,0,1,.123-.112.145.145,0,0,1,.1.027.261.261,0,0,1,.024-.022.022.022,0,0,1,.021.01.511.511,0,0,0-.006.055c0,.01.006.052.006.059a.038.038,0,0,1-.016.006l-.007,0c-.011-.02-.022-.053-.033-.07a.092.092,0,0,0-.08-.035.067.067,0,0,0-.073.06c0,.033.028.049.049.06s.037.014.061.021a.618.618,0,0,1,.064.025.108.108,0,0,1,.066.105A.13.13,0,0,1,36.5,23.369Z" transform="translate(-21.149 -9.122)"/><path class="c" d="M35.923,23.988c-.121,0-.188,0-.2,0h-.058l-.1,0h-.025l0-.008v-.011a.057.057,0,0,0,.074-.074c0-.019,0-.04,0-.06s0-.067,0-.113v-.062c0-.045-.022-.045-.067-.05l0-.01,0-.01h.346c.009,0,.013,0,.013.01l.005.091-.011,0h-.008a.187.187,0,0,0-.061-.069.072.072,0,0,0-.035-.011h-.054a.294.294,0,0,0-.046,0s0,0,0,.015,0,.028,0,.081v.052H35.7a.175.175,0,0,0,.045,0,.069.069,0,0,0,.041-.029.143.143,0,0,0,.01-.033l.012,0,.01,0c0,.016,0,.046,0,.085v.079a.011.011,0,0,1-.01,0l-.011,0c0-.034-.01-.056-.038-.069a.122.122,0,0,0-.045-.008l-.026,0v.1a.165.165,0,0,0,0,.047c0,.007.013.021.025.022a.181.181,0,0,0,.037,0h.057a.1.1,0,0,0,.043-.007.211.211,0,0,0,.065-.085l.012,0,.012,0v.106C35.944,23.986,35.938,23.988,35.923,23.988Z" transform="translate(-21.149 -9.122)"/><path class="c" d="M36.506,23.607c-.04,0-.075.024-.075.089V23.9c0,.008,0,.066,0,.088a.029.029,0,0,1-.017.007l-.01-.007-.282-.3,0,.063v.111a.453.453,0,0,0,0,.046.053.053,0,0,0,.02.043.109.109,0,0,0,.054.018l0,.009,0,.009h-.1l-.061,0h-.013v-.009l0-.01a.1.1,0,0,0,.064-.027.125.125,0,0,0,.007-.048v-.144c0-.023,0-.034,0-.058a.077.077,0,0,0-.014-.044l-.019-.02a.194.194,0,0,0-.046-.02l0-.009,0-.01h.01l.085,0h.02l.012.008.21.228c.015.018.036.041.046.056v-.165a.4.4,0,0,0,0-.045.1.1,0,0,0-.011-.044c-.007-.01-.045-.016-.066-.02l0-.011v-.009h.012l.07,0h.1l0,.01Z" transform="translate(-21.149 -9.122)"/><path class="c" d="M37.826,22.352a.076.076,0,0,0-.076.088v.208c0,.006,0,.065,0,.087a.025.025,0,0,1-.016.006s-.006,0-.01-.006l-.284-.3,0,.061v.112c0,.01,0,.03,0,.045a.052.052,0,0,0,.021.043.108.108,0,0,0,.053.018l0,.01,0,.009h-.176l0-.008,0-.011a.1.1,0,0,0,.062-.027.116.116,0,0,0,.007-.049v-.144c0-.022,0-.034,0-.057a.073.073,0,0,0-.014-.043.269.269,0,0,0-.02-.021.149.149,0,0,0-.046-.02l0-.009,0-.011h.012c.006,0,.05,0,.084,0h.019l.013.008.21.228c.015.018.036.041.047.056v-.165a.319.319,0,0,0,0-.045.109.109,0,0,0-.012-.044c-.007-.011-.046-.016-.065-.02l0-.011v-.01h.012l.071,0h.1l0,.01Z" transform="translate(-21.149 -9.122)"/><path class="c" d="M38.242,22.683a.2.2,0,0,1-.282,0,.2.2,0,0,1-.061-.152.207.207,0,0,1,.061-.152.2.2,0,0,1,.141-.059.2.2,0,0,1,.105.03.2.2,0,0,1,.1.176A.225.225,0,0,1,38.242,22.683Zm-.064-.292a.091.091,0,0,0-.08-.043.085.085,0,0,0-.075.043.234.234,0,0,0-.037.14.254.254,0,0,0,.035.141.091.091,0,0,0,.08.044.092.092,0,0,0,.087-.055.263.263,0,0,0,.026-.128A.235.235,0,0,0,38.178,22.391Z" transform="translate(-21.149 -9.122)"/><path class="c" d="M38.811,22.354a.08.08,0,0,0-.071.046l-.152.34-.012,0c-.005,0-.011,0-.015-.015a1.226,1.226,0,0,0-.062-.151l-.048-.111a.753.753,0,0,0-.036-.076.075.075,0,0,0-.064-.037l0-.01,0-.01h.1l.095,0h.017l0,.009,0,.01c-.019,0-.059,0-.059.028a.047.047,0,0,0,0,.022l.1.238.084-.2a.137.137,0,0,0,.01-.051c0-.023-.015-.032-.057-.037l0-.01,0-.011h.011c.019,0,.037,0,.08,0h.079l0,.009Z" transform="translate(-21.149 -9.122)"/><path class="c" d="M37.7,23.086l-.011,0a.2.2,0,0,0-.03-.059.1.1,0,0,0-.074-.039h-.039v.176c0,.028,0,.062,0,.121s.023.048.07.053a.024.024,0,0,1,0,.013l0,.008H37.6l-.1,0-.1,0,0-.009,0-.012c.064,0,.07-.017.073-.036s0-.067,0-.12v-.147a.233.233,0,0,0,0-.048.328.328,0,0,0-.063,0c-.032.012-.054.039-.08.088l-.01,0-.01,0v-.1c0-.01,0-.012.012-.012h.19c.1,0,.168,0,.185,0s.017,0,.02,0v.118Z" transform="translate(-21.149 -9.122)"/><path class="c" d="M38.176,23.359h-.031c-.021,0-.044,0-.069,0s-.086,0-.1,0l0-.009,0-.01c.039,0,.054-.008.054-.024a.154.154,0,0,0-.011-.052c-.013-.029-.019-.042-.022-.05s0,0-.011,0h-.126a.319.319,0,0,0-.03.076.088.088,0,0,0,0,.024c0,.012.013.027.057.028l0,.012v.008H37.87l-.069,0-.087,0V23.34a.079.079,0,0,0,.057-.029.559.559,0,0,0,.051-.1c.023-.053.05-.121.062-.149s.022-.046.027-.059l.022-.042.015-.007a.028.028,0,0,1,.018.008l.01.021c.023.054.042.1.07.172.014.035.022.057.038.093l.028.061c.016.03.039.031.064.036l0,.01Zm-.253-.316h0a.422.422,0,0,0-.028.063c-.022.052-.03.07-.034.078h.12C37.971,23.16,37.94,23.086,37.923,23.043Z" transform="translate(-21.149 -9.122)"/><path class="c" d="M38.8,23.359l-.163,0h-.044l0-.009,0-.011a.3.3,0,0,0,.04,0c.016-.008.022-.024.022-.048V23h0l-.086.187c-.008.02-.02.042-.029.064-.019.044-.029.074-.035.091a.012.012,0,0,1-.013.008c-.006,0-.009,0-.012-.012s-.019-.039-.023-.05l-.133-.293h0v.074l0,.189c0,.056.03.083.075.083l0,.011,0,.008h-.02c-.006,0-.035,0-.078,0h-.083l0-.008,0-.01a.192.192,0,0,0,.058-.021c.008-.007.016-.024.016-.063v-.206c0-.033-.005-.045-.02-.056a.166.166,0,0,0-.053-.012l0-.01,0-.011h.168l.009.011.119.271.021-.054c.019-.044.046-.109.083-.18l.025-.047.152,0,0,.01,0,.01c-.018,0-.046,0-.06.026,0,.007-.007.014-.007.048v.192c0,.074.018.082.027.088a.181.181,0,0,0,.041,0l0,.011Z" transform="translate(-21.149 -9.122)"/><path class="c" d="M37.686,23.715l-.011,0a.238.238,0,0,0-.03-.06.1.1,0,0,0-.075-.039h-.038v.176c0,.028,0,.062,0,.122s.022.047.07.053l0,.012v.008h-.12l-.1,0,0-.009,0-.011c.063-.005.07-.017.073-.037s0-.067,0-.12v-.147a.233.233,0,0,0,0-.048.328.328,0,0,0-.063,0c-.033.012-.054.04-.079.088l-.012,0-.009,0v-.1c0-.01,0-.012.012-.012h.19c.1,0,.168,0,.186,0s.016,0,.018,0v.118Z" transform="translate(-21.149 -9.122)"/><path class="c" d="M38.184,23.608a.085.085,0,0,0-.072.048L37.961,24a.034.034,0,0,1-.013,0s-.01,0-.013-.016-.023-.059-.063-.151l-.049-.111a.817.817,0,0,0-.036-.077.077.077,0,0,0-.063-.037l0-.009,0-.01h.1l.095,0h.016l0,.009v.01c-.02,0-.06,0-.06.028a.066.066,0,0,0,0,.023l.1.237.084-.2a.12.12,0,0,0,.011-.052c0-.021-.016-.031-.057-.037l0-.008,0-.012h.011c.019,0,.038,0,.08,0h.079l0,.009Z" transform="translate(-21.149 -9.122)"/><path class="c" d="M38.8,23.987l-.161,0H38.6l0-.009,0-.01a.2.2,0,0,0,.041,0,.048.048,0,0,0,.022-.048v-.288h0l-.084.186c-.01.021-.02.043-.031.065-.019.044-.029.074-.035.091s-.008.008-.013.008-.008,0-.012-.011c-.01-.025-.017-.04-.021-.051l-.135-.293h0V23.7l0,.188c0,.056.03.083.076.083l0,.01,0,.009h-.021c-.005,0-.034,0-.076,0h-.084l0-.008,0-.01a.21.21,0,0,0,.058-.02c.008-.007.015-.025.015-.064v-.2c0-.034,0-.046-.021-.057a.145.145,0,0,0-.051-.012l0-.01,0-.011h.169l.006.011.12.271.022-.055c.018-.043.046-.108.084-.179.007-.016.019-.035.024-.047l.151,0,0,.01,0,.009a.075.075,0,0,0-.059.027.084.084,0,0,0-.008.048v.193c0,.074.019.081.028.087a.13.13,0,0,0,.04,0l0,.01C38.807,23.984,38.805,23.984,38.8,23.987Z" transform="translate(-21.149 -9.122)"/><path class="b" d="M42.64,21.48l-.017-.19-.182.056a4.646,4.646,0,0,1-1.36.2,4.589,4.589,0,0,1-3.92-2.186l-.132-.218-.131.218a4.589,4.589,0,0,1-3.921,2.186,4.676,4.676,0,0,1-1.358-.2l-.181-.056-.017.189a13.388,13.388,0,0,0,.233,3.918,13.62,13.62,0,0,0,1.458,3.871,13.971,13.971,0,0,0,3.823,4.349l.091.07.092-.07a14.017,14.017,0,0,0,2.611-2.526,13.7,13.7,0,0,0,1.216-1.814,13.553,13.553,0,0,0,1.416-3.692L42.4,25.4A13.436,13.436,0,0,0,42.64,21.48Zm-3.254,1.032h.226v.444h-.226Zm0,1.162h.226v.443h-.226Zm-2.3-1.633a.424.424,0,0,1,.385-.161l.438.062.577.077a1.119,1.119,0,0,0,.5-.084v2.412a1.378,1.378,0,0,1-.5.075l-.557-.074-.458-.064a.572.572,0,0,0-.385.121Zm-1.975-.1a1.055,1.055,0,0,0,.481.08l.578-.078.437-.062a.418.418,0,0,1,.384.161v2.365a.575.575,0,0,0-.388-.122l-.459.064-.552.074c-.405,0-.489-.1-.49-.1S35.112,22.1,35.113,21.94Zm-.33.294.236-.05v2.168c.023.048.122.165.575.165l.573-.077.438-.061a.426.426,0,0,1,.389.162l.014-.008h.067l.013.007a.421.421,0,0,1,.385-.161l.438.061.577.077c.459,0,.573-.122.585-.134l.009-2.21.209.058v2.395a6.446,6.446,0,0,1-.83.064,10.908,10.908,0,0,1-1.109-.077l-.052-.008v.163a.845.845,0,0,1-.269.048.733.733,0,0,1-.257-.048v-.163l-.053.008a10.9,10.9,0,0,1-1.106.077,6.452,6.452,0,0,1-.832-.064Zm-.317.278h.223v.444h-.223Zm0,1.162h.223v.443h-.223Zm2.561,9.619a13.712,13.712,0,0,1-2.456-2.4l-.009-.011,2.466-2.4,2.47,2.4-.011.013A13.775,13.775,0,0,1,37.027,33.293Zm5.033-7.774A13.309,13.309,0,0,1,40.7,29.09l-3.668-3.529-3.665,3.522a13.285,13.285,0,0,1-1.4-3.716H42.091Z" transform="translate(-21.149 -9.122)"/></svg>