<svg xmlns="http://www.w3.org/2000/svg" viewBox="0 0 235.875 36.074"><defs><style>.pu-logo-one-line-mc-a{fill:none;}.pu-logo-one-line-mc-b{fill:#231f20;}.pu-logo-one-line-mc-c{fill:#fff;}.d{fill:#f58025;}</style></defs><title>PUsig1-158U</title><rect class="pu-logo-one-line-mc-a" width="235.875" height="36.074"/><path class="pu-logo-one-line-mc-b" d="M132.39,22.4a.426.426,0,0,0-.039-.183h-.3c-.658,0-1.078.025-2.262.025-.408,0-1.013-.025-1.158-.025h-.341c-.04.025-.054.171-.054.223a.347.347,0,0,0,.067.225,5.508,5.508,0,0,1,1.354.381,2.578,2.578,0,0,1,.381,1.342c.013.2.026.394.026.934v2.75a4.888,4.888,0,0,1-.026.567c-.223-.25-.538-.724-1.064-1.317l-4.394-4.868a.873.873,0,0,0-.2-.172c-.106,0-.29-.012-.4-.012-.842,0-2.368-.041-2.592-.041a.5.5,0,0,0-.053.186,2.038,2.038,0,0,0,.04.25,1.794,1.794,0,0,1,.987.5,4.378,4.378,0,0,1,.7.829,1.175,1.175,0,0,1,.052.421c0,.684-.039,1.644-.039,2.565v2.671a5.8,5.8,0,0,1-.079,1,2.749,2.749,0,0,1-1.382.671.761.761,0,0,0-.052.237c0,.04.013.171.039.185h.25c.263,0,.869-.039,1.263-.039.579,0,.973.039,1.513.039h.789c.054-.014.066-.172.066-.224a.607.607,0,0,0-.038-.211,2.522,2.522,0,0,1-1.579-.815,7.344,7.344,0,0,1-.172-1.633c0-.421-.014-1-.014-1.775,0-1.04.014-1.948.027-2.408.08.092.171.21.237.289l6.077,6.83a.759.759,0,0,0,.368.079.3.3,0,0,0,.158-.027,1.484,1.484,0,0,0,.119-.592c0-.381-.013-.777-.013-.974V24.8c0-1.646.777-2.106,1.685-2.146a.581.581,0,0,0,.051-.25m-15.078,4.186c0,1.986-.551,3.736-1.3,4.355a2.135,2.135,0,0,1-1.395.474,1.969,1.969,0,0,1-1.75-.882,7,7,0,0,1-.778-3.422c0-1.829.474-3.262,1.317-3.961a2.1,2.1,0,0,1,1.368-.512,2.189,2.189,0,0,1,1.789.908,5.069,5.069,0,0,1,.75,3.04m2.383.25a4.411,4.411,0,0,0-2.342-4.092,5.093,5.093,0,0,0-2.5-.673,5.357,5.357,0,0,0-4.436,2.449,5.026,5.026,0,0,0-.762,2.658,4.723,4.723,0,0,0,4.882,4.8,5.46,5.46,0,0,0,2-.381,4.735,4.735,0,0,0,1.829-1.25,5.089,5.089,0,0,0,1.329-3.513m-11.567-1.658V22.5c0-.2-.078-.25-.277-.25-.394,0-2.474.054-4.578.054-1.633,0-2.987-.026-3.725-.026h-.973c-.171,0-.224.038-.224.222V25.01a.391.391,0,0,0,.211.051,1.089,1.089,0,0,0,.289-.026,4.428,4.428,0,0,1,1.843-2.2c.393-.04,1.171-.054,1.381-.054.013.146.026.606.04,1.158.012.948.012,1.356.012,3.592,0,1.936-.012,2.8-.039,3.015-.052.368.013.644-1.565.71a.741.741,0,0,0-.041.3,1.065,1.065,0,0,0,.014.211h.513c.487,0,1.631-.052,2.106-.052.382,0,1.605.039,2.408.039h.369a.68.68,0,0,0,.039-.277.472.472,0,0,0-.054-.236,2.736,2.736,0,0,1-1.354-.25,4.1,4.1,0,0,1-.118-.987c-.015-1.421-.028-1.96-.028-2.908,0-1.224.013-2.053.013-4.329.186,0,.607-.013,1,0a2.572,2.572,0,0,1,1.567,1,6.643,6.643,0,0,1,.7,1.434.658.658,0,0,0,.223.026.71.71,0,0,0,.25-.052M96.786,29.458a2.73,2.73,0,0,0-.015-.383.288.288,0,0,0-.2-.04,1.053,1.053,0,0,0-.29.027,5.043,5.043,0,0,1-1.448,2.013,2.017,2.017,0,0,1-.986.146h-1.08a4.69,4.69,0,0,1-.867-.067c-.2-.039-.408-.354-.5-.565a1.386,1.386,0,0,1-.144-.829V26.878h.487a2.078,2.078,0,0,1,.8.184,1.221,1.221,0,0,1,.592.552,4.628,4.628,0,0,1,.224,1.094.9.9,0,0,0,.342.052.456.456,0,0,0,.264-.067c0-.354-.08-1.315-.08-1.841,0-.659.092-1.567.131-2.041a.565.565,0,0,0-.262-.051.989.989,0,0,0-.342.039c-.04.184-.185.736-.211.776a1.6,1.6,0,0,1-.9.685,3.428,3.428,0,0,1-.762.1h-.277V25.141c0-1.263.027-1.671.039-1.909.015-.158.041-.329.054-.447a5.976,5.976,0,0,1,.79-.025c.763,0,1.117.013,1.236.013a1.488,1.488,0,0,1,.842.262A5.638,5.638,0,0,1,95.5,24.668a1.078,1.078,0,0,0,.275.025c.08,0,.093-.025.2-.079,0-.8-.053-1.841-.08-2.171-.013-.132-.039-.17-.3-.17-.105,0-.605-.028-1.131-.028-.75,0-1.052.015-2.2.015-.619,0-1.895.013-2.435.013-.789,0-1.46-.028-1.8-.028h-.447a.449.449,0,0,0-.067.212.6.6,0,0,0,.067.263,6.761,6.761,0,0,1,.961.144,1.088,1.088,0,0,1,.474.856c.026.277.039,1.04.039,1.644v2.711c0,.554-.013,1.356-.027,1.685a3.778,3.778,0,0,1-.289,1.25,3.464,3.464,0,0,1-1.184.2.736.736,0,0,0-.066.289.474.474,0,0,0,.066.236h.434c.421,0,1.974-.039,2.328-.039.33,0,.961.027,1.725.027.421,0,1.658.079,4.316.079a1.153,1.153,0,0,0,.356-.027.409.409,0,0,0,.052-.211c.027-.262.027-1.04.027-2.1m-11.133.46a.437.437,0,0,0-.447-.316c-.027,0-.066.012-.092.012a3.105,3.105,0,0,1-2.646,1.54,2.882,2.882,0,0,1-2.658-1.736,7.289,7.289,0,0,1-.407-2.395,5.8,5.8,0,0,1,.393-2.3c.581-1.527,1.422-2,2.449-2a2.692,2.692,0,0,1,2.1,1.184,5.875,5.875,0,0,1,.672,1.593,1.3,1.3,0,0,0,.289.038.665.665,0,0,0,.317-.117c-.013-.145-.145-1.158-.145-1.475,0-.394.1-1.04.1-1.29a1.073,1.073,0,0,0-.512-.143,2.593,2.593,0,0,0-.447.539,4.335,4.335,0,0,0-2.921-.935,4.49,4.49,0,0,0-3.3,1.3A4.994,4.994,0,0,0,77,27.128a4.813,4.813,0,0,0,1.854,3.934,5.237,5.237,0,0,0,3.067.882,4.082,4.082,0,0,0,3.369-1.408,2.566,2.566,0,0,0,.368-.618M75.416,22.4a.427.427,0,0,0-.04-.183h-.3c-.658,0-1.079.025-2.263.025-.408,0-1.014-.025-1.158-.025H71.31c-.039.025-.053.171-.053.223a.352.352,0,0,0,.066.225,5.5,5.5,0,0,1,1.354.381,2.559,2.559,0,0,1,.383,1.342c.013.2.025.394.025.934v2.75a4.958,4.958,0,0,1-.025.567c-.225-.25-.539-.724-1.066-1.317L67.6,22.457a.887.887,0,0,0-.2-.172c-.106,0-.29-.012-.395-.012-.842,0-2.369-.041-2.592-.041a.48.48,0,0,0-.053.186,1.863,1.863,0,0,0,.04.25,1.8,1.8,0,0,1,.986.5,4.372,4.372,0,0,1,.7.829,1.171,1.171,0,0,1,.053.421c0,.684-.039,1.644-.039,2.565v2.671a5.677,5.677,0,0,1-.08,1,2.736,2.736,0,0,1-1.381.671.793.793,0,0,0-.053.237c0,.04.014.171.039.185h.25c.264,0,.87-.039,1.264-.039.58,0,.974.039,1.514.039h.789c.053-.014.066-.172.066-.224a.609.609,0,0,0-.039-.211,2.526,2.526,0,0,1-1.58-.815,7.421,7.421,0,0,1-.17-1.633c0-.421-.014-1-.014-1.775,0-1.04.014-1.948.026-2.408.08.092.172.21.238.289l6.078,6.83a.761.761,0,0,0,.369.079.3.3,0,0,0,.158-.027,1.51,1.51,0,0,0,.118-.592c0-.381-.012-.777-.012-.974V24.8c0-1.646.776-2.106,1.684-2.146a.569.569,0,0,0,.053-.25M62.4,31.523a.858.858,0,0,0-.038-.263,9.459,9.459,0,0,1-.974-.118,2.07,2.07,0,0,1-.447-1.013c-.014-.632-.027-1.936-.027-3.158V23.732a1.047,1.047,0,0,1,.236-.709,2.215,2.215,0,0,1,1.172-.342.816.816,0,0,0,.04-.25.388.388,0,0,0-.067-.211h-.38c-.553,0-1.843.065-2.29.065-.276,0-1.567-.04-2.145-.053h-.291a.332.332,0,0,0-.064.225,1.975,1.975,0,0,0,.025.25,2.8,2.8,0,0,1,1.027.184,1.459,1.459,0,0,1,.435,1.119c.013.25.026.789.038,2,.014.658.027,1.579.027,2.342,0,.381-.027,1.237-.039,1.7a2.267,2.267,0,0,1-.184.789c-.159.132-.316.369-1.277.433a.987.987,0,0,0-.039.278c0,.1.026.158.026.223h.224c.526,0,1.842-.065,2.526-.065.2,0,1.566.039,2,.039h.434a.508.508,0,0,0,.051-.224M51.847,24.654a2.049,2.049,0,0,1-1.2,1.908,4.4,4.4,0,0,1-1.079.106,3.225,3.225,0,0,1-.487-.026l-.013-1.119V23.1a.427.427,0,0,1,.079-.291,1.34,1.34,0,0,1,.553-.079c1.025,0,1.474.092,1.841.711a2.332,2.332,0,0,1,.3,1.211m3.817,6.882a.635.635,0,0,0-.067-.276,2.038,2.038,0,0,1-.867-.171,2.934,2.934,0,0,1-.225-.329,13.716,13.716,0,0,0-.566-1.513,4.922,4.922,0,0,0-.973-1.566,4.075,4.075,0,0,0-.986-.434c-.211-.079-.383-.145-.541-.212a5.1,5.1,0,0,1,.541-.078,2.34,2.34,0,0,0,1.447-.487,2.074,2.074,0,0,0,.816-1.71,2.53,2.53,0,0,0-1.646-2.4,6.5,6.5,0,0,0-1.578-.144c-.987,0-2.369.091-3.027.091-.2,0-1.342-.026-1.8-.026-.2,0-.7-.025-.776-.025a.793.793,0,0,0-.066.25,1.51,1.51,0,0,0,.027.237c.223.026.63.077.842.117a1.561,1.561,0,0,1,.553.711c.064.422.078,1.5.078,3.356,0,1.341.014,2.894-.053,3.394a1.008,1.008,0,0,1-.54.883c-.171.025-.485.078-.75.092a.665.665,0,0,0-.065.262.819.819,0,0,0,.053.211c.183,0,2.2-.04,2.619-.04.842,0,1.553.04,2.3.04a.57.57,0,0,0,.052-.2.815.815,0,0,0-.052-.275c-.264-.028-.593-.106-.737-.132a.986.986,0,0,1-.566-.935l-.014-3.04a3.267,3.267,0,0,1,.342-.012,1.309,1.309,0,0,1,.7.211,2.5,2.5,0,0,1,1.041.96,8.042,8.042,0,0,1,.828,2.829c.039.277.145.513.395.54.105.012.8.039,1.3.039h1.881a.35.35,0,0,0,.08-.224M41.373,24.72a1.785,1.785,0,0,1-2.04,2,4.239,4.239,0,0,1-.566-.028c-.1-.012-.17-.025-.17-.091l.012-3.855a5.481,5.481,0,0,1,.764-.066c.894,0,1.448.222,1.71.776a2.791,2.791,0,0,1,.29,1.263m2.355.053a2.522,2.522,0,0,0-1.407-2.291,6.607,6.607,0,0,0-2.355-.3c-1.014,0-2.593.079-3.291.079-.486,0-1.223-.053-1.632-.053a.485.485,0,0,0-.065.211.652.652,0,0,0,.039.263c.25.079.658.143.922.21a1.126,1.126,0,0,1,.354.75c.04.461.066,1.04.066,2.04,0,2.776-.012,4.237-.053,4.552a1.117,1.117,0,0,1-.75.935c-.2.04-.486.1-.763.132a1.485,1.485,0,0,0-.026.275.364.364,0,0,0,.039.185c.422,0,1.658-.052,2.133-.052,1.17,0,2.369.052,2.854.052h.33a.373.373,0,0,0,.04-.21.645.645,0,0,0-.027-.238,2.147,2.147,0,0,1-1.236-.42,1.122,1.122,0,0,1-.264-.777L38.6,27.221c.789.052,1.631.079,2.092.079a4.977,4.977,0,0,0,1.527-.238,2.412,2.412,0,0,0,1.512-2.289" transform="translate(-8.747 -8.999)"/><path class="pu-logo-one-line-mc-b" d="M234.718,22.3c0-.079-.053-.106-.079-.158-.54,0-1.25.04-1.527.04-.671,0-1.487-.053-1.843-.053a.288.288,0,0,0-.051.158.492.492,0,0,0,.026.157c.381.08.934.171,1.039.356a.947.947,0,0,1,.119.512,1.3,1.3,0,0,1-.079.488c-.118.329-.369.842-.724,1.565-.6,1.225-.987,1.988-1.2,2.29-.342-.578-1.106-2.105-1.29-2.5l-.737-1.605a1.21,1.21,0,0,1-.052-.356.862.862,0,0,1,.052-.341c.119-.238.527-.263,1.079-.329a.572.572,0,0,0,.04-.2c0-.092-.04-.064-.079-.131h-.237c-.882,0-.619.039-2.132.039-.645,0-1.421-.039-1.527-.039-.052.093-.078.106-.078.2a.287.287,0,0,0,.052.158c.882.211,1.145.369,1.236.54l2.3,4.513a5.1,5.1,0,0,1,.421.987,7.323,7.323,0,0,1,.106,1.579,1.117,1.117,0,0,1-.422,1.013,6.261,6.261,0,0,1-1.052.171.313.313,0,0,0-.067.185.555.555,0,0,0,.04.157c.672,0,1.369-.013,1.764-.013.276,0,.7.013,1.474.027.447.013.789.025,1.026.025a.383.383,0,0,0,.066-.171.285.285,0,0,0-.053-.17,3.2,3.2,0,0,1-1.145-.263,1.016,1.016,0,0,1-.342-.842l-.1-1.975A.76.76,0,0,1,230.8,28a2.028,2.028,0,0,1,.145-.369l2.027-4.014a2.739,2.739,0,0,1,.842-.882,3.663,3.663,0,0,1,.855-.262.494.494,0,0,0,.053-.171M224.086,25.01V22.457c0-.2-.079-.25-.277-.25-.4,0-2.21.053-4.316.053-1.632,0-2.724-.028-3.461-.028h-.973c-.172,0-.224.041-.224.225v2.382a.23.23,0,0,0,.158.052.329.329,0,0,0,.158-.027c.513-1.144.776-1.75,1.658-2.2.394-.04,1.776-.054,1.987-.054.013.146.026.606.039,1.159.013.947.013,1.459.013,3.7,0,1.934-.013,2.934-.039,3.144-.053.369.013.646-1.566.712a.418.418,0,0,0-.04.224.612.612,0,0,0,.014.158h.512c.488,0,1.132-.054,1.606-.054.382,0,1.106.04,1.908.04h.369a.358.358,0,0,0,.039-.2.309.309,0,0,0-.052-.185,2.72,2.72,0,0,1-1.356-.25,4.083,4.083,0,0,1-.118-.986c-.013-1.422-.027-2.093-.027-3.04,0-1.225.014-2.158.014-4.434.184,0,1.157-.013,1.552,0a2.364,2.364,0,0,1,1.487,1,4.217,4.217,0,0,1,.592,1.434.54.54,0,0,0,.2.025.245.245,0,0,0,.145-.051m-10.935,6.5a.421.421,0,0,0-.04-.184,9.744,9.744,0,0,1-.974-.118,2.078,2.078,0,0,1-.447-1.015c-.013-.631-.026-2.065-.026-3.289V23.561a1.041,1.041,0,0,1,.237-.709,2.214,2.214,0,0,1,1.171-.342.412.412,0,0,0,.039-.171.218.218,0,0,0-.066-.158h-.381c-.553,0-1.342.065-1.79.065-.276,0-1.066-.039-1.646-.053h-.288a.19.19,0,0,0-.066.171.923.923,0,0,0,.026.172,2.794,2.794,0,0,1,1.027.184,1.452,1.452,0,0,1,.434,1.119c.013.25.026.921.039,2.131.014.658.027,1.553.027,2.316,0,.382-.027,1.368-.04,1.828a2.239,2.239,0,0,1-.184.79c-.158.133-.316.368-1.276.435a.515.515,0,0,0-.04.2c0,.105.026.105.026.171h.224c.526,0,1.341-.066,2.027-.066.2,0,1.065.039,1.5.039h.434a.326.326,0,0,0,.053-.171m-6.5-2.421a2.443,2.443,0,0,0-1.487-2.316,7.172,7.172,0,0,0-1.46-.526,9.555,9.555,0,0,1-1.908-.724,1.577,1.577,0,0,1-.777-1.434,1.742,1.742,0,0,1,1.856-1.54,2.2,2.2,0,0,1,1.8.921,6.737,6.737,0,0,1,.816,1.5.517.517,0,0,0,.132.027.421.421,0,0,0,.289-.133,10.493,10.493,0,0,1-.105-1.183,7.026,7.026,0,0,1,.118-1.028.4.4,0,0,0-.394-.183,2.918,2.918,0,0,0-.513.473,3.3,3.3,0,0,0-2.237-.815,2.575,2.575,0,0,0-2.777,2.513,2.647,2.647,0,0,0,.487,1.448,2.852,2.852,0,0,0,1.276.96c.382.158,2.093.672,2.329.763,1.053.409,1.448.764,1.448,1.7a2.052,2.052,0,0,1-.579,1.329,1.837,1.837,0,0,1-1.461.619,2.951,2.951,0,0,1-2.21-.975,6.194,6.194,0,0,1-.895-1.776.452.452,0,0,0-.184-.026.465.465,0,0,0-.251.079c0,.171.053,1.04.053,1.3a5.372,5.372,0,0,1-.145,1.171.5.5,0,0,0,.421.264,1.906,1.906,0,0,1,.658-.421.634.634,0,0,1,.316.117,3.8,3.8,0,0,0,2.2.659c1.855,0,3.184-.934,3.184-2.763m-11.645-4.54a2.126,2.126,0,0,1-1.448,1.961,7.1,7.1,0,0,1-1.369.1c-.157,0-.6,0-.8-.025l-.013-1.158V22.943c0-.17.039-.262.092-.3a4.333,4.333,0,0,1,.921-.08c1.237,0,1.8.12,2.25.763a2.078,2.078,0,0,1,.369,1.225m2.763,6.973a.352.352,0,0,0-.066-.2,2.014,2.014,0,0,1-.868-.172,2.826,2.826,0,0,1-.224-.328,17.263,17.263,0,0,0-.553-1.645,4.952,4.952,0,0,0-.973-1.567,3.69,3.69,0,0,0-.948-.433c-.21-.079-.381-.145-.539-.211a4.813,4.813,0,0,1,.539-.078,2.411,2.411,0,0,0,1.4-.488,2.091,2.091,0,0,0,.868-1.7,2.513,2.513,0,0,0-1.644-2.383,6.476,6.476,0,0,0-1.579-.143c-.988,0-1.724.092-2.382.092-.2,0-.842-.027-1.3-.027-.2,0-.7-.026-.776-.026-.04.091-.066.119-.066.171a.878.878,0,0,0,.026.183c.224.028.632.079.842.119a1.564,1.564,0,0,1,.553.71c.066.421.079,1.607.079,3.461,0,1.343.013,3.028-.053,3.528a1,1,0,0,1-.539.88,7.212,7.212,0,0,1-.75.093.345.345,0,0,0-.066.185.535.535,0,0,0,.053.158c.183,0,1.7-.04,2.118-.04.842,0,1.053.04,1.8.04a.337.337,0,0,0,.053-.146.4.4,0,0,0-.053-.2c-.263-.026-.592-.1-.738-.132a.986.986,0,0,1-.565-.933l-.013-3.29c.1-.013.487-.013.592-.013a2.439,2.439,0,0,1,1.053.184,2.97,2.97,0,0,1,1.29,1.066,8.251,8.251,0,0,1,.829,2.868c.039.277.144.514.394.539a4.8,4.8,0,0,0,.764.04h1.367a.227.227,0,0,0,.08-.172m-11.041-2a3.377,3.377,0,0,0-.012-.38.3.3,0,0,0-.2-.04.377.377,0,0,0-.171.027,3.483,3.483,0,0,1-1.355,2.013,2.48,2.48,0,0,1-1.119.145H182.4a6.25,6.25,0,0,1-.868-.066c-.2-.04-.408-.356-.5-.567a1.72,1.72,0,0,1-.145-.907v-3h.421a2.6,2.6,0,0,1,1.119.184,1.59,1.59,0,0,1,.71.566,4.516,4.516,0,0,1,.185,1.092.334.334,0,0,0,.21.053.314.314,0,0,0,.211-.066c0-.355-.079-1.316-.079-1.843,0-.657.092-1.46.131-1.934a.341.341,0,0,0-.21-.052.384.384,0,0,0-.211.039c-.039.184-.145.737-.171.775a1.892,1.892,0,0,1-1.014.7,4.177,4.177,0,0,1-1.078.1H180.9V25.076c0-1.265.027-1.777.039-2.015.014-.158.04-.329.053-.447.119-.012.5-.025,1.106-.025.763,0,1.329.013,1.447.013a1.491,1.491,0,0,1,.842.262,3.343,3.343,0,0,1,1.172,1.633.363.363,0,0,0,.157.026c.079,0,.093-.026.2-.08,0-.8-.053-1.711-.079-2.04-.013-.13-.04-.171-.3-.171-.1,0-.6-.025-1.131-.025-.75,0-1.053.013-2.2.013-.618,0-1.711.012-2.25.012-.79,0-.961-.025-1.3-.025H178.2a.268.268,0,0,0-.066.157.311.311,0,0,0,.066.185,6.748,6.748,0,0,1,.96.144c.185.159.356.2.474.83.026.276.04,1.17.04,1.776V28.01c0,.552-.014,1.461-.027,1.79a3.981,3.981,0,0,1-.289,1.276,3.436,3.436,0,0,1-1.185.2.446.446,0,0,0-.065.211.32.32,0,0,0,.065.185h.435c.421,0,1.474-.039,1.828-.039.33,0,.777.025,1.54.025.421,0,1.658.079,4.317.079a1.143,1.143,0,0,0,.355-.025.437.437,0,0,0,.052-.211c.026-.264.026-.908.026-1.975m-9.737-7.183c0-.053-.013-.132-.066-.146h-.447c-.316,0-.816.027-1.041.027-1.064,0-1.446-.067-1.6-.067H173.6c-.026.067-.066.107-.066.171s.027.093.027.146a4.723,4.723,0,0,1,.908.2,1.23,1.23,0,0,1,.329.829,5.018,5.018,0,0,1-.316,1.2L172.358,29.9l-2.605-6.593a.989.989,0,0,1,.433-.737,6.035,6.035,0,0,1,.856-.1.476.476,0,0,0,.053-.184c0-.054-.013-.133-.066-.145H170.7c-.408,0-1.026.052-1.724.052-.3,0-.894-.026-1.473-.026h-.514a.285.285,0,0,0-.053.157.28.28,0,0,0,.04.158,4.521,4.521,0,0,1,1.106.449,23.043,23.043,0,0,1,1.079,2.395l1.092,2.631c.908,2.185,1.447,3.645,1.513,3.895.066.04,0,.079.118.079s.106-.027.132-.092l3.4-8.158a2.585,2.585,0,0,1,.474-.75,2.075,2.075,0,0,1,1.051-.421.611.611,0,0,0,.054-.171M165.463,31.51a.421.421,0,0,0-.039-.184,9.674,9.674,0,0,1-.974-.118A2.069,2.069,0,0,1,164,30.193c-.013-.631-.026-2.065-.026-3.289V23.561a1.047,1.047,0,0,1,.237-.709,2.214,2.214,0,0,1,1.171-.342.414.414,0,0,0,.04-.171.222.222,0,0,0-.066-.158h-.382c-.553,0-1.342.065-1.79.065-.276,0-1.065-.039-1.644-.053h-.29a.193.193,0,0,0-.067.171.94.94,0,0,0,.028.172,2.791,2.791,0,0,1,1.026.184,1.448,1.448,0,0,1,.434,1.119c.013.25.027.921.04,2.131.013.658.026,1.553.026,2.316,0,.382-.026,1.368-.039,1.828a2.237,2.237,0,0,1-.185.79c-.157.133-.315.368-1.276.435a.533.533,0,0,0-.039.2c0,.105.026.105.026.171h.224c.526,0,1.342-.066,2.026-.066.2,0,1.066.039,1.5.039h.434a.317.317,0,0,0,.053-.171m-5.948-9.2a.222.222,0,0,0-.039-.13h-.3c-.658,0-.947.026-2.132.026-.408,0-1.013-.026-1.158-.026h-.342c-.039.026-.052.118-.052.171a.168.168,0,0,0,.065.144,5.561,5.561,0,0,1,1.356.382,2.566,2.566,0,0,1,.381,1.342c.013.2.027.394.027.934v3.908a4.833,4.833,0,0,1-.027.567c-.223-.25-.606-.737-1.118-1.343l-5.027-5.869a.864.864,0,0,0-.2-.171c-.106,0-.237-.014-.342-.014-.843,0-1.579-.039-1.8-.039a.261.261,0,0,0-.04.131.907.907,0,0,0,.027.172,2.278,2.278,0,0,1,1.013.368,3.966,3.966,0,0,1,.645.777,1.176,1.176,0,0,1,.052.42c0,.686-.039,1.936-.039,2.857v2.8a5.929,5.929,0,0,1-.079,1,2.757,2.757,0,0,1-1.382.671.373.373,0,0,0-.052.158c0,.039.013.118.039.131h.25c.263,0,.869-.039,1.263-.039.579,0,.842.039,1.382.039h.79c.052-.013.065-.119.065-.171a.254.254,0,0,0-.039-.131,2.533,2.533,0,0,1-1.579-.817,7.745,7.745,0,0,1-.171-1.658c0-.421-.014-1.105-.014-1.881,0-1.04.014-2.474.027-2.934.079.092.2.237.289.342l6.238,7.3c.065.067.092.079.158.079s.026,0,.079-.025a2.037,2.037,0,0,0,.065-.594c0-.381-.013-.775-.013-.972V24.628c0-1.646.777-2.105,1.685-2.146a.288.288,0,0,0,.052-.171m-12.185.067a.27.27,0,0,0-.066-.171h-.381c-.408,0-.961.025-1.435.025-.526,0-1.118-.025-1.5-.025h-.474a.318.318,0,0,0-.052.171.462.462,0,0,0,.039.171c.054,0,1.015.012,1.185.25a3.27,3.27,0,0,1,.513.974,8.543,8.543,0,0,1,.106,1.447c0,1.119,0,1.869-.014,2.263a7.05,7.05,0,0,1-.236,1.75,2.407,2.407,0,0,1-2.58,1.71,3.6,3.6,0,0,1-1.539-.329,2.222,2.222,0,0,1-1.277-1.657l-.066-3.947L139.54,23.4c0-.3.382-.579.513-.735a5.885,5.885,0,0,1,1.012-.132.381.381,0,0,0,.067-.184.222.222,0,0,0-.092-.171l-.5.012c-.487.014-1.132.027-1.54.027-.631,0-1.118-.013-1.513-.013h-.552a.226.226,0,0,0-.066.184.211.211,0,0,0,.052.158c.421.053.7.092.882.132a1.1,1.1,0,0,1,.462.579c.011.171.038.592.038,1.421v3.158a8.006,8.006,0,0,0,.132,1.763,2.608,2.608,0,0,0,1.144,1.619,4.315,4.315,0,0,0,2.408.631,4.531,4.531,0,0,0,2.264-.54,2.7,2.7,0,0,0,1.3-1.75,6.013,6.013,0,0,0,.21-1.565V25.47c0-.473.026-1.067.026-1.3a2.658,2.658,0,0,1,.4-1.448,5.243,5.243,0,0,1,1.092-.184.324.324,0,0,0,.053-.158" transform="translate(-8.747 -8.999)"/><path class="pu-logo-one-line-mc-c" d="M30.066,22.05a4.974,4.974,0,0,1-1.453.216,4.884,4.884,0,0,1-4.194-2.339,4.885,4.885,0,0,1-4.194,2.339,5,5,0,0,1-1.452-.215,13.734,13.734,0,0,0,.238,4.008H29.82a13.8,13.8,0,0,0,.246-4.009" transform="translate(-8.747 -8.999)"/><path class="d" d="M20.5,30.019a14.277,14.277,0,0,0,1.246,1.858l2.666-2.593,2.672,2.6a14.129,14.129,0,0,0,1.246-1.854L24.415,26.26Z" transform="translate(-8.747 -8.999)"/><path class="d" d="M21.749,31.877a14.445,14.445,0,0,0,2.667,2.594,14.445,14.445,0,0,0,2.671-2.587l-2.673-2.6Z" transform="translate(-8.747 -8.999)"/><path class="d" d="M20.5,30.019l3.912-3.759,3.918,3.769a13.878,13.878,0,0,0,1.448-3.779c.013-.064.025-.128.039-.191H19.011a14.011,14.011,0,0,0,1.492,3.96" transform="translate(-8.747 -8.999)"/><path class="pu-logo-one-line-mc-b" d="M27.075,31.7l-2.575-2.5-.086-.084-.087.084-2.565,2.5a13.953,13.953,0,0,1-1.1-1.648l3.754-3.608,3.762,3.619a13.847,13.847,0,0,1-1.1,1.643Z" transform="translate(-8.747 -8.999)"/><path class="pu-logo-one-line-mc-b" d="M24.415,26.26l3.918,3.769a14.129,14.129,0,0,1-1.246,1.854l-2.672-2.6-2.666,2.593A14.277,14.277,0,0,1,20.5,30.019l3.912-3.759m0,.346-3.6,3.459a13.823,13.823,0,0,0,.959,1.438l2.464-2.4.175-.17.174.169,2.472,2.405a13.828,13.828,0,0,0,.958-1.435l-3.6-3.468Z" transform="translate(-8.747 -8.999)"/><path class="pu-logo-one-line-mc-b" d="M30.066,22.05a4.974,4.974,0,0,1-1.453.216,4.884,4.884,0,0,1-4.194-2.339,4.885,4.885,0,0,1-4.194,2.339,5,5,0,0,1-1.452-.215,13.734,13.734,0,0,0,.238,4.008H29.82a13.8,13.8,0,0,0,.246-4.009" transform="translate(-8.747 -8.999)"/><path class="pu-logo-one-line-mc-c" d="M27.083,23.562V23.1H26.8V22.78l-.294-.083h-.02v-.275s-.1.122-.569.122c-.441,0-.7-.144-1.05-.144a.479.479,0,0,0-.442.194v.111h-.01v-.111a.484.484,0,0,0-.441-.194c-.352,0-.611.145-1.052.145-.466,0-.547-.122-.547-.122v.29h-.018l-.319.067V23.1h-.283v.458h.283v.744h-.283v.46h.283v.572a6.825,6.825,0,0,0,.909.074c.517,0,.816-.075,1.15-.082v.145a.782.782,0,0,0,.317.067.861.861,0,0,0,.326-.067V25.33c.334.007.634.082,1.152.082a6.82,6.82,0,0,0,.908-.074v-.572h.281v-.46H26.8v-.744Z" transform="translate(-8.747 -8.999)"/><path class="pu-logo-one-line-mc-b" d="M23.119,22.94a.089.089,0,0,0-.077.049l-.156.35a.031.031,0,0,1-.013.006s-.01-.006-.014-.017-.024-.06-.065-.156l-.05-.115a.792.792,0,0,0-.037-.078.077.077,0,0,0-.067-.039l0-.011,0-.01h.026l.076,0,.1,0h.018l0,.01,0,.012c-.02,0-.063,0-.063.027a.1.1,0,0,0,0,.023l.1.246.086-.2A.108.108,0,0,0,23,22.979c0-.024-.016-.034-.059-.039l0-.01,0-.012h.012c.019,0,.039,0,.082,0l.05,0h.032l0,.01,0,.011" transform="translate(-8.747 -8.999)"/><path class="pu-logo-one-line-mc-b" d="M23.556,23.333c-.126,0-.193,0-.211,0h-.058c-.019,0-.059,0-.1,0H23.16l0-.01V23.31a.153.153,0,0,0,.063-.014.123.123,0,0,0,.015-.064v-.243c0-.046-.024-.046-.07-.05l0-.011,0-.011h.159l.156,0h.043c.01,0,.014,0,.014.01l0,.093s0,0-.011,0h-.01a.181.181,0,0,0-.063-.071.057.057,0,0,0-.035-.012h-.056a.3.3,0,0,0-.047,0s0,0-.006.017,0,.027,0,.083V23.1h.016a.212.212,0,0,0,.047,0,.065.065,0,0,0,.04-.031.136.136,0,0,0,.011-.034l.013,0,.01,0c0,.018,0,.05,0,.09,0,.02,0,.064,0,.081a.014.014,0,0,1-.013,0l-.011,0c0-.035-.01-.059-.04-.072a.121.121,0,0,0-.046-.008l-.028,0v.107a.106.106,0,0,0,.007.049.036.036,0,0,0,.024.024.2.2,0,0,0,.038,0h.06a.124.124,0,0,0,.046-.007.222.222,0,0,0,.065-.089l.013,0,.012,0v.109c0,.011-.006.012-.022.012" transform="translate(-8.747 -8.999)"/><path class="pu-logo-one-line-mc-b" d="M24.054,23.049h-.01a.351.351,0,0,0-.031-.062.1.1,0,0,0-.078-.04H23.9l0,.183c0,.029,0,.062,0,.126,0,.048.021.048.072.054l0,.012,0,.01h-.017l-.106,0-.1,0a.012.012,0,0,1,0-.011l0-.011c.066-.005.072-.017.074-.039s0-.067,0-.124V23a.251.251,0,0,0,0-.051.272.272,0,0,0-.064,0c-.034.012-.057.041-.083.091h-.011l-.01,0v-.106c0-.01,0-.012.013-.012h.2c.1,0,.173,0,.191,0a.043.043,0,0,1,.022,0v.122s-.008,0-.012,0" transform="translate(-8.747 -8.999)"/><path class="pu-logo-one-line-mc-b" d="M23.1,23.7h-.012a.188.188,0,0,0-.031-.062.094.094,0,0,0-.076-.04h-.04v.183c0,.029,0,.063,0,.126s.022.048.073.054l0,.012,0,.01h-.017l-.106,0-.105,0a.016.016,0,0,1,0-.011l0-.011c.065,0,.072-.017.075-.038s0-.068,0-.124v-.151a.259.259,0,0,0,0-.051.272.272,0,0,0-.064,0c-.034.012-.057.04-.083.091H22.7l-.009,0v-.105c0-.01,0-.012.012-.012h.2c.1,0,.173,0,.191,0s.018,0,.021,0v.122a.013.013,0,0,1-.012,0" transform="translate(-8.747 -8.999)"/><path class="pu-logo-one-line-mc-b" d="M23.572,23.981c-.125,0-.2,0-.211,0l-.059,0c-.017,0-.058,0-.1,0h-.026l0-.009,0-.013a.116.116,0,0,0,.062-.014c.009-.008.012-.025.015-.062,0-.019,0-.04,0-.063V23.7c0-.032,0-.052,0-.064,0-.046-.023-.046-.07-.051l0-.011,0-.012h.157l.158,0h.043c.011,0,.015,0,.015.011l0,.094a.016.016,0,0,1-.012,0h-.009a.172.172,0,0,0-.063-.072.069.069,0,0,0-.035-.011h-.057a.294.294,0,0,0-.046,0c-.005,0-.005,0-.006.015s0,.029,0,.083v.055h.014a.2.2,0,0,0,.047,0,.081.081,0,0,0,.043-.03.169.169,0,0,0,.008-.034l.014,0,.01,0c0,.016,0,.049,0,.089,0,.02,0,.064,0,.082a.015.015,0,0,1-.011,0h-.012c0-.036-.01-.059-.041-.073a.1.1,0,0,0-.045-.008H23.33v.11a.231.231,0,0,0,0,.049c0,.006.015.021.025.023a.229.229,0,0,0,.039,0h.06a.1.1,0,0,0,.044-.007.23.23,0,0,0,.068-.09l.013,0,.01,0v.111c0,.009-.007.01-.021.01" transform="translate(-8.747 -8.999)"/><path class="pu-logo-one-line-mc-b" d="M23.863,23.991a.256.256,0,0,1-.1-.025l-.015,0a.1.1,0,0,0-.032.016.026.026,0,0,1-.023-.013c0-.009.008-.034.008-.051s0-.056,0-.067a.02.02,0,0,1,.017-.008h.008c.009.016.026.062.037.08a.138.138,0,0,0,.093.044.1.1,0,0,0,.067-.02.059.059,0,0,0,.023-.051.055.055,0,0,0-.011-.038.119.119,0,0,0-.043-.03c-.018-.008-.083-.024-.105-.037a.144.144,0,0,1-.058-.041.126.126,0,0,1-.024-.075.117.117,0,0,1,.127-.116.159.159,0,0,1,.1.028l.024-.024a.023.023,0,0,1,.022.012.438.438,0,0,0-.007.057c0,.011.007.054.007.061a.038.038,0,0,1-.017.006l-.007,0c-.011-.02-.022-.054-.034-.072a.1.1,0,0,0-.084-.036.068.068,0,0,0-.074.062.07.07,0,0,0,.051.061.559.559,0,0,0,.062.021c.031.012.053.02.067.027a.112.112,0,0,1,.068.109.134.134,0,0,1-.146.125" transform="translate(-8.747 -8.999)"/><path class="pu-logo-one-line-mc-b" d="M23.265,24.632c-.127,0-.194,0-.211,0H23c-.019,0-.058,0-.1,0h-.024l0-.009v-.013a.152.152,0,0,0,.062-.013c.008-.008.012-.027.015-.063,0-.019,0-.04,0-.062s0-.071,0-.118v-.063c0-.046-.024-.046-.071-.051v-.011l0-.011h.158l.157,0h.043c.01,0,.014,0,.014.01l0,.094-.011,0h-.01a.172.172,0,0,0-.063-.072.069.069,0,0,0-.035-.011h-.056a.291.291,0,0,0-.047,0c-.006,0,0,0-.006.016a.623.623,0,0,0,0,.083V24.4h.015a.191.191,0,0,0,.046,0,.071.071,0,0,0,.043-.031.262.262,0,0,0,.009-.033l.014,0,.01,0c0,.017,0,.049,0,.089,0,.019,0,.063,0,.082a.017.017,0,0,1-.013,0l-.01,0c0-.035-.01-.06-.041-.072a.116.116,0,0,0-.045-.008l-.029,0v.108a.109.109,0,0,0,.007.049c0,.007.013.021.024.022a.145.145,0,0,0,.039,0h.059A.122.122,0,0,0,23.2,24.6a.243.243,0,0,0,.065-.089l.014,0,.012,0v.11c0,.01-.007.011-.022.011" transform="translate(-8.747 -8.999)"/><path class="pu-logo-one-line-mc-b" d="M23.869,24.238c-.042,0-.079.024-.079.092v.213c0,.008,0,.067,0,.091a.025.025,0,0,1-.017.007.016.016,0,0,1-.01-.007l-.293-.315,0,.065V24.5c0,.009,0,.031,0,.047a.051.051,0,0,0,.022.044.089.089,0,0,0,.054.017l0,.011,0,.011h-.107l-.063,0h-.013v-.022a.1.1,0,0,0,.066-.027.116.116,0,0,0,.008-.05v-.149c0-.025,0-.036,0-.059a.089.089,0,0,0-.014-.046l-.02-.021a.335.335,0,0,0-.047-.021l0-.009,0-.011h.009c.009,0,.054,0,.089,0h.02l.013.008.216.237c.017.017.037.042.05.056v-.169c0-.023,0-.041,0-.048a.121.121,0,0,0-.013-.044c-.006-.011-.047-.017-.069-.021l0-.012,0-.01h.012l.074,0h.106l0,.009,0,.011" transform="translate(-8.747 -8.999)"/><path class="pu-logo-one-line-mc-b" d="M25.235,22.939c-.041,0-.079.024-.079.091v.214c0,.008,0,.067,0,.091a.027.027,0,0,1-.016.007.023.023,0,0,1-.013-.007l-.291-.315,0,.065V23.2c0,.009,0,.03,0,.047a.059.059,0,0,0,.021.044.1.1,0,0,0,.055.018l0,.009,0,.012h-.108l-.062,0H24.74l0-.011,0-.011a.088.088,0,0,0,.065-.028.115.115,0,0,0,.007-.05v-.148c0-.024,0-.036,0-.06a.079.079,0,0,0-.014-.044.177.177,0,0,0-.021-.022.134.134,0,0,0-.047-.02l0-.01,0-.011h.011c.008,0,.053,0,.089,0h.019l.013.008.218.237.048.057v-.17a.169.169,0,0,0,0-.048.082.082,0,0,0-.012-.044c-.006-.012-.047-.018-.068-.021l0-.012,0-.01h.013l.073,0h.105l0,.01,0,.01" transform="translate(-8.747 -8.999)"/><path class="pu-logo-one-line-mc-b" d="M25.6,22.979a.094.094,0,0,0-.084-.044.085.085,0,0,0-.076.044.239.239,0,0,0-.039.145.263.263,0,0,0,.037.146.092.092,0,0,0,.082.045.1.1,0,0,0,.09-.056.273.273,0,0,0,.026-.133.239.239,0,0,0-.036-.147m.067.3a.205.205,0,0,1-.293,0,.212.212,0,0,1-.063-.157.215.215,0,0,1,.063-.157.209.209,0,0,1,.146-.062.213.213,0,0,1,.211.214.229.229,0,0,1-.064.159" transform="translate(-8.747 -8.999)"/><path class="pu-logo-one-line-mc-b" d="M26.253,22.94a.085.085,0,0,0-.073.049l-.157.35a.031.031,0,0,1-.013.006S26,23.339,26,23.328s-.023-.06-.065-.156l-.05-.115c-.018-.042-.033-.07-.037-.078a.079.079,0,0,0-.067-.039l0-.011,0-.01H25.8l.076,0,.1,0h.017l0,.01,0,.012c-.02,0-.062,0-.062.027a.049.049,0,0,0,0,.023l.1.246.086-.2a.132.132,0,0,0,.011-.053c0-.024-.015-.034-.06-.039v-.022h.013c.02,0,.037,0,.082,0l.052,0h.03l0,.01,0,.011" transform="translate(-8.747 -8.999)"/><path class="pu-logo-one-line-mc-b" d="M25.1,23.7h-.012a.188.188,0,0,0-.031-.062.094.094,0,0,0-.076-.04h-.04v.183c0,.029,0,.063,0,.126s.022.048.073.054l0,.012,0,.01H25l-.106,0-.105,0a.016.016,0,0,1,0-.011l0-.011c.065,0,.072-.017.075-.038s0-.068,0-.124v-.151a.259.259,0,0,0,0-.051.285.285,0,0,0-.065,0c-.033.012-.056.04-.083.091H24.7l-.009,0v-.105c0-.01,0-.012.012-.012h.2c.1,0,.173,0,.191,0s.018,0,.021,0v.122l-.012,0" transform="translate(-8.747 -8.999)"/><path class="pu-logo-one-line-mc-b" d="M25.334,23.653h0c-.007.015-.023.051-.029.067-.021.053-.029.071-.033.079h.123c-.01-.025-.041-.1-.06-.146m.262.328h-.032l-.07,0-.109,0,0-.01,0-.01c.04,0,.057-.009.057-.025a.142.142,0,0,0-.013-.054.344.344,0,0,0-.022-.051s0,0-.01,0h-.131a.276.276,0,0,0-.031.079.14.14,0,0,0,0,.025c0,.013.012.028.058.029l0,.012v.009H25.12l0-.008,0-.011a.092.092,0,0,0,.058-.029.734.734,0,0,0,.054-.109c.022-.054.051-.125.062-.155s.024-.048.03-.06.017-.036.021-.043a.023.023,0,0,1,.016-.007.022.022,0,0,1,.018.008l.011.02c.024.059.043.108.072.18.016.036.024.058.04.1s.017.041.029.063.041.032.065.038l0,.01,0,.009" transform="translate(-8.747 -8.999)"/><path class="pu-logo-one-line-mc-b" d="M26.237,23.981h-.214l0-.01a.015.015,0,0,1,0-.012.2.2,0,0,0,.041,0c.018-.008.024-.023.024-.049v-.3h0L26,23.8c-.008.02-.02.044-.029.066a.794.794,0,0,0-.037.094.013.013,0,0,1-.014.009s-.009,0-.012-.013-.019-.041-.023-.052l-.138-.3h0v.078l0,.193c0,.06.031.087.078.087l0,.011,0,.009H25.8c-.006,0-.037,0-.082,0h-.086l0-.01,0-.01a.273.273,0,0,0,.061-.02c.01-.008.017-.027.017-.068v-.213c0-.034-.006-.047-.022-.057a.22.22,0,0,0-.054-.012l0-.012,0-.011.074,0h.1l.009.01.124.281.021-.055c.02-.045.047-.114.086-.187.01-.016.02-.037.026-.048l.157,0,0,.01,0,.011c-.018,0-.047,0-.061.027-.006.007-.008.015-.008.049v.2c0,.077.019.084.028.09a.145.145,0,0,0,.042.006l0,.011,0,.01" transform="translate(-8.747 -8.999)"/><path class="pu-logo-one-line-mc-b" d="M25.09,24.348h-.012a.187.187,0,0,0-.032-.062.094.094,0,0,0-.076-.04h-.04v.183c0,.029,0,.063,0,.126,0,.048.023.048.073.054l0,.012,0,.01h-.017l-.105,0-.106,0a.016.016,0,0,1,0-.011l0-.011c.066,0,.072-.017.075-.038s0-.068,0-.124V24.3a.259.259,0,0,0,0-.051.272.272,0,0,0-.064,0c-.034.012-.057.041-.082.091h-.013l-.009,0v-.106c0-.01,0-.012.012-.012h.2c.1,0,.173,0,.192,0s.017,0,.02,0v.122l-.011,0" transform="translate(-8.747 -8.999)"/><path class="pu-logo-one-line-mc-b" d="M25.605,24.239a.086.086,0,0,0-.074.049l-.157.351a.026.026,0,0,1-.012.006s-.012-.006-.015-.018-.023-.061-.064-.155l-.051-.116c-.018-.041-.033-.07-.037-.079a.081.081,0,0,0-.067-.038l0-.01,0-.01h.025l.076,0,.1,0h.016l0,.009,0,.011c-.019,0-.062,0-.062.029a.045.045,0,0,0,0,.022l.1.246.087-.2a.136.136,0,0,0,.012-.054c0-.023-.017-.033-.06-.038l0-.009,0-.012h.012c.018,0,.038,0,.082,0l.052,0h.03l0,.008,0,.012" transform="translate(-8.747 -8.999)"/><path class="pu-logo-one-line-mc-b" d="M26.246,24.632l-.167,0h-.047l0-.011c0-.006,0-.007,0-.011a.319.319,0,0,0,.042,0c.016-.008.022-.025.022-.049v-.242s0-.044,0-.056h0l-.088.192c-.01.022-.021.044-.031.068-.02.044-.03.076-.037.093a.01.01,0,0,1-.012.008c-.006,0-.01,0-.013-.012s-.018-.041-.022-.051l-.14-.3h0v.078l0,.194c0,.059.032.087.079.087l0,.01,0,.011h-.022c-.006,0-.035,0-.08,0l-.058,0h-.028l0-.011,0-.009a.243.243,0,0,0,.061-.02.1.1,0,0,0,.015-.067V24.31c0-.035,0-.047-.021-.059a.2.2,0,0,0-.053-.011l0-.011a.015.015,0,0,1,0-.011l.072,0h.1l.008.01.124.281.022-.057c.019-.045.047-.112.086-.185.008-.018.02-.038.025-.048l.157,0,0,.009,0,.011c-.017,0-.046,0-.06.028-.006.007-.01.014-.01.049v.2c0,.077.02.084.03.09a.166.166,0,0,0,.041,0l0,.01a.021.021,0,0,1,0,.012" transform="translate(-8.747 -8.999)"/><path class="pu-logo-one-line-mc-b" d="M26.751,25.291a6.355,6.355,0,0,1-.859.068,10.759,10.759,0,0,1-1.147-.081l-.056-.008v.169a.842.842,0,0,1-.277.05.8.8,0,0,1-.266-.049v-.17l-.056.008a10.777,10.777,0,0,1-1.145.081,6.377,6.377,0,0,1-.861-.068V22.816l.245-.051v2.243c.024.052.127.17.595.17l.593-.077.455-.066a.438.438,0,0,1,.4.168l.015-.007h.07l.012.007a.435.435,0,0,1,.4-.168l.453.066.6.077c.475,0,.594-.125.606-.139l.01-2.286.216.061Zm-4.324-2.779a1.1,1.1,0,0,0,.5.081l.6-.079.455-.064a.434.434,0,0,1,.4.167v2.448a.6.6,0,0,0-.4-.126L23.5,25l-.573.077c-.419,0-.506-.1-.507-.1s.008-2.3.01-2.467m2.043.105a.436.436,0,0,1,.4-.167l.453.064.6.078a1.206,1.206,0,0,0,.52-.084V25a1.431,1.431,0,0,1-.52.078L25.342,25l-.473-.065a.59.59,0,0,0-.4.125Zm2.065.034V22.3l-.085.09s-.106.106-.532.106l-.577-.077-.473-.066a.565.565,0,0,0-.448.171.559.559,0,0,0-.445-.171l-.475.066-.577.078c-.419,0-.506-.1-.507-.1l-.086-.108,0,.136v.241l-.341.072v2.64l.041.007a7.123,7.123,0,0,0,.916.074,10.552,10.552,0,0,0,1.1-.075V25.5l.028.014a.8.8,0,0,0,.337.073.872.872,0,0,0,.347-.072l.029-.014v-.12a10.535,10.535,0,0,0,1.1.075,7.093,7.093,0,0,0,.914-.074l.041-.007V22.739Z" transform="translate(-8.747 -8.999)"/></svg>